<svg height="1115" style="color-interpolation:auto;stroke:#000;stroke-linecap:square;stroke-miterlimit:10;font-family:'Dialog';font-size:12" width="1755" xmlns="http://www.w3.org/2000/svg" xmlns:xlink="http://www.w3.org/1999/xlink"><clipPath id="a"><path color-interpolation="auto" d="m-350-345h1755v1115h-1755z"/></clipPath><g shape-rendering="geometricPrecision" text-rendering="geometricPrecision" transform="translate(350 345)"><path clip-path="url(#a)" d="m-350-345h1755v1115h-1755z" fill="#fff" stroke="none"/><rect clip-path="url(#a)" fill="#ff0" height="44" rx="4" stroke="none" width="204.819" x="562.243" y="208.7514"/><g font-family="sans-serif" font-size="16" stroke-linecap="butt" stroke-miterlimit="1.45"><text clip-path="url(#a)" stroke="none" x="567.4885" y="236.7982">beast:ImaginaryStructure</text><rect clip-path="url(#a)" fill="none" height="44" rx="4" width="204.819" x="562.243" y="208.7514"/></g><rect clip-path="url(#a)" fill="#ff0" height="44" rx="4" stroke="none" width="126.095" x="1081.77" y="198.5586"/><g font-family="sans-serif" font-size="16" stroke-linecap="butt" stroke-miterlimit="1.45"><text clip-path="url(#a)" stroke="none" x="1092.5636" y="226.6055">beast:Regime</text><rect clip-path="url(#a)" fill="none" height="44" rx="4" width="126.095" x="1081.77" y="198.5586"/></g><rect clip-path="url(#a)" fill="#ff0" height="44" rx="4" stroke="none" width="185.5017" x="571.9017" y="-209.8751"/><g font-family="sans-serif" font-size="16" stroke-linecap="butt" stroke-miterlimit="1.45"><text clip-path="url(#a)" stroke="none" x="574.1642" y="-181.8282">beast:DurandImaginary</text><rect clip-path="url(#a)" fill="none" height="44" rx="4" width="185.5017" x="571.9017" y="-209.8751"/></g><rect clip-path="url(#a)" fill="#ff0" height="44" rx="4" stroke="none" width="204.819" x="909.4402" y="523.067"/><g font-family="sans-serif" font-size="16" stroke-linecap="butt" stroke-miterlimit="1.45"><text clip-path="url(#a)" stroke="none" x="921.7481" y="551.1139">beast:NocturnalRegime</text><rect clip-path="url(#a)" fill="none" height="44" rx="4" width="204.819" x="909.4402" y="523.067"/></g><rect clip-path="url(#a)" fill="#ff0" height="44" rx="4" stroke="none" width="164.9682" x="1224.2768" y="523.067"/><g font-family="sans-serif" font-size="16" stroke-linecap="butt" stroke-miterlimit="1.45"><text clip-path="url(#a)" stroke="none" x="1226.2688" y="551.1139">beast:DiurnalRegime</text><rect clip-path="url(#a)" fill="none" height="44" rx="4" width="164.9682" x="1224.2768" y="523.067"/></g><rect clip-path="url(#a)" fill="#ff0" height="44" rx="4" stroke="none" width="246.6914" x="322.3024" y="331.6246"/><g font-family="sans-serif" font-size="16" stroke-linecap="butt" stroke-miterlimit="1.45"><text clip-path="url(#a)" stroke="none" x="329.5621" y="359.6714">beast:SchizomorphicStructure</text><rect clip-path="url(#a)" fill="none" height="44" rx="4" width="246.6914" x="322.3024" y="331.6246"/></g><rect clip-path="url(#a)" fill="#ff0" height="44" rx="4" stroke="none" width="204.819" x="343.2386" y="429.944"/><g font-family="sans-serif" font-size="16" stroke-linecap="butt" stroke-miterlimit="1.45"><text clip-path="url(#a)" stroke="none" x="351.5426" y="457.9909">beast:SyntheticStructure</text><rect clip-path="url(#a)" fill="none" height="44" rx="4" width="204.819" x="343.2386" y="429.944"/></g><rect clip-path="url(#a)" fill="#ff0" height="44" rx="4" stroke="none" width="185.5017" x="343.2386" y="523.067"/><g font-family="sans-serif" font-size="16" stroke-linecap="butt" stroke-miterlimit="1.45"><text clip-path="url(#a)" stroke="none" x="345.8723" y="551.1139">beast:MysticalStructure</text><rect clip-path="url(#a)" fill="none" height="44" rx="4" width="185.5017" x="343.2386" y="523.067"/></g><rect clip-path="url(#a)" fill="#ff0" height="44" rx="4" stroke="none" width="185.5017" x="139.5241" y="208.7514"/><g font-family="sans-serif" font-size="16" stroke-linecap="butt" stroke-miterlimit="1.45"><text clip-path="url(#a)" stroke="none" x="142.2164" y="236.7982">beast:ImaginarySymbol</text><rect clip-path="url(#a)" fill="none" height="44" rx="4" width="185.5017" x="139.5241" y="208.7514"/></g><circle clip-path="url(#a)" cx="193.1646" cy="-202.1594" fill="#f9c" r="10" stroke="none"/><g font-family="sans-serif" font-size="16" stroke-linecap="butt" stroke-miterlimit="1.45"><text clip-path="url(#a)" stroke="none" x="115.4927" y="-221.5344">beast:Nyctomorphic</text><circle clip-path="url(#a)" cx="193.1646" cy="-202.1594" fill="none" r="10" stroke-width="3"/></g><circle clip-path="url(#a)" cx="193.1646" cy="-136.072" fill="#f9c" r="10" stroke="none"/><g font-family="sans-serif" font-size="16" stroke-linecap="butt" stroke-miterlimit="1.45"><text clip-path="url(#a)" stroke="none" x="120.8443" y="-155.447">beast:Teriomophic</text><circle clip-path="url(#a)" cx="193.1646" cy="-136.072" fill="none" r="10" stroke-width="3"/></g><circle clip-path="url(#a)" cx="193.1646" cy="-268.2467" fill="#f9c" r="10" stroke="none"/><g font-family="sans-serif" font-size="16" stroke-linecap="butt" stroke-miterlimit="1.45"><text clip-path="url(#a)" stroke="none" x="120.2232" y="-287.6217">beast:Catamorphic</text><circle clip-path="url(#a)" cx="193.1646" cy="-268.2467" fill="none" r="10" stroke-width="3"/></g><circle clip-path="url(#a)" cx="-131.4687" cy="-268.2467" fill="#f9c" r="10" stroke="none"/><g font-family="sans-serif" font-size="16" stroke-linecap="butt" stroke-miterlimit="1.45"><text clip-path="url(#a)" stroke="none" x="-201.0976" y="-287.6217">beast:Ascensional</text><circle clip-path="url(#a)" cx="-131.4687" cy="-268.2467" fill="none" r="10" stroke-width="3"/></g><circle clip-path="url(#a)" cx="-131.4687" cy="-202.1594" fill="#f9c" r="10" stroke="none"/><g font-family="sans-serif" font-size="16" stroke-linecap="butt" stroke-miterlimit="1.45"><text clip-path="url(#a)" stroke="none" x="-199.3554" y="-221.5344">beast:Spectacular</text><circle clip-path="url(#a)" cx="-131.4687" cy="-202.1594" fill="none" r="10" stroke-width="3"/></g><circle clip-path="url(#a)" cx="-131.4687" cy="-136.072" fill="#f9c" r="10" stroke="none"/><g font-family="sans-serif" font-size="16" stroke-linecap="butt" stroke-miterlimit="1.45"><text clip-path="url(#a)" stroke="none" x="-184.8359" y="-155.447">beast:Diaretic</text><circle clip-path="url(#a)" cx="-131.4687" cy="-136.072" fill="none" r="10" stroke-width="3"/></g><circle clip-path="url(#a)" cx="-120.8526" cy="49.6259" fill="#f9c" r="10" stroke="none"/><g font-family="sans-serif" font-size="16" stroke-linecap="butt" stroke-miterlimit="1.45"><text clip-path="url(#a)" stroke="none" x="-173.6299" y="30.2509">beast:Cyclical</text><circle clip-path="url(#a)" cx="-120.8526" cy="49.6259" fill="none" r="10" stroke-width="3"/></g><circle clip-path="url(#a)" cx="-120.8526" cy="230.7514" fill="#f9c" r="10" stroke="none"/><g font-family="sans-serif" font-size="16" stroke-linecap="butt" stroke-miterlimit="1.45"><text clip-path="url(#a)" stroke="none" x="-179.7744" y="211.3764">beast:Inversion</text><circle clip-path="url(#a)" cx="-120.8526" cy="230.7514" fill="none" r="10" stroke-width="3"/></g><circle clip-path="url(#a)" cx="-120.8526" cy="156.5147" fill="#f9c" r="10" stroke="none"/><g stroke-linecap="butt" stroke-miterlimit="1.45"><g font-family="sans-serif" font-size="16"><text clip-path="url(#a)" stroke="none" x="-177.1026" y="137.1397">beast:Intimacy</text><circle clip-path="url(#a)" cx="-120.8526" cy="156.5147" fill="none" r="10" stroke-width="3"/></g><g fill="#000080" stroke="#000080"><path clip-path="url(#a)" d="m771.0794 228.4922 299.7075-6.3621" fill="none"/><g stroke="none"><path clip-path="url(#a)" d="m763.0812 228.662c-.0468-2.2087 1.7056-4.0372 3.9142-4.084 2.2086-.0469 4.0371 1.7055 4.084 3.9142.0469 2.2086-1.7056 4.0371-3.9142 4.084-2.2086.0468-4.0371-1.7056-4.084-3.9142z"/><path clip-path="url(#a)" d="m1081.7844 221.8966-12.1246-5.744.2546 11.9973z"/><path clip-path="url(#a)" d="m846.709 213.8153h155.4141v22.8438h-155.4141z" fill="#fff"/><text clip-path="url(#a)" font-family="sans-serif" font-size="16" x="848.709" y="231.2841">beast:isGovernedBy</text></g><path clip-path="url(#a)" d="m1119.0692 195.7785-367.8442-354.013" fill="none"/><path clip-path="url(#a)" d="m1124.8336 201.3259c-1.5318 1.5917-4.0641 1.6403-5.6559.1085-1.5918-1.5319-1.6402-4.0641-.1085-5.6559 1.5319-1.5917 4.0641-1.6403 5.6559-.1084 1.5918 1.5318 1.6403 4.064.1085 5.6558z" stroke="none"/><path clip-path="url(#a)" d="m743.2993-165.8623 4.4857 12.6444 8.3211-8.6463z" stroke="none"/><path clip-path="url(#a)" d="m873.3133 4.9199h118.6172v22.8438h-118.6172z" fill="#fff" stroke="none"/><text clip-path="url(#a)" font-family="sans-serif" font-size="16" stroke="none" x="875.3134" y="22.3886">skos:inScheme</text><path clip-path="url(#a)" d="m664.6525 204.7202v-359.5808" fill="none"/><path clip-path="url(#a)" d="m664.6525 212.7202c-2.2091 0-4-1.7909-4-4s1.7909-4 4-4c2.2092 0 4 1.7909 4 4s-1.7908 4-4 4z" stroke="none"/><path clip-path="url(#a)" d="m664.6525-165.8606-6 12h12z" stroke="none"/><path clip-path="url(#a)" d="m605.3439 10.0163h118.6172v22.8438h-118.6172z" fill="#fff" stroke="none"/><text clip-path="url(#a)" font-family="sans-serif" font-size="16" stroke="none" x="607.3439" y="27.485">skos:inScheme</text><path clip-path="url(#a)" d="m1022.3748 519.3806 109.2685-266.6705" fill="none"/><path clip-path="url(#a)" d="m1019.3414 526.7831c-2.0442-.8375-3.0222-3.1737-2.1846-5.2179s3.1738-3.0223 5.218-2.1846c2.0441.8375 3.0223 3.1737 2.1846 5.2179-.8376 2.0442-3.1738 3.0223-5.218 2.1846z" stroke="none"/><path clip-path="url(#a)" d="m1135.8141 242.5314-10.1019 8.829 11.104 4.55z" stroke="none"/><path clip-path="url(#a)" d="m1018.8961 371.3909h118.875v22.8438h-118.875z" fill="#fff" stroke="none"/><text clip-path="url(#a)" font-family="sans-serif" font-size="16" stroke="none" x="1020.8961" y="388.8597">rdf:subClassOf</text><path clip-path="url(#a)" d="m1294.0033 519.5028-133.3087-267.1289" fill="none"/><path clip-path="url(#a)" d="m1297.5756 526.661c-1.9767.9865-4.3788.1837-5.3653-1.793-.9864-1.9766-.1837-4.3787 1.793-5.3652 1.9767-.9864 4.3788-.1837 5.3652 1.793.9865 1.9767.1837 4.3788-1.7929 5.3652z" stroke="none"/><path clip-path="url(#a)" d="m1155.7828 242.5314-.0103 13.4164 10.7373-5.3583z" stroke="none"/><path clip-path="url(#a)" d="m1166.3517 371.3909h118.875v22.8438h-118.875z" fill="#fff" stroke="none"/><text clip-path="url(#a)" font-family="sans-serif" font-size="16" stroke="none" x="1168.3517" y="388.8597">rdf:subClassOf</text><path clip-path="url(#a)" d="m318.2963 353.6246h-129.0548v389.0295h1117.5195v-164.5419" fill="none"/><path clip-path="url(#a)" d="m326.2963 353.6246c0 2.2091-1.7909 4-4 4-2.2092 0-4-1.7909-4-4 0-2.2092 1.7908-4 4-4 2.2091 0 4 1.7908 4 4z" stroke="none"/><path clip-path="url(#a)" d="m1306.761 567.1122-6 12h12z" stroke="none"/><path clip-path="url(#a)" d="m670.2942 731.2321h155.4141v22.8438h-155.4141z" fill="#fff" stroke="none"/><text clip-path="url(#a)" font-family="sans-serif" font-size="16" stroke="none" x="672.2942" y="748.7009">beast:isGovernedBy</text><path clip-path="url(#a)" d="m572.9647 353.6246h120.7094v-89.8248" fill="none"/><path clip-path="url(#a)" d="m564.9647 353.6246c0-2.2092 1.7909-4 4-4 2.2092 0 4 1.7908 4 4 0 2.2091-1.7908 4-4 4-2.2091 0-4-1.7909-4-4z" stroke="none"/><path clip-path="url(#a)" d="m693.6741 252.7998-6 12h12z" stroke="none"/><path clip-path="url(#a)" d="m552.0679 451.944h140.7274v-188.1649" fill="none"/><path clip-path="url(#a)" d="m544.0679 451.944c0-2.2091 1.7908-4 4-4 2.2091 0 4 1.7909 4 4s-1.7909 4-4 4c-2.2092 0-4-1.7909-4-4z" stroke="none"/><path clip-path="url(#a)" d="m692.7953 252.7791-6 12h12z" stroke="none"/><path clip-path="url(#a)" d="m445.6481 425.9245v-32.4708h-213.3731v294.9111h779.5747v-110.2924" fill="none"/><path clip-path="url(#a)" d="m445.6481 433.9245c-2.2092 0-4-1.7909-4-4 0-2.2092 1.7908-4 4-4 2.2091 0 4 1.7908 4 4 0 2.2091-1.7909 4-4 4z" stroke="none"/><path clip-path="url(#a)" d="m1011.8497 567.0724-6 12h12z" stroke="none"/><path clip-path="url(#a)" d="m532.6992 545.067h160.2351v-281.2869" fill="none"/><path clip-path="url(#a)" d="m524.6992 545.067c0-2.2092 1.7909-4 4-4 2.2092 0 4 1.7908 4 4s-1.7908 4-4 4c-2.2091 0-4-1.7908-4-4z" stroke="none"/><path clip-path="url(#a)" d="m692.9343 252.7801-6 12h12z" stroke="none"/><path clip-path="url(#a)" d="m633.4968 392.0498h118.875v22.8438h-118.875z" fill="#fff" stroke="none"/><text clip-path="url(#a)" font-family="sans-serif" font-size="16" stroke="none" x="635.4968" y="409.5186">rdf:subClassOf</text><path clip-path="url(#a)" d="m435.9894 571.0724v117.2924h575.8603v-110.2924" fill="none"/><path clip-path="url(#a)" d="m435.9894 563.0724c2.2092 0 4 1.7909 4 4 0 2.2092-1.7908 4-4 4-2.2091 0-4-1.7908-4-4 0-2.2091 1.7909-4 4-4z" stroke="none"/><path clip-path="url(#a)" d="m1011.8497 567.0724-6 12h12z" stroke="none"/><path clip-path="url(#a)" d="m646.2125 676.9429h155.4141v22.8438h-155.4141z" fill="#fff" stroke="none"/><text clip-path="url(#a)" font-family="sans-serif" font-size="16" stroke="none" x="648.2125" y="694.4117">beast:isGovernedBy</text><path clip-path="url(#a)" d="m329.0367 230.7514h222.1755" fill="none"/><path clip-path="url(#a)" d="m321.0367 230.7514c0-2.2092 1.7908-4 4-4 2.2091 0 4 1.7908 4 4 0 2.2091-1.7909 4-4 4-2.2092 0-4-1.7909-4-4z" stroke="none"/><path clip-path="url(#a)" d="m562.2122 230.7514-12-6v12z" stroke="none"/><path clip-path="url(#a)" d="m377.4001 219.3295h132.4688v22.8438h-132.4688z" fill="#fff" stroke="none"/><text clip-path="url(#a)" font-family="sans-serif" font-size="16" stroke="none" x="379.4001" y="236.7982">beast:belongsTo</text><path clip-path="url(#a)" d="m255.5249 205.822 339.1358-363.6329" fill="none"/><path clip-path="url(#a)" d="m250.0686 211.6725c-1.6156-1.5067-1.7038-4.0379-.1971-5.6534 1.5067-1.6156 4.0378-1.7038 5.6534-.1971s1.7038 4.0378.1971 5.6534-4.0379 1.7038-5.6534.1971z" stroke="none"/><path clip-path="url(#a)" d="m602.1631-165.8553-12.5723 4.6835 8.7757 8.1845z" stroke="none"/><path clip-path="url(#a)" d="m368.1787 10.0163h118.6172v22.8438h-118.6172z" fill="#fff" stroke="none"/><text clip-path="url(#a)" font-family="sans-serif" font-size="16" stroke="none" x="370.1786" y="27.485">skos:inScheme</text><path clip-path="url(#a)" d="m183.1646-202.1594h-173.6759v122.4333h222.7863v280.4575" fill="none" stroke="#000"/><path clip-path="url(#a)" d="m232.275 208.7314 5-12-5 3-5-3z" fill="#000" stroke="none"/><path clip-path="url(#a)" d="m203.1646-202.1594h134.5473v-127.3758h-672.362v612.8838h780.2982v40.2804" fill="none" stroke="#000"/><path clip-path="url(#a)" d="m445.6481 331.629 5-12-5 3-5-3z" fill="#000" stroke="none"/><path clip-path="url(#a)" d="m17.4209 271.9268h76.1562v22.8438h-76.1562z" fill="#fff" stroke="none"/></g><g font-family="sans-serif" font-size="16"><text clip-path="url(#a)" stroke="none" x="19.4209" y="289.3955">predicate</text><path clip-path="url(#a)" d="m183.1646-136.072h-173.6759v56.3459h222.7863v280.4575" fill="none"/><path clip-path="url(#a)" d="m232.275 208.7314 5-12-5 3-5-3z" stroke="none"/><path clip-path="url(#a)" d="m203.1646-136.072h134.5473v-193.4632h-672.362v612.8838h780.2982v40.2804" fill="none"/><path clip-path="url(#a)" d="m445.6481 331.629 5-12-5 3-5-3z" stroke="none"/></g></g><path clip-path="url(#a)" d="m17.4209 271.9268h76.1562v22.8438h-76.1562z" fill="#fff" stroke="none"/><g font-family="sans-serif" font-size="16" stroke-linecap="butt" stroke-miterlimit="1.45"><text clip-path="url(#a)" stroke="none" x="19.4209" y="289.3955">predicate</text><path clip-path="url(#a)" d="m183.1646-268.2467h-173.6759v188.5206h222.7863v280.4575" fill="none"/><path clip-path="url(#a)" d="m232.275 208.7314 5-12-5 3-5-3z" stroke="none"/><path clip-path="url(#a)" d="m203.1646-268.2467h134.5473v-61.2885h-672.362v612.8838h780.2982v40.2804" fill="none"/><path clip-path="url(#a)" d="m445.6481 331.629 5-12-5 3-5-3z" stroke="none"/></g><path clip-path="url(#a)" d="m17.4209 271.9268h76.1562v22.8438h-76.1562z" fill="#fff" stroke="none"/><g font-family="sans-serif" font-size="16" stroke-linecap="butt" stroke-miterlimit="1.45"><text clip-path="url(#a)" stroke="none" x="19.4209" y="289.3955">predicate</text><path clip-path="url(#a)" d="m-121.4687-268.2467h130.9574v188.5206h222.7863v280.4575" fill="none"/><path clip-path="url(#a)" d="m232.275 208.7314 5-12-5 3-5-3z" stroke="none"/><path clip-path="url(#a)" d="m-141.4687-268.2467h-193.1814v551.5953h780.2982v40.2804" fill="none"/><path clip-path="url(#a)" d="m445.6481 331.629 5-12-5 3-5-3z" stroke="none"/></g><path clip-path="url(#a)" d="m17.4209 271.9268h76.1562v22.8438h-76.1562z" fill="#fff" stroke="none"/><g font-family="sans-serif" font-size="16" stroke-linecap="butt" stroke-miterlimit="1.45"><text clip-path="url(#a)" stroke="none" x="19.4209" y="289.3955">predicate</text><path clip-path="url(#a)" d="m-121.4687-202.1594h130.9574v122.4333h222.7863v280.4575" fill="none"/><path clip-path="url(#a)" d="m232.275 208.7314 5-12-5 3-5-3z" stroke="none"/><path clip-path="url(#a)" d="m-141.4687-202.1594h-193.1814v485.508h780.2982v40.2804" fill="none"/><path clip-path="url(#a)" d="m445.6481 331.629 5-12-5 3-5-3z" stroke="none"/></g><path clip-path="url(#a)" d="m17.4209 271.9268h76.1562v22.8438h-76.1562z" fill="#fff" stroke="none"/><g font-family="sans-serif" font-size="16" stroke-linecap="butt" stroke-miterlimit="1.45"><text clip-path="url(#a)" stroke="none" x="19.4209" y="289.3955">predicate</text><path clip-path="url(#a)" d="m-121.4687-136.072h130.9574v56.3459h222.7863v280.4575" fill="none"/><path clip-path="url(#a)" d="m232.275 208.7314 5-12-5 3-5-3z" stroke="none"/></g><path clip-path="url(#a)" d="m199.8297 48.5283h64.8906v22.8438h-64.8906z" fill="#fff" stroke="none"/><g font-family="sans-serif" font-size="16" stroke-linecap="butt" stroke-miterlimit="1.45"><text clip-path="url(#a)" stroke="none" x="201.8297" y="65.997">rdf:type</text><path clip-path="url(#a)" d="m-141.4687-136.072h-193.1814v419.4206h780.2982v40.2804" fill="none"/><path clip-path="url(#a)" d="m445.6481 331.629 5-12-5 3-5-3z" stroke="none"/></g><path clip-path="url(#a)" d="m-10.7354 271.9268h132.4688v22.8438h-132.4688z" fill="#fff" stroke="none"/><g font-family="sans-serif" font-size="16" stroke-linecap="butt" stroke-miterlimit="1.45"><text clip-path="url(#a)" stroke="none" x="-8.7354" y="289.3955">beast:belongsTo</text><path clip-path="url(#a)" d="m-110.8526 49.6259h96.1286v181.1255h146.2236" fill="none"/><path clip-path="url(#a)" d="m139.4996 230.7514-12-5 3 5-3 5z" stroke="none"/><path clip-path="url(#a)" d="m-130.8526 49.6259h-133.0363v402.3181h599.1166" fill="none"/><path clip-path="url(#a)" d="m343.2277 451.944-12-5 3 5-3 5z" stroke="none"/></g><path clip-path="url(#a)" d="m-31.122 440.5221h132.4688v22.8438h-132.4688z" fill="#fff" stroke="none"/><g font-family="sans-serif" font-size="16" stroke-linecap="butt" stroke-miterlimit="1.45"><text clip-path="url(#a)" stroke="none" x="-29.122" y="457.9909">beast:belongsTo</text><path clip-path="url(#a)" d="m-120.8526 240.7514v304.3156h456.0917" fill="none"/><path clip-path="url(#a)" d="m343.2391 545.067-12-5 3 5-3 5z" stroke="none"/></g><path clip-path="url(#a)" d="m68.5524 533.6452h76.1562v22.8438h-76.1562z" fill="#fff" stroke="none"/><g font-family="sans-serif" font-size="16" stroke-linecap="butt" stroke-miterlimit="1.45"><text clip-path="url(#a)" stroke="none" x="70.5524" y="551.1139">predicate</text><path clip-path="url(#a)" d="m-110.8526 230.7514h242.3508" fill="none"/><path clip-path="url(#a)" d="m139.4982 230.7514-12-5 3 5-3 5z" stroke="none"/><path clip-path="url(#a)" d="m-130.8526 156.5147h-85.8468v199.057h95.8468v189.4953h456.0917" fill="none"/><path clip-path="url(#a)" d="m343.2391 545.067-12-5 3 5-3 5z" stroke="none"/></g><path clip-path="url(#a)" d="m40.3961 533.6452h132.4688v22.8438h-132.4688z" fill="#fff" stroke="none"/><g font-family="sans-serif" font-size="16" stroke-linecap="butt" stroke-miterlimit="1.45"><text clip-path="url(#a)" stroke="none" x="42.3961" y="551.1139">beast:belongsTo</text><path clip-path="url(#a)" d="m-110.8526 156.5147h96.1286v74.2367h146.2236" fill="none"/><path clip-path="url(#a)" d="m139.4996 230.7514-12-5 3 5-3 5z" stroke="none"/></g><path clip-path="url(#a)" d="m25.3922 219.3295h64.8906v22.8438h-64.8906z" fill="#fff" stroke="none"/><text style="stroke:none;clip-path:url(#a);font-size:16;stroke-linecap:butt;font-family:sans-serif;stroke-miterlimit:1.45" x="27.3922" y="236.7982">rdf:type</text></g></svg>