<?xml version="1.0" encoding="UTF-8"?><svg xmlns="http://www.w3.org/2000/svg" xmlns:xlink="http://www.w3.org/1999/xlink" fill-opacity="1" color-rendering="auto" color-interpolation="auto" text-rendering="auto" stroke="black" stroke-linecap="square" width="1755" stroke-miterlimit="10" shape-rendering="auto" stroke-opacity="1" fill="black" stroke-dasharray="none" font-weight="normal" stroke-width="1" height="1115" font-family="'Dialog'" font-style="normal" stroke-linejoin="miter" font-size="12px" stroke-dashoffset="0" image-rendering="auto">
  <!--Generated by ySVG 2.6-->
  <defs id="genericDefs"/>
  <g>
    <defs id="defs1">
      <clipPath clipPathUnits="userSpaceOnUse" id="clipPath1">
        <path d="M0 0 L1755 0 L1755 1115 L0 1115 L0 0 Z"/>
      </clipPath>
      <clipPath clipPathUnits="userSpaceOnUse" id="clipPath2">
        <path d="M-350 -345 L1405 -345 L1405 770 L-350 770 L-350 -345 Z"/>
      </clipPath>
    </defs>
    <g fill="white" text-rendering="geometricPrecision" shape-rendering="geometricPrecision" transform="translate(350,345)" stroke="white">
      <rect x="-350" width="1755" height="1115" y="-345" clip-path="url(#clipPath2)" stroke="none"/>
    </g>
    <g fill="yellow" text-rendering="geometricPrecision" shape-rendering="geometricPrecision" transform="matrix(1,0,0,1,350,345)" stroke="yellow">
      <rect x="562.243" y="208.7514" clip-path="url(#clipPath2)" width="204.819" rx="4" ry="4" height="44" stroke="none"/>
    </g>
    <g font-size="16px" stroke-linecap="butt" transform="matrix(1,0,0,1,350,345)" text-rendering="geometricPrecision" font-family="sans-serif" shape-rendering="geometricPrecision" stroke-miterlimit="1.45">
      <text x="567.4885" xml:space="preserve" y="236.7982" clip-path="url(#clipPath2)" stroke="none">beast:ImaginaryStructure</text>
      <rect x="562.243" y="208.7514" clip-path="url(#clipPath2)" fill="none" width="204.819" rx="4" ry="4" height="44"/>
    </g>
    <g fill="yellow" text-rendering="geometricPrecision" shape-rendering="geometricPrecision" transform="matrix(1,0,0,1,350,345)" stroke="yellow">
      <rect x="1081.77" y="198.5586" clip-path="url(#clipPath2)" width="126.095" rx="4" ry="4" height="44" stroke="none"/>
    </g>
    <g font-size="16px" stroke-linecap="butt" transform="matrix(1,0,0,1,350,345)" text-rendering="geometricPrecision" font-family="sans-serif" shape-rendering="geometricPrecision" stroke-miterlimit="1.45">
      <text x="1092.5636" xml:space="preserve" y="226.6055" clip-path="url(#clipPath2)" stroke="none">beast:Regime</text>
      <rect x="1081.77" y="198.5586" clip-path="url(#clipPath2)" fill="none" width="126.095" rx="4" ry="4" height="44"/>
    </g>
    <g fill="yellow" text-rendering="geometricPrecision" shape-rendering="geometricPrecision" transform="matrix(1,0,0,1,350,345)" stroke="yellow">
      <rect x="571.9017" y="-209.8751" clip-path="url(#clipPath2)" width="185.5017" rx="4" ry="4" height="44" stroke="none"/>
    </g>
    <g font-size="16px" stroke-linecap="butt" transform="matrix(1,0,0,1,350,345)" text-rendering="geometricPrecision" font-family="sans-serif" shape-rendering="geometricPrecision" stroke-miterlimit="1.45">
      <text x="574.1642" xml:space="preserve" y="-181.8282" clip-path="url(#clipPath2)" stroke="none">beast:DurandImaginary</text>
      <rect x="571.9017" y="-209.8751" clip-path="url(#clipPath2)" fill="none" width="185.5017" rx="4" ry="4" height="44"/>
    </g>
    <g fill="yellow" text-rendering="geometricPrecision" shape-rendering="geometricPrecision" transform="matrix(1,0,0,1,350,345)" stroke="yellow">
      <rect x="909.4402" y="523.067" clip-path="url(#clipPath2)" width="204.819" rx="4" ry="4" height="44" stroke="none"/>
    </g>
    <g font-size="16px" stroke-linecap="butt" transform="matrix(1,0,0,1,350,345)" text-rendering="geometricPrecision" font-family="sans-serif" shape-rendering="geometricPrecision" stroke-miterlimit="1.45">
      <text x="921.7481" xml:space="preserve" y="551.1139" clip-path="url(#clipPath2)" stroke="none">beast:NocturnalRegime</text>
      <rect x="909.4402" y="523.067" clip-path="url(#clipPath2)" fill="none" width="204.819" rx="4" ry="4" height="44"/>
    </g>
    <g fill="yellow" text-rendering="geometricPrecision" shape-rendering="geometricPrecision" transform="matrix(1,0,0,1,350,345)" stroke="yellow">
      <rect x="1224.2768" y="523.067" clip-path="url(#clipPath2)" width="164.9682" rx="4" ry="4" height="44" stroke="none"/>
    </g>
    <g font-size="16px" stroke-linecap="butt" transform="matrix(1,0,0,1,350,345)" text-rendering="geometricPrecision" font-family="sans-serif" shape-rendering="geometricPrecision" stroke-miterlimit="1.45">
      <text x="1226.2688" xml:space="preserve" y="551.1139" clip-path="url(#clipPath2)" stroke="none">beast:DiurnalRegime</text>
      <rect x="1224.2768" y="523.067" clip-path="url(#clipPath2)" fill="none" width="164.9682" rx="4" ry="4" height="44"/>
    </g>
    <g fill="yellow" text-rendering="geometricPrecision" shape-rendering="geometricPrecision" transform="matrix(1,0,0,1,350,345)" stroke="yellow">
      <rect x="322.3024" y="331.6246" clip-path="url(#clipPath2)" width="246.6914" rx="4" ry="4" height="44" stroke="none"/>
    </g>
    <g font-size="16px" stroke-linecap="butt" transform="matrix(1,0,0,1,350,345)" text-rendering="geometricPrecision" font-family="sans-serif" shape-rendering="geometricPrecision" stroke-miterlimit="1.45">
      <text x="329.5621" xml:space="preserve" y="359.6714" clip-path="url(#clipPath2)" stroke="none">beast:SchizomorphicStructure</text>
      <rect x="322.3024" y="331.6246" clip-path="url(#clipPath2)" fill="none" width="246.6914" rx="4" ry="4" height="44"/>
    </g>
    <g fill="yellow" text-rendering="geometricPrecision" shape-rendering="geometricPrecision" transform="matrix(1,0,0,1,350,345)" stroke="yellow">
      <rect x="343.2386" y="429.944" clip-path="url(#clipPath2)" width="204.819" rx="4" ry="4" height="44" stroke="none"/>
    </g>
    <g font-size="16px" stroke-linecap="butt" transform="matrix(1,0,0,1,350,345)" text-rendering="geometricPrecision" font-family="sans-serif" shape-rendering="geometricPrecision" stroke-miterlimit="1.45">
      <text x="351.5426" xml:space="preserve" y="457.9909" clip-path="url(#clipPath2)" stroke="none">beast:SyntheticStructure</text>
      <rect x="343.2386" y="429.944" clip-path="url(#clipPath2)" fill="none" width="204.819" rx="4" ry="4" height="44"/>
    </g>
    <g fill="yellow" text-rendering="geometricPrecision" shape-rendering="geometricPrecision" transform="matrix(1,0,0,1,350,345)" stroke="yellow">
      <rect x="343.2386" y="523.067" clip-path="url(#clipPath2)" width="185.5017" rx="4" ry="4" height="44" stroke="none"/>
    </g>
    <g font-size="16px" stroke-linecap="butt" transform="matrix(1,0,0,1,350,345)" text-rendering="geometricPrecision" font-family="sans-serif" shape-rendering="geometricPrecision" stroke-miterlimit="1.45">
      <text x="345.8723" xml:space="preserve" y="551.1139" clip-path="url(#clipPath2)" stroke="none">beast:MysticalStructure</text>
      <rect x="343.2386" y="523.067" clip-path="url(#clipPath2)" fill="none" width="185.5017" rx="4" ry="4" height="44"/>
    </g>
    <g fill="yellow" text-rendering="geometricPrecision" shape-rendering="geometricPrecision" transform="matrix(1,0,0,1,350,345)" stroke="yellow">
      <rect x="139.5241" y="208.7514" clip-path="url(#clipPath2)" width="185.5017" rx="4" ry="4" height="44" stroke="none"/>
    </g>
    <g font-size="16px" stroke-linecap="butt" transform="matrix(1,0,0,1,350,345)" text-rendering="geometricPrecision" font-family="sans-serif" shape-rendering="geometricPrecision" stroke-miterlimit="1.45">
      <text x="142.2164" xml:space="preserve" y="236.7982" clip-path="url(#clipPath2)" stroke="none">beast:ImaginarySymbol</text>
      <rect x="139.5241" y="208.7514" clip-path="url(#clipPath2)" fill="none" width="185.5017" rx="4" ry="4" height="44"/>
    </g>
    <g fill="rgb(255,153,204)" text-rendering="geometricPrecision" shape-rendering="geometricPrecision" transform="matrix(1,0,0,1,350,345)" stroke="rgb(255,153,204)">
      <circle r="10" clip-path="url(#clipPath2)" cx="193.1646" cy="-202.1594" stroke="none"/>
    </g>
    <g font-size="16px" stroke-linecap="butt" transform="matrix(1,0,0,1,350,345)" text-rendering="geometricPrecision" font-family="sans-serif" shape-rendering="geometricPrecision" stroke-miterlimit="1.45">
      <text x="115.4927" xml:space="preserve" y="-221.5344" clip-path="url(#clipPath2)" stroke="none">beast:Nyctomorphic</text>
      <circle fill="none" stroke-width="3" r="10" clip-path="url(#clipPath2)" cx="193.1646" cy="-202.1594"/>
    </g>
    <g fill="rgb(255,153,204)" text-rendering="geometricPrecision" shape-rendering="geometricPrecision" transform="matrix(1,0,0,1,350,345)" stroke="rgb(255,153,204)">
      <circle r="10" clip-path="url(#clipPath2)" cx="193.1646" cy="-136.072" stroke="none"/>
    </g>
    <g font-size="16px" stroke-linecap="butt" transform="matrix(1,0,0,1,350,345)" text-rendering="geometricPrecision" font-family="sans-serif" shape-rendering="geometricPrecision" stroke-miterlimit="1.45">
      <text x="120.8443" xml:space="preserve" y="-155.447" clip-path="url(#clipPath2)" stroke="none">beast:Teriomophic</text>
      <circle fill="none" stroke-width="3" r="10" clip-path="url(#clipPath2)" cx="193.1646" cy="-136.072"/>
    </g>
    <g fill="rgb(255,153,204)" text-rendering="geometricPrecision" shape-rendering="geometricPrecision" transform="matrix(1,0,0,1,350,345)" stroke="rgb(255,153,204)">
      <circle r="10" clip-path="url(#clipPath2)" cx="193.1646" cy="-268.2467" stroke="none"/>
    </g>
    <g font-size="16px" stroke-linecap="butt" transform="matrix(1,0,0,1,350,345)" text-rendering="geometricPrecision" font-family="sans-serif" shape-rendering="geometricPrecision" stroke-miterlimit="1.45">
      <text x="120.2232" xml:space="preserve" y="-287.6217" clip-path="url(#clipPath2)" stroke="none">beast:Catamorphic</text>
      <circle fill="none" stroke-width="3" r="10" clip-path="url(#clipPath2)" cx="193.1646" cy="-268.2467"/>
    </g>
    <g fill="rgb(255,153,204)" text-rendering="geometricPrecision" shape-rendering="geometricPrecision" transform="matrix(1,0,0,1,350,345)" stroke="rgb(255,153,204)">
      <circle r="10" clip-path="url(#clipPath2)" cx="-131.4687" cy="-268.2467" stroke="none"/>
    </g>
    <g font-size="16px" stroke-linecap="butt" transform="matrix(1,0,0,1,350,345)" text-rendering="geometricPrecision" font-family="sans-serif" shape-rendering="geometricPrecision" stroke-miterlimit="1.45">
      <text x="-201.0976" xml:space="preserve" y="-287.6217" clip-path="url(#clipPath2)" stroke="none">beast:Ascensional</text>
      <circle fill="none" stroke-width="3" r="10" clip-path="url(#clipPath2)" cx="-131.4687" cy="-268.2467"/>
    </g>
    <g fill="rgb(255,153,204)" text-rendering="geometricPrecision" shape-rendering="geometricPrecision" transform="matrix(1,0,0,1,350,345)" stroke="rgb(255,153,204)">
      <circle r="10" clip-path="url(#clipPath2)" cx="-131.4687" cy="-202.1594" stroke="none"/>
    </g>
    <g font-size="16px" stroke-linecap="butt" transform="matrix(1,0,0,1,350,345)" text-rendering="geometricPrecision" font-family="sans-serif" shape-rendering="geometricPrecision" stroke-miterlimit="1.45">
      <text x="-199.3554" xml:space="preserve" y="-221.5344" clip-path="url(#clipPath2)" stroke="none">beast:Spectacular</text>
      <circle fill="none" stroke-width="3" r="10" clip-path="url(#clipPath2)" cx="-131.4687" cy="-202.1594"/>
    </g>
    <g fill="rgb(255,153,204)" text-rendering="geometricPrecision" shape-rendering="geometricPrecision" transform="matrix(1,0,0,1,350,345)" stroke="rgb(255,153,204)">
      <circle r="10" clip-path="url(#clipPath2)" cx="-131.4687" cy="-136.072" stroke="none"/>
    </g>
    <g font-size="16px" stroke-linecap="butt" transform="matrix(1,0,0,1,350,345)" text-rendering="geometricPrecision" font-family="sans-serif" shape-rendering="geometricPrecision" stroke-miterlimit="1.45">
      <text x="-184.8359" xml:space="preserve" y="-155.447" clip-path="url(#clipPath2)" stroke="none">beast:Diaretic</text>
      <circle fill="none" stroke-width="3" r="10" clip-path="url(#clipPath2)" cx="-131.4687" cy="-136.072"/>
    </g>
    <g fill="rgb(255,153,204)" text-rendering="geometricPrecision" shape-rendering="geometricPrecision" transform="matrix(1,0,0,1,350,345)" stroke="rgb(255,153,204)">
      <circle r="10" clip-path="url(#clipPath2)" cx="-120.8526" cy="49.6259" stroke="none"/>
    </g>
    <g font-size="16px" stroke-linecap="butt" transform="matrix(1,0,0,1,350,345)" text-rendering="geometricPrecision" font-family="sans-serif" shape-rendering="geometricPrecision" stroke-miterlimit="1.45">
      <text x="-173.6299" xml:space="preserve" y="30.2509" clip-path="url(#clipPath2)" stroke="none">beast:Cyclical</text>
      <circle fill="none" stroke-width="3" r="10" clip-path="url(#clipPath2)" cx="-120.8526" cy="49.6259"/>
    </g>
    <g fill="rgb(255,153,204)" text-rendering="geometricPrecision" shape-rendering="geometricPrecision" transform="matrix(1,0,0,1,350,345)" stroke="rgb(255,153,204)">
      <circle r="10" clip-path="url(#clipPath2)" cx="-120.8526" cy="230.7514" stroke="none"/>
    </g>
    <g font-size="16px" stroke-linecap="butt" transform="matrix(1,0,0,1,350,345)" text-rendering="geometricPrecision" font-family="sans-serif" shape-rendering="geometricPrecision" stroke-miterlimit="1.45">
      <text x="-179.7744" xml:space="preserve" y="211.3764" clip-path="url(#clipPath2)" stroke="none">beast:Inversion</text>
      <circle fill="none" stroke-width="3" r="10" clip-path="url(#clipPath2)" cx="-120.8526" cy="230.7514"/>
    </g>
    <g fill="rgb(255,153,204)" text-rendering="geometricPrecision" shape-rendering="geometricPrecision" transform="matrix(1,0,0,1,350,345)" stroke="rgb(255,153,204)">
      <circle r="10" clip-path="url(#clipPath2)" cx="-120.8526" cy="156.5147" stroke="none"/>
    </g>
    <g font-size="16px" stroke-linecap="butt" transform="matrix(1,0,0,1,350,345)" text-rendering="geometricPrecision" font-family="sans-serif" shape-rendering="geometricPrecision" stroke-miterlimit="1.45">
      <text x="-177.1026" xml:space="preserve" y="137.1397" clip-path="url(#clipPath2)" stroke="none">beast:Intimacy</text>
      <circle fill="none" stroke-width="3" r="10" clip-path="url(#clipPath2)" cx="-120.8526" cy="156.5147"/>
    </g>
    <g stroke-linecap="butt" transform="matrix(1,0,0,1,350,345)" fill="navy" text-rendering="geometricPrecision" shape-rendering="geometricPrecision" stroke="navy" stroke-miterlimit="1.45">
      <path fill="none" d="M771.0794 228.4922 L1070.7869 222.1301" clip-path="url(#clipPath2)"/>
      <path d="M763.0812 228.662 C763.0344 226.4533 764.7868 224.6248 766.9954 224.578 C769.204 224.5311 771.0325 226.2835 771.0794 228.4922 C771.1263 230.7008 769.3738 232.5293 767.1652 232.5762 C764.9566 232.623 763.1281 230.8706 763.0812 228.662 Z" clip-path="url(#clipPath2)" stroke="none"/>
      <path d="M1081.7844 221.8966 L1069.6598 216.1526 L1069.9144 228.1499 Z" clip-path="url(#clipPath2)" stroke="none"/>
      <rect x="846.709" y="213.8153" clip-path="url(#clipPath2)" fill="white" width="155.4141" height="22.8438" stroke="none"/>
      <text x="848.709" font-size="16px" y="231.2841" clip-path="url(#clipPath2)" font-family="sans-serif" stroke="none" xml:space="preserve">beast:isGovernedBy</text>
      <path fill="none" d="M1119.0692 195.7785 L751.225 -158.2345" clip-path="url(#clipPath2)"/>
      <path d="M1124.8336 201.3259 C1123.3018 202.9176 1120.7695 202.9662 1119.1777 201.4344 C1117.5859 199.9025 1117.5375 197.3703 1119.0692 195.7785 C1120.6011 194.1868 1123.1333 194.1382 1124.7251 195.6701 C1126.3169 197.2019 1126.3654 199.7341 1124.8336 201.3259 Z" clip-path="url(#clipPath2)" stroke="none"/>
      <path d="M743.2993 -165.8623 L747.785 -153.2179 L756.1061 -161.8642 Z" clip-path="url(#clipPath2)" stroke="none"/>
      <rect x="873.3133" y="4.9199" clip-path="url(#clipPath2)" fill="white" width="118.6172" height="22.8438" stroke="none"/>
      <text x="875.3134" font-size="16px" y="22.3886" clip-path="url(#clipPath2)" font-family="sans-serif" stroke="none" xml:space="preserve">skos:inScheme</text>
      <path fill="none" d="M664.6525 204.7202 L664.6525 -154.8606" clip-path="url(#clipPath2)"/>
      <path d="M664.6525 212.7202 C662.4434 212.7202 660.6525 210.9293 660.6525 208.7202 C660.6525 206.5111 662.4434 204.7202 664.6525 204.7202 C666.8617 204.7202 668.6525 206.5111 668.6525 208.7202 C668.6525 210.9293 666.8617 212.7202 664.6525 212.7202 Z" clip-path="url(#clipPath2)" stroke="none"/>
      <path d="M664.6525 -165.8606 L658.6525 -153.8606 L670.6525 -153.8606 Z" clip-path="url(#clipPath2)" stroke="none"/>
      <rect x="605.3439" y="10.0163" clip-path="url(#clipPath2)" fill="white" width="118.6172" height="22.8438" stroke="none"/>
      <text x="607.3439" font-size="16px" y="27.485" clip-path="url(#clipPath2)" font-family="sans-serif" stroke="none" xml:space="preserve">skos:inScheme</text>
      <path fill="none" d="M1022.3748 519.3806 L1131.6433 252.7101" clip-path="url(#clipPath2)"/>
      <path d="M1019.3414 526.7831 C1017.2972 525.9456 1016.3192 523.6094 1017.1568 521.5652 C1017.9944 519.521 1020.3306 518.5429 1022.3748 519.3806 C1024.4189 520.2181 1025.3971 522.5543 1024.5594 524.5985 C1023.7218 526.6427 1021.3856 527.6208 1019.3414 526.7831 Z" clip-path="url(#clipPath2)" stroke="none"/>
      <path d="M1135.8141 242.5314 L1125.7122 251.3604 L1136.8162 255.9104 Z" clip-path="url(#clipPath2)" stroke="none"/>
      <rect x="1018.8961" y="371.3909" clip-path="url(#clipPath2)" fill="white" width="118.875" height="22.8438" stroke="none"/>
      <text x="1020.8961" font-size="16px" y="388.8597" clip-path="url(#clipPath2)" font-family="sans-serif" stroke="none" xml:space="preserve">rdf:subClassOf</text>
      <path fill="none" d="M1294.0033 519.5028 L1160.6946 252.3739" clip-path="url(#clipPath2)"/>
      <path d="M1297.5756 526.661 C1295.5989 527.6475 1293.1968 526.8447 1292.2103 524.868 C1291.2239 522.8914 1292.0266 520.4893 1294.0033 519.5028 C1295.98 518.5164 1298.3821 519.3191 1299.3685 521.2958 C1300.355 523.2725 1299.5522 525.6746 1297.5756 526.661 Z" clip-path="url(#clipPath2)" stroke="none"/>
      <path d="M1155.7828 242.5314 L1155.7725 255.9478 L1166.5098 250.5895 Z" clip-path="url(#clipPath2)" stroke="none"/>
      <rect x="1166.3517" y="371.3909" clip-path="url(#clipPath2)" fill="white" width="118.875" height="22.8438" stroke="none"/>
      <text x="1168.3517" font-size="16px" y="388.8597" clip-path="url(#clipPath2)" font-family="sans-serif" stroke="none" xml:space="preserve">rdf:subClassOf</text>
      <path fill="none" d="M318.2963 353.6246 L189.2415 353.6246 L189.2415 742.6541 L1306.761 742.6541 L1306.761 578.1122" clip-path="url(#clipPath2)"/>
      <path d="M326.2963 353.6246 C326.2963 355.8337 324.5054 357.6246 322.2963 357.6246 C320.0871 357.6246 318.2963 355.8337 318.2963 353.6246 C318.2963 351.4154 320.0871 349.6246 322.2963 349.6246 C324.5054 349.6246 326.2963 351.4154 326.2963 353.6246 Z" clip-path="url(#clipPath2)" stroke="none"/>
      <path d="M1306.761 567.1122 L1300.761 579.1122 L1312.761 579.1122 Z" clip-path="url(#clipPath2)" stroke="none"/>
      <rect x="670.2942" y="731.2321" clip-path="url(#clipPath2)" fill="white" width="155.4141" height="22.8438" stroke="none"/>
      <text x="672.2942" font-size="16px" y="748.7009" clip-path="url(#clipPath2)" font-family="sans-serif" stroke="none" xml:space="preserve">beast:isGovernedBy</text>
      <path fill="none" d="M572.9647 353.6246 L693.6741 353.6246 L693.6741 263.7998" clip-path="url(#clipPath2)"/>
      <path d="M564.9647 353.6246 C564.9647 351.4154 566.7556 349.6246 568.9647 349.6246 C571.1739 349.6246 572.9647 351.4154 572.9647 353.6246 C572.9647 355.8337 571.1739 357.6246 568.9647 357.6246 C566.7556 357.6246 564.9647 355.8337 564.9647 353.6246 Z" clip-path="url(#clipPath2)" stroke="none"/>
      <path d="M693.6741 252.7998 L687.6741 264.7998 L699.6741 264.7998 Z" clip-path="url(#clipPath2)" stroke="none"/>
      <path fill="none" d="M552.0679 451.944 L692.7953 451.944 L692.7953 263.7791" clip-path="url(#clipPath2)"/>
      <path d="M544.0679 451.944 C544.0679 449.7349 545.8587 447.944 548.0679 447.944 C550.277 447.944 552.0679 449.7349 552.0679 451.944 C552.0679 454.1531 550.277 455.944 548.0679 455.944 C545.8587 455.944 544.0679 454.1531 544.0679 451.944 Z" clip-path="url(#clipPath2)" stroke="none"/>
      <path d="M692.7953 252.7791 L686.7953 264.7791 L698.7953 264.7791 Z" clip-path="url(#clipPath2)" stroke="none"/>
      <path fill="none" d="M445.6481 425.9245 L445.6481 393.4537 L232.275 393.4537 L232.275 688.3648 L1011.8497 688.3648 L1011.8497 578.0724" clip-path="url(#clipPath2)"/>
      <path d="M445.6481 433.9245 C443.4389 433.9245 441.6481 432.1336 441.6481 429.9245 C441.6481 427.7153 443.4389 425.9245 445.6481 425.9245 C447.8572 425.9245 449.6481 427.7153 449.6481 429.9245 C449.6481 432.1336 447.8572 433.9245 445.6481 433.9245 Z" clip-path="url(#clipPath2)" stroke="none"/>
      <path d="M1011.8497 567.0724 L1005.8497 579.0724 L1017.8497 579.0724 Z" clip-path="url(#clipPath2)" stroke="none"/>
      <path fill="none" d="M532.6992 545.067 L692.9343 545.067 L692.9343 263.7801" clip-path="url(#clipPath2)"/>
      <path d="M524.6992 545.067 C524.6992 542.8578 526.4901 541.067 528.6992 541.067 C530.9084 541.067 532.6992 542.8578 532.6992 545.067 C532.6992 547.2762 530.9084 549.067 528.6992 549.067 C526.4901 549.067 524.6992 547.2762 524.6992 545.067 Z" clip-path="url(#clipPath2)" stroke="none"/>
      <path d="M692.9343 252.7801 L686.9343 264.7801 L698.9343 264.7801 Z" clip-path="url(#clipPath2)" stroke="none"/>
      <rect x="633.4968" y="392.0498" clip-path="url(#clipPath2)" fill="white" width="118.875" height="22.8438" stroke="none"/>
      <text x="635.4968" font-size="16px" y="409.5186" clip-path="url(#clipPath2)" font-family="sans-serif" stroke="none" xml:space="preserve">rdf:subClassOf</text>
      <path fill="none" d="M435.9894 571.0724 L435.9894 688.3648 L1011.8497 688.3648 L1011.8497 578.0724" clip-path="url(#clipPath2)"/>
      <path d="M435.9894 563.0724 C438.1986 563.0724 439.9894 564.8633 439.9894 567.0724 C439.9894 569.2816 438.1986 571.0724 435.9894 571.0724 C433.7803 571.0724 431.9894 569.2816 431.9894 567.0724 C431.9894 564.8633 433.7803 563.0724 435.9894 563.0724 Z" clip-path="url(#clipPath2)" stroke="none"/>
      <path d="M1011.8497 567.0724 L1005.8497 579.0724 L1017.8497 579.0724 Z" clip-path="url(#clipPath2)" stroke="none"/>
      <rect x="646.2125" y="676.9429" clip-path="url(#clipPath2)" fill="white" width="155.4141" height="22.8438" stroke="none"/>
      <text x="648.2125" font-size="16px" y="694.4117" clip-path="url(#clipPath2)" font-family="sans-serif" stroke="none" xml:space="preserve">beast:isGovernedBy</text>
      <path fill="none" d="M329.0367 230.7514 L551.2122 230.7514" clip-path="url(#clipPath2)"/>
      <path d="M321.0367 230.7514 C321.0367 228.5422 322.8275 226.7514 325.0367 226.7514 C327.2458 226.7514 329.0367 228.5422 329.0367 230.7514 C329.0367 232.9605 327.2458 234.7514 325.0367 234.7514 C322.8275 234.7514 321.0367 232.9605 321.0367 230.7514 Z" clip-path="url(#clipPath2)" stroke="none"/>
      <path d="M562.2122 230.7514 L550.2122 224.7514 L550.2122 236.7514 Z" clip-path="url(#clipPath2)" stroke="none"/>
      <rect x="377.4001" y="219.3295" clip-path="url(#clipPath2)" fill="white" width="132.4688" height="22.8438" stroke="none"/>
      <text x="379.4001" font-size="16px" y="236.7982" clip-path="url(#clipPath2)" font-family="sans-serif" stroke="none" xml:space="preserve">beast:belongsTo</text>
      <path fill="none" d="M255.5249 205.822 L594.6607 -157.8109" clip-path="url(#clipPath2)"/>
      <path d="M250.0686 211.6725 C248.453 210.1658 248.3648 207.6346 249.8715 206.0191 C251.3782 204.4035 253.9093 204.3153 255.5249 205.822 C257.1405 207.3287 257.2287 209.8598 255.722 211.4754 C254.2153 213.091 251.6841 213.1792 250.0686 211.6725 Z" clip-path="url(#clipPath2)" stroke="none"/>
      <path d="M602.1631 -165.8553 L589.5908 -161.1718 L598.3665 -152.9873 Z" clip-path="url(#clipPath2)" stroke="none"/>
      <rect x="368.1787" y="10.0163" clip-path="url(#clipPath2)" fill="white" width="118.6172" height="22.8438" stroke="none"/>
      <text x="370.1786" font-size="16px" y="27.485" clip-path="url(#clipPath2)" font-family="sans-serif" stroke="none" xml:space="preserve">skos:inScheme</text>
      <path fill="none" d="M183.1646 -202.1594 L9.4887 -202.1594 L9.4887 -79.7261 L232.275 -79.7261 L232.275 200.7314" clip-path="url(#clipPath2)" stroke="black"/>
      <path fill="black" d="M232.275 208.7314 L237.275 196.7314 L232.275 199.7314 L227.275 196.7314 Z" clip-path="url(#clipPath2)" stroke="none"/>
      <path fill="none" d="M203.1646 -202.1594 L337.7119 -202.1594 L337.7119 -329.5352 L-334.6501 -329.5352 L-334.6501 283.3486 L445.6481 283.3486 L445.6481 323.629" clip-path="url(#clipPath2)" stroke="black"/>
      <path fill="black" d="M445.6481 331.629 L450.6481 319.629 L445.6481 322.629 L440.6481 319.629 Z" clip-path="url(#clipPath2)" stroke="none"/>
      <rect x="17.4209" y="271.9268" clip-path="url(#clipPath2)" fill="white" width="76.1562" height="22.8438" stroke="none"/>
    </g>
    <g font-size="16px" stroke-linecap="butt" transform="matrix(1,0,0,1,350,345)" text-rendering="geometricPrecision" font-family="sans-serif" shape-rendering="geometricPrecision" stroke-miterlimit="1.45">
      <text x="19.4209" xml:space="preserve" y="289.3955" clip-path="url(#clipPath2)" stroke="none">predicate</text>
      <path fill="none" d="M183.1646 -136.072 L9.4887 -136.072 L9.4887 -79.7261 L232.275 -79.7261 L232.275 200.7314" clip-path="url(#clipPath2)"/>
      <path d="M232.275 208.7314 L237.275 196.7314 L232.275 199.7314 L227.275 196.7314 Z" stroke="none" clip-path="url(#clipPath2)"/>
      <path fill="none" d="M203.1646 -136.072 L337.7119 -136.072 L337.7119 -329.5352 L-334.6501 -329.5352 L-334.6501 283.3486 L445.6481 283.3486 L445.6481 323.629" clip-path="url(#clipPath2)"/>
      <path d="M445.6481 331.629 L450.6481 319.629 L445.6481 322.629 L440.6481 319.629 Z" stroke="none" clip-path="url(#clipPath2)"/>
    </g>
    <g stroke-linecap="butt" transform="matrix(1,0,0,1,350,345)" fill="white" text-rendering="geometricPrecision" shape-rendering="geometricPrecision" stroke="white" stroke-miterlimit="1.45">
      <rect x="17.4209" width="76.1562" height="22.8438" y="271.9268" clip-path="url(#clipPath2)" stroke="none"/>
    </g>
    <g font-size="16px" stroke-linecap="butt" transform="matrix(1,0,0,1,350,345)" text-rendering="geometricPrecision" font-family="sans-serif" shape-rendering="geometricPrecision" stroke-miterlimit="1.45">
      <text x="19.4209" xml:space="preserve" y="289.3955" clip-path="url(#clipPath2)" stroke="none">predicate</text>
      <path fill="none" d="M183.1646 -268.2467 L9.4887 -268.2467 L9.4887 -79.7261 L232.275 -79.7261 L232.275 200.7314" clip-path="url(#clipPath2)"/>
      <path d="M232.275 208.7314 L237.275 196.7314 L232.275 199.7314 L227.275 196.7314 Z" stroke="none" clip-path="url(#clipPath2)"/>
      <path fill="none" d="M203.1646 -268.2467 L337.7119 -268.2467 L337.7119 -329.5352 L-334.6501 -329.5352 L-334.6501 283.3486 L445.6481 283.3486 L445.6481 323.629" clip-path="url(#clipPath2)"/>
      <path d="M445.6481 331.629 L450.6481 319.629 L445.6481 322.629 L440.6481 319.629 Z" stroke="none" clip-path="url(#clipPath2)"/>
    </g>
    <g stroke-linecap="butt" transform="matrix(1,0,0,1,350,345)" fill="white" text-rendering="geometricPrecision" shape-rendering="geometricPrecision" stroke="white" stroke-miterlimit="1.45">
      <rect x="17.4209" width="76.1562" height="22.8438" y="271.9268" clip-path="url(#clipPath2)" stroke="none"/>
    </g>
    <g font-size="16px" stroke-linecap="butt" transform="matrix(1,0,0,1,350,345)" text-rendering="geometricPrecision" font-family="sans-serif" shape-rendering="geometricPrecision" stroke-miterlimit="1.45">
      <text x="19.4209" xml:space="preserve" y="289.3955" clip-path="url(#clipPath2)" stroke="none">predicate</text>
      <path fill="none" d="M-121.4687 -268.2467 L9.4887 -268.2467 L9.4887 -79.7261 L232.275 -79.7261 L232.275 200.7314" clip-path="url(#clipPath2)"/>
      <path d="M232.275 208.7314 L237.275 196.7314 L232.275 199.7314 L227.275 196.7314 Z" stroke="none" clip-path="url(#clipPath2)"/>
      <path fill="none" d="M-141.4687 -268.2467 L-334.6501 -268.2467 L-334.6501 283.3486 L445.6481 283.3486 L445.6481 323.629" clip-path="url(#clipPath2)"/>
      <path d="M445.6481 331.629 L450.6481 319.629 L445.6481 322.629 L440.6481 319.629 Z" stroke="none" clip-path="url(#clipPath2)"/>
    </g>
    <g stroke-linecap="butt" transform="matrix(1,0,0,1,350,345)" fill="white" text-rendering="geometricPrecision" shape-rendering="geometricPrecision" stroke="white" stroke-miterlimit="1.45">
      <rect x="17.4209" width="76.1562" height="22.8438" y="271.9268" clip-path="url(#clipPath2)" stroke="none"/>
    </g>
    <g font-size="16px" stroke-linecap="butt" transform="matrix(1,0,0,1,350,345)" text-rendering="geometricPrecision" font-family="sans-serif" shape-rendering="geometricPrecision" stroke-miterlimit="1.45">
      <text x="19.4209" xml:space="preserve" y="289.3955" clip-path="url(#clipPath2)" stroke="none">predicate</text>
      <path fill="none" d="M-121.4687 -202.1594 L9.4887 -202.1594 L9.4887 -79.7261 L232.275 -79.7261 L232.275 200.7314" clip-path="url(#clipPath2)"/>
      <path d="M232.275 208.7314 L237.275 196.7314 L232.275 199.7314 L227.275 196.7314 Z" stroke="none" clip-path="url(#clipPath2)"/>
      <path fill="none" d="M-141.4687 -202.1594 L-334.6501 -202.1594 L-334.6501 283.3486 L445.6481 283.3486 L445.6481 323.629" clip-path="url(#clipPath2)"/>
      <path d="M445.6481 331.629 L450.6481 319.629 L445.6481 322.629 L440.6481 319.629 Z" stroke="none" clip-path="url(#clipPath2)"/>
    </g>
    <g stroke-linecap="butt" transform="matrix(1,0,0,1,350,345)" fill="white" text-rendering="geometricPrecision" shape-rendering="geometricPrecision" stroke="white" stroke-miterlimit="1.45">
      <rect x="17.4209" width="76.1562" height="22.8438" y="271.9268" clip-path="url(#clipPath2)" stroke="none"/>
    </g>
    <g font-size="16px" stroke-linecap="butt" transform="matrix(1,0,0,1,350,345)" text-rendering="geometricPrecision" font-family="sans-serif" shape-rendering="geometricPrecision" stroke-miterlimit="1.45">
      <text x="19.4209" xml:space="preserve" y="289.3955" clip-path="url(#clipPath2)" stroke="none">predicate</text>
      <path fill="none" d="M-121.4687 -136.072 L9.4887 -136.072 L9.4887 -79.7261 L232.275 -79.7261 L232.275 200.7314" clip-path="url(#clipPath2)"/>
      <path d="M232.275 208.7314 L237.275 196.7314 L232.275 199.7314 L227.275 196.7314 Z" stroke="none" clip-path="url(#clipPath2)"/>
    </g>
    <g stroke-linecap="butt" transform="matrix(1,0,0,1,350,345)" fill="white" text-rendering="geometricPrecision" shape-rendering="geometricPrecision" stroke="white" stroke-miterlimit="1.45">
      <rect x="199.8297" width="64.8906" height="22.8438" y="48.5283" clip-path="url(#clipPath2)" stroke="none"/>
    </g>
    <g font-size="16px" stroke-linecap="butt" transform="matrix(1,0,0,1,350,345)" text-rendering="geometricPrecision" font-family="sans-serif" shape-rendering="geometricPrecision" stroke-miterlimit="1.45">
      <text x="201.8297" xml:space="preserve" y="65.997" clip-path="url(#clipPath2)" stroke="none">rdf:type</text>
      <path fill="none" d="M-141.4687 -136.072 L-334.6501 -136.072 L-334.6501 283.3486 L445.6481 283.3486 L445.6481 323.629" clip-path="url(#clipPath2)"/>
      <path d="M445.6481 331.629 L450.6481 319.629 L445.6481 322.629 L440.6481 319.629 Z" stroke="none" clip-path="url(#clipPath2)"/>
    </g>
    <g stroke-linecap="butt" transform="matrix(1,0,0,1,350,345)" fill="white" text-rendering="geometricPrecision" shape-rendering="geometricPrecision" stroke="white" stroke-miterlimit="1.45">
      <rect x="-10.7354" width="132.4688" height="22.8438" y="271.9268" clip-path="url(#clipPath2)" stroke="none"/>
    </g>
    <g font-size="16px" stroke-linecap="butt" transform="matrix(1,0,0,1,350,345)" text-rendering="geometricPrecision" font-family="sans-serif" shape-rendering="geometricPrecision" stroke-miterlimit="1.45">
      <text x="-8.7354" xml:space="preserve" y="289.3955" clip-path="url(#clipPath2)" stroke="none">beast:belongsTo</text>
      <path fill="none" d="M-110.8526 49.6259 L-14.724 49.6259 L-14.724 230.7514 L131.4996 230.7514" clip-path="url(#clipPath2)"/>
      <path d="M139.4996 230.7514 L127.4996 225.7514 L130.4996 230.7514 L127.4996 235.7514 Z" stroke="none" clip-path="url(#clipPath2)"/>
      <path fill="none" d="M-130.8526 49.6259 L-263.8889 49.6259 L-263.8889 451.944 L335.2277 451.944" clip-path="url(#clipPath2)"/>
      <path d="M343.2277 451.944 L331.2277 446.944 L334.2277 451.944 L331.2277 456.944 Z" stroke="none" clip-path="url(#clipPath2)"/>
    </g>
    <g stroke-linecap="butt" transform="matrix(1,0,0,1,350,345)" fill="white" text-rendering="geometricPrecision" shape-rendering="geometricPrecision" stroke="white" stroke-miterlimit="1.45">
      <rect x="-31.122" width="132.4688" height="22.8438" y="440.5221" clip-path="url(#clipPath2)" stroke="none"/>
    </g>
    <g font-size="16px" stroke-linecap="butt" transform="matrix(1,0,0,1,350,345)" text-rendering="geometricPrecision" font-family="sans-serif" shape-rendering="geometricPrecision" stroke-miterlimit="1.45">
      <text x="-29.122" xml:space="preserve" y="457.9909" clip-path="url(#clipPath2)" stroke="none">beast:belongsTo</text>
      <path fill="none" d="M-120.8526 240.7514 L-120.8526 545.067 L335.2391 545.067" clip-path="url(#clipPath2)"/>
      <path d="M343.2391 545.067 L331.2391 540.067 L334.2391 545.067 L331.2391 550.067 Z" stroke="none" clip-path="url(#clipPath2)"/>
    </g>
    <g stroke-linecap="butt" transform="matrix(1,0,0,1,350,345)" fill="white" text-rendering="geometricPrecision" shape-rendering="geometricPrecision" stroke="white" stroke-miterlimit="1.45">
      <rect x="68.5524" width="76.1562" height="22.8438" y="533.6452" clip-path="url(#clipPath2)" stroke="none"/>
    </g>
    <g font-size="16px" stroke-linecap="butt" transform="matrix(1,0,0,1,350,345)" text-rendering="geometricPrecision" font-family="sans-serif" shape-rendering="geometricPrecision" stroke-miterlimit="1.45">
      <text x="70.5524" xml:space="preserve" y="551.1139" clip-path="url(#clipPath2)" stroke="none">predicate</text>
      <path fill="none" d="M-110.8526 230.7514 L131.4982 230.7514" clip-path="url(#clipPath2)"/>
      <path d="M139.4982 230.7514 L127.4982 225.7514 L130.4982 230.7514 L127.4982 235.7514 Z" stroke="none" clip-path="url(#clipPath2)"/>
      <path fill="none" d="M-130.8526 156.5147 L-216.6994 156.5147 L-216.6994 355.5717 L-120.8526 355.5717 L-120.8526 545.067 L335.2391 545.067" clip-path="url(#clipPath2)"/>
      <path d="M343.2391 545.067 L331.2391 540.067 L334.2391 545.067 L331.2391 550.067 Z" stroke="none" clip-path="url(#clipPath2)"/>
    </g>
    <g stroke-linecap="butt" transform="matrix(1,0,0,1,350,345)" fill="white" text-rendering="geometricPrecision" shape-rendering="geometricPrecision" stroke="white" stroke-miterlimit="1.45">
      <rect x="40.3961" width="132.4688" height="22.8438" y="533.6452" clip-path="url(#clipPath2)" stroke="none"/>
    </g>
    <g font-size="16px" stroke-linecap="butt" transform="matrix(1,0,0,1,350,345)" text-rendering="geometricPrecision" font-family="sans-serif" shape-rendering="geometricPrecision" stroke-miterlimit="1.45">
      <text x="42.3961" xml:space="preserve" y="551.1139" clip-path="url(#clipPath2)" stroke="none">beast:belongsTo</text>
      <path fill="none" d="M-110.8526 156.5147 L-14.724 156.5147 L-14.724 230.7514 L131.4996 230.7514" clip-path="url(#clipPath2)"/>
      <path d="M139.4996 230.7514 L127.4996 225.7514 L130.4996 230.7514 L127.4996 235.7514 Z" stroke="none" clip-path="url(#clipPath2)"/>
    </g>
    <g stroke-linecap="butt" transform="matrix(1,0,0,1,350,345)" fill="white" text-rendering="geometricPrecision" shape-rendering="geometricPrecision" stroke="white" stroke-miterlimit="1.45">
      <rect x="25.3922" width="64.8906" height="22.8438" y="219.3295" clip-path="url(#clipPath2)" stroke="none"/>
    </g>
    <g font-size="16px" stroke-linecap="butt" transform="matrix(1,0,0,1,350,345)" text-rendering="geometricPrecision" font-family="sans-serif" shape-rendering="geometricPrecision" stroke-miterlimit="1.45">
      <text x="27.3922" xml:space="preserve" y="236.7982" clip-path="url(#clipPath2)" stroke="none">rdf:type</text>
    </g>
  </g>
</svg>
