<?xml version="1.0" encoding="UTF-8"?><svg xmlns="http://www.w3.org/2000/svg" xmlns:xlink="http://www.w3.org/1999/xlink" fill-opacity="1" color-rendering="auto" color-interpolation="auto" text-rendering="auto" stroke="black" stroke-linecap="square" width="1989" stroke-miterlimit="10" shape-rendering="auto" stroke-opacity="1" fill="black" stroke-dasharray="none" font-weight="normal" stroke-width="1" height="1025" font-family="'Dialog'" font-style="normal" stroke-linejoin="miter" font-size="12px" stroke-dashoffset="0" image-rendering="auto">
  <!--Generated by ySVG 2.6-->
  <defs id="genericDefs"/>
  <g>
    <defs id="defs1">
      <clipPath clipPathUnits="userSpaceOnUse" id="clipPath1">
        <path d="M0 0 L1989 0 L1989 1025 L0 1025 L0 0 Z"/>
      </clipPath>
      <clipPath clipPathUnits="userSpaceOnUse" id="clipPath2">
        <path d="M-13 293 L1976 293 L1976 1318 L-13 1318 L-13 293 Z"/>
      </clipPath>
      <clipPath clipPathUnits="userSpaceOnUse" id="clipPath3">
        <path d="M-17 289 L1972 289 L1972 1314 L-17 1314 L-17 289 Z"/>
      </clipPath>
    </defs>
    <g fill="white" text-rendering="geometricPrecision" shape-rendering="geometricPrecision" transform="translate(13,-293)" stroke="white">
      <rect x="-13" width="1989" height="1025" y="293" clip-path="url(#clipPath2)" stroke="none"/>
    </g>
    <g fill="yellow" text-rendering="geometricPrecision" shape-rendering="geometricPrecision" transform="matrix(1,0,0,1,13,-293)" stroke="yellow">
      <rect x="1017.635" y="946.0272" clip-path="url(#clipPath2)" width="132.9682" rx="4" ry="4" height="44" stroke="none"/>
    </g>
    <g font-size="16px" stroke-linecap="butt" transform="matrix(1,0,0,1,13,-293)" text-rendering="geometricPrecision" font-family="sans-serif" shape-rendering="geometricPrecision" stroke-miterlimit="1.45">
      <text x="1031.2012" xml:space="preserve" y="974.3124" clip-path="url(#clipPath2)" stroke="none">beast:Creature</text>
      <rect x="1017.635" y="946.0272" clip-path="url(#clipPath2)" fill="none" width="132.9682" rx="4" ry="4" height="44"/>
    </g>
    <g fill="yellow" text-rendering="geometricPrecision" shape-rendering="geometricPrecision" transform="matrix(1,0,0,1,13,-293)" stroke="yellow">
      <rect x="803.0546" y="579.9249" clip-path="url(#clipPath2)" width="144.9682" rx="4" ry="4" height="44" stroke="none"/>
    </g>
    <g font-size="16px" stroke-linecap="butt" transform="matrix(1,0,0,1,13,-293)" text-rendering="geometricPrecision" font-family="sans-serif" shape-rendering="geometricPrecision" stroke-miterlimit="1.45">
      <text x="812.8395" xml:space="preserve" y="608.21" clip-path="url(#clipPath2)" stroke="none">beast:RealAnimal</text>
      <rect x="803.0546" y="579.9249" clip-path="url(#clipPath2)" fill="none" width="144.9682" rx="4" ry="4" height="44"/>
    </g>
    <g fill="yellow" text-rendering="geometricPrecision" shape-rendering="geometricPrecision" transform="matrix(1,0,0,1,13,-293)" stroke="yellow">
      <rect x="786.5546" y="672.9819" clip-path="url(#clipPath2)" width="177.9682" rx="4" ry="4" height="44" stroke="none"/>
    </g>
    <g font-size="16px" stroke-linecap="butt" transform="matrix(1,0,0,1,13,-293)" text-rendering="geometricPrecision" font-family="sans-serif" shape-rendering="geometricPrecision" stroke-miterlimit="1.45">
      <text x="795.9372" xml:space="preserve" y="701.2671" clip-path="url(#clipPath2)" stroke="none">beast:ImaginaryBeing </text>
      <rect x="786.5546" y="672.9819" clip-path="url(#clipPath2)" fill="none" width="177.9682" rx="4" ry="4" height="44"/>
    </g>
    <g fill="yellow" text-rendering="geometricPrecision" shape-rendering="geometricPrecision" transform="matrix(1,0,0,1,13,-293)" stroke="yellow">
      <rect x="1700.6388" y="998.6449" clip-path="url(#clipPath2)" width="177.9682" rx="4" ry="4" height="44" stroke="none"/>
    </g>
    <g font-size="16px" stroke-linecap="butt" transform="matrix(1,0,0,1,13,-293)" text-rendering="geometricPrecision" font-family="sans-serif" shape-rendering="geometricPrecision" stroke-miterlimit="1.45">
      <text x="1713.5878" xml:space="preserve" y="1026.9301" clip-path="url(#clipPath2)" stroke="none">beast:realWorldPlace</text>
      <rect x="1700.6388" y="998.6449" clip-path="url(#clipPath2)" fill="none" width="177.9682" rx="4" ry="4" height="44"/>
    </g>
    <g fill="yellow" text-rendering="geometricPrecision" shape-rendering="geometricPrecision" transform="matrix(1,0,0,1,13,-293)" stroke="yellow">
      <rect x="383.6862" y="672.9819" clip-path="url(#clipPath2)" width="211.0053" rx="4" ry="4" height="44" stroke="none"/>
    </g>
    <g font-size="16px" stroke-linecap="butt" transform="matrix(1,0,0,1,13,-293)" text-rendering="geometricPrecision" font-family="sans-serif" shape-rendering="geometricPrecision" stroke-miterlimit="1.45">
      <text x="398.0326" xml:space="preserve" y="701.2671" clip-path="url(#clipPath2)" stroke="none">beast:CompositeCreature</text>
      <rect x="383.6862" y="672.9819" clip-path="url(#clipPath2)" fill="none" width="211.0053" rx="4" ry="4" height="44"/>
    </g>
    <g fill="yellow" text-rendering="geometricPrecision" shape-rendering="geometricPrecision" transform="matrix(1,0,0,1,13,-293)" stroke="yellow">
      <rect x="1159.5801" y="1096.8004" clip-path="url(#clipPath2)" width="111.746" rx="4" ry="4" height="44" stroke="none"/>
    </g>
    <g font-size="16px" stroke-linecap="butt" transform="matrix(1,0,0,1,13,-293)" text-rendering="geometricPrecision" font-family="sans-serif" shape-rendering="geometricPrecision" stroke-miterlimit="1.45">
      <text x="1172.3203" xml:space="preserve" y="1125.0856" clip-path="url(#clipPath2)" stroke="none">beast:Ability</text>
      <rect x="1159.5801" y="1096.8004" clip-path="url(#clipPath2)" fill="none" width="111.746" rx="4" ry="4" height="44"/>
    </g>
    <g fill="yellow" text-rendering="geometricPrecision" shape-rendering="geometricPrecision" transform="matrix(1,0,0,1,13,-293)" stroke="yellow">
      <rect x="1378.7143" y="946.0272" clip-path="url(#clipPath2)" width="111.746" rx="4" ry="4" height="44" stroke="none"/>
    </g>
    <g font-size="16px" stroke-linecap="butt" transform="matrix(1,0,0,1,13,-293)" text-rendering="geometricPrecision" font-family="sans-serif" shape-rendering="geometricPrecision" stroke-miterlimit="1.45">
      <text x="1387.4467" xml:space="preserve" y="974.3124" clip-path="url(#clipPath2)" stroke="none">beast:Habitat</text>
      <rect x="1378.7143" y="946.0272" clip-path="url(#clipPath2)" fill="none" width="111.746" rx="4" ry="4" height="44"/>
    </g>
    <g fill="rgb(204,255,204)" text-rendering="geometricPrecision" shape-rendering="geometricPrecision" transform="matrix(1,0,0,1,13,-293)" stroke="rgb(204,255,204)">
      <path d="M1562.2002 687.1694 L1675.6857 687.1694 L1663.0762 730.1694 L1549.5907 730.1694 Z" fill-rule="evenodd" clip-path="url(#clipPath2)" stroke="none"/>
    </g>
    <g font-size="16px" stroke-linecap="butt" transform="matrix(1,0,0,1,13,-293)" text-rendering="geometricPrecision" font-family="sans-serif" shape-rendering="geometricPrecision" stroke-miterlimit="1.45">
      <text x="1575.2905" xml:space="preserve" y="714.9546" clip-path="url(#clipPath2)" stroke="none">rdfs:Literal</text>
      <path fill="none" d="M1562.2002 687.1694 L1675.6857 687.1694 L1663.0762 730.1694 L1549.5907 730.1694 Z" fill-rule="evenodd" clip-path="url(#clipPath2)"/>
    </g>
    <g fill="yellow" text-rendering="geometricPrecision" shape-rendering="geometricPrecision" transform="matrix(1,0,0,1,13,-293)" stroke="yellow">
      <rect x="663.6616" y="1006.4585" clip-path="url(#clipPath2)" width="95.6757" rx="4" ry="4" height="44" stroke="none"/>
    </g>
    <g font-size="16px" stroke-linecap="butt" transform="matrix(1,0,0,1,13,-293)" text-rendering="geometricPrecision" font-family="sans-serif" shape-rendering="geometricPrecision" stroke-miterlimit="1.45">
      <text x="675.4799" xml:space="preserve" y="1034.7437" clip-path="url(#clipPath2)" stroke="none">beast:Diet</text>
      <rect x="663.6616" y="1006.4585" clip-path="url(#clipPath2)" fill="none" width="95.6757" rx="4" ry="4" height="44"/>
    </g>
    <g fill="yellow" text-rendering="geometricPrecision" shape-rendering="geometricPrecision" transform="matrix(1,0,0,1,13,-293)" stroke="yellow">
      <rect x="1700.6388" y="870.6151" clip-path="url(#clipPath2)" width="177.9682" rx="4" ry="4" height="44" stroke="none"/>
    </g>
    <g font-size="16px" stroke-linecap="butt" transform="matrix(1,0,0,1,13,-293)" text-rendering="geometricPrecision" font-family="sans-serif" shape-rendering="geometricPrecision" stroke-miterlimit="1.45">
      <text x="1712.6932" xml:space="preserve" y="898.9002" clip-path="url(#clipPath2)" stroke="none">beast:ImaginaryPlace</text>
      <rect x="1700.6388" y="870.6151" clip-path="url(#clipPath2)" fill="none" width="177.9682" rx="4" ry="4" height="44"/>
    </g>
    <g fill="rgb(255,153,204)" text-rendering="geometricPrecision" shape-rendering="geometricPrecision" transform="matrix(1,0,0,1,13,-293)" stroke="rgb(255,153,204)">
      <circle r="10" clip-path="url(#clipPath2)" cx="1647.5965" cy="1160.0943" stroke="none"/>
    </g>
    <g font-size="16px" stroke-linecap="butt" transform="matrix(1,0,0,1,13,-293)" text-rendering="geometricPrecision" font-family="sans-serif" shape-rendering="geometricPrecision" stroke-miterlimit="1.45">
      <text x="1614.2567" xml:space="preserve" y="1192.1803" clip-path="url(#clipPath2)" stroke="none">terrestrial</text>
      <circle fill="none" stroke-width="3" r="10" clip-path="url(#clipPath2)" cx="1647.5965" cy="1160.0943"/>
    </g>
    <g fill="rgb(255,153,204)" text-rendering="geometricPrecision" shape-rendering="geometricPrecision" transform="matrix(1,0,0,1,13,-293)" stroke="rgb(255,153,204)">
      <circle r="10" clip-path="url(#clipPath2)" cx="1789.6229" cy="1205.3729" stroke="none"/>
    </g>
    <g font-size="16px" stroke-linecap="butt" transform="matrix(1,0,0,1,13,-293)" text-rendering="geometricPrecision" font-family="sans-serif" shape-rendering="geometricPrecision" stroke-miterlimit="1.45">
      <text x="1763.826" xml:space="preserve" y="1237.4589" clip-path="url(#clipPath2)" stroke="none">aquatic</text>
      <circle fill="none" stroke-width="3" r="10" clip-path="url(#clipPath2)" cx="1789.6229" cy="1205.3729"/>
    </g>
    <g fill="rgb(255,153,204)" text-rendering="geometricPrecision" shape-rendering="geometricPrecision" transform="matrix(1,0,0,1,13,-293)" stroke="rgb(255,153,204)">
      <circle r="10" clip-path="url(#clipPath2)" cx="1938.863" cy="1160.0943" stroke="none"/>
    </g>
    <g font-size="16px" stroke-linecap="butt" transform="matrix(1,0,0,1,13,-293)" text-rendering="geometricPrecision" font-family="sans-serif" shape-rendering="geometricPrecision" stroke-miterlimit="1.45">
      <text x="1919.2966" xml:space="preserve" y="1192.1803" clip-path="url(#clipPath2)" stroke="none">aerial</text>
      <circle fill="none" stroke-width="3" r="10" clip-path="url(#clipPath2)" cx="1938.863" cy="1160.0943"/>
    </g>
    <g fill="rgb(255,153,204)" text-rendering="geometricPrecision" shape-rendering="geometricPrecision" transform="matrix(1,0,0,1,13,-293)" stroke="rgb(255,153,204)">
      <circle r="10" clip-path="url(#clipPath2)" cx="990.5915" cy="1075.9976" stroke="none"/>
    </g>
    <g font-size="16px" stroke-linecap="butt" transform="matrix(1,0,0,1,13,-293)" text-rendering="geometricPrecision" font-family="sans-serif" shape-rendering="geometricPrecision" stroke-miterlimit="1.45">
      <text x="953.6814" xml:space="preserve" y="1108.0835" clip-path="url(#clipPath2)" stroke="none">scavenger</text>
      <circle fill="none" stroke-width="3" r="10" clip-path="url(#clipPath2)" cx="990.5915" cy="1075.9976"/>
    </g>
    <g fill="rgb(255,153,204)" text-rendering="geometricPrecision" shape-rendering="geometricPrecision" transform="matrix(1,0,0,1,13,-293)" stroke="rgb(255,153,204)">
      <circle r="10" clip-path="url(#clipPath2)" cx="930.5451" cy="1146.1467" stroke="none"/>
    </g>
    <g font-size="16px" stroke-linecap="butt" transform="matrix(1,0,0,1,13,-293)" text-rendering="geometricPrecision" font-family="sans-serif" shape-rendering="geometricPrecision" stroke-miterlimit="1.45">
      <text x="895.8576" xml:space="preserve" y="1178.2327" clip-path="url(#clipPath2)" stroke="none">elemental</text>
      <circle fill="none" stroke-width="3" r="10" clip-path="url(#clipPath2)" cx="930.5451" cy="1146.1467"/>
    </g>
    <g fill="rgb(255,153,204)" text-rendering="geometricPrecision" shape-rendering="geometricPrecision" transform="matrix(1,0,0,1,13,-293)" stroke="rgb(255,153,204)">
      <circle r="10" clip-path="url(#clipPath2)" cx="843.6985" cy="1227.8244" stroke="none"/>
    </g>
    <g font-size="16px" stroke-linecap="butt" transform="matrix(1,0,0,1,13,-293)" text-rendering="geometricPrecision" font-family="sans-serif" shape-rendering="geometricPrecision" stroke-miterlimit="1.45">
      <text x="798.3274" xml:space="preserve" y="1259.9103" clip-path="url(#clipPath2)" stroke="none">lithophagous</text>
      <circle fill="none" stroke-width="3" r="10" clip-path="url(#clipPath2)" cx="843.6985" cy="1227.8244"/>
    </g>
    <g fill="rgb(255,153,204)" text-rendering="geometricPrecision" shape-rendering="geometricPrecision" transform="matrix(1,0,0,1,13,-293)" stroke="rgb(255,153,204)">
      <circle r="10" clip-path="url(#clipPath2)" cx="583.4359" cy="1227.8244" stroke="none"/>
    </g>
    <g font-size="16px" stroke-linecap="butt" transform="matrix(1,0,0,1,13,-293)" text-rendering="geometricPrecision" font-family="sans-serif" shape-rendering="geometricPrecision" stroke-miterlimit="1.45">
      <text x="526.0569" xml:space="preserve" y="1259.9103" clip-path="url(#clipPath2)" stroke="none">hematophagous</text>
      <circle fill="none" stroke-width="3" r="10" clip-path="url(#clipPath2)" cx="583.4359" cy="1227.8244"/>
    </g>
    <g fill="yellow" text-rendering="geometricPrecision" shape-rendering="geometricPrecision" transform="matrix(1,0,0,1,13,-293)" stroke="yellow">
      <rect x="400.2047" y="399.535" clip-path="url(#clipPath2)" width="177.9682" rx="4" ry="4" height="44" stroke="none"/>
    </g>
    <g font-size="16px" stroke-linecap="butt" transform="matrix(1,0,0,1,13,-293)" text-rendering="geometricPrecision" font-family="sans-serif" shape-rendering="geometricPrecision" stroke-miterlimit="1.45">
      <text x="413.1498" xml:space="preserve" y="427.8202" clip-path="url(#clipPath2)" stroke="none">beast:AnatomicalPart</text>
      <rect x="400.2047" y="399.535" clip-path="url(#clipPath2)" fill="none" width="177.9682" rx="4" ry="4" height="44"/>
    </g>
    <g fill="yellow" text-rendering="geometricPrecision" shape-rendering="geometricPrecision" transform="matrix(1,0,0,1,13,-293)" stroke="yellow">
      <rect x="2.0396" y="603.7655" clip-path="url(#clipPath2)" width="189.7834" rx="4" ry="4" height="44" stroke="none"/>
    </g>
    <g font-size="16px" stroke-linecap="butt" transform="matrix(1,0,0,1,13,-293)" text-rendering="geometricPrecision" font-family="sans-serif" shape-rendering="geometricPrecision" stroke-miterlimit="1.45">
      <text x="10.6579" xml:space="preserve" y="632.0507" clip-path="url(#clipPath2)" stroke="none">beast:InanimateElement</text>
      <rect x="2.0396" y="603.7655" clip-path="url(#clipPath2)" fill="none" width="189.7834" rx="4" ry="4" height="44"/>
    </g>
    <g fill="yellow" text-rendering="geometricPrecision" shape-rendering="geometricPrecision" transform="matrix(1,0,0,1,13,-293)" stroke="yellow">
      <rect x="41.0583" y="751.222" clip-path="url(#clipPath2)" width="111.746" rx="4" ry="4" height="44" stroke="none"/>
    </g>
    <g font-size="16px" stroke-linecap="butt" transform="matrix(1,0,0,1,13,-293)" text-rendering="geometricPrecision" font-family="sans-serif" shape-rendering="geometricPrecision" stroke-miterlimit="1.45">
      <text x="56.904" xml:space="preserve" y="779.5071" clip-path="url(#clipPath2)" stroke="none">beast:Plant</text>
      <rect x="41.0583" y="751.222" clip-path="url(#clipPath2)" fill="none" width="111.746" rx="4" ry="4" height="44"/>
    </g>
    <g fill="yellow" text-rendering="geometricPrecision" shape-rendering="geometricPrecision" transform="matrix(1,0,0,1,13,-293)" stroke="yellow">
      <rect x="565.0453" y="869.4898" clip-path="url(#clipPath2)" width="177.9682" rx="4" ry="4" height="44" stroke="none"/>
    </g>
    <g font-size="16px" stroke-linecap="butt" transform="matrix(1,0,0,1,13,-293)" text-rendering="geometricPrecision" font-family="sans-serif" shape-rendering="geometricPrecision" stroke-miterlimit="1.45">
      <text x="577.9943" xml:space="preserve" y="897.7749" clip-path="url(#clipPath2)" stroke="none">beast:HybridCreature</text>
      <rect x="565.0453" y="869.4898" clip-path="url(#clipPath2)" fill="none" width="177.9682" rx="4" ry="4" height="44"/>
    </g>
    <g fill="rgb(255,153,204)" text-rendering="geometricPrecision" shape-rendering="geometricPrecision" transform="matrix(1,0,0,1,13,-293)" stroke="rgb(255,153,204)">
      <circle r="10" clip-path="url(#clipPath2)" cx="461.1571" cy="1075.9976" stroke="none"/>
    </g>
    <g font-size="16px" stroke-linecap="butt" transform="matrix(1,0,0,1,13,-293)" text-rendering="geometricPrecision" font-family="sans-serif" shape-rendering="geometricPrecision" stroke-miterlimit="1.45">
      <text x="419.8055" xml:space="preserve" y="1108.0835" clip-path="url(#clipPath2)" stroke="none">omnivorous</text>
      <circle fill="none" stroke-width="3" r="10" clip-path="url(#clipPath2)" cx="461.1571" cy="1075.9976"/>
    </g>
    <g fill="rgb(255,153,204)" text-rendering="geometricPrecision" shape-rendering="geometricPrecision" transform="matrix(1,0,0,1,13,-293)" stroke="rgb(255,153,204)">
      <circle r="10" clip-path="url(#clipPath2)" cx="502.9191" cy="1146.1467" stroke="none"/>
    </g>
    <g font-size="16px" stroke-linecap="butt" transform="matrix(1,0,0,1,13,-293)" text-rendering="geometricPrecision" font-family="sans-serif" shape-rendering="geometricPrecision" stroke-miterlimit="1.45">
      <text x="461.5675" xml:space="preserve" y="1178.2327" clip-path="url(#clipPath2)" stroke="none">carnivorous</text>
      <circle fill="none" stroke-width="3" r="10" clip-path="url(#clipPath2)" cx="502.9191" cy="1146.1467"/>
    </g>
    <g fill="rgb(255,153,204)" text-rendering="geometricPrecision" shape-rendering="geometricPrecision" transform="matrix(1,0,0,1,13,-293)" stroke="rgb(255,153,204)">
      <circle r="10" clip-path="url(#clipPath2)" cx="711.4994" cy="1265.1646" stroke="none"/>
    </g>
    <g font-size="16px" stroke-linecap="butt" transform="matrix(1,0,0,1,13,-293)" text-rendering="geometricPrecision" font-family="sans-serif" shape-rendering="geometricPrecision" stroke-miterlimit="1.45">
      <text x="669.6986" xml:space="preserve" y="1297.2505" clip-path="url(#clipPath2)" stroke="none">herbivorous</text>
      <circle fill="none" stroke-width="3" r="10" clip-path="url(#clipPath2)" cx="711.4994" cy="1265.1646"/>
    </g>
    <g stroke-linecap="butt" transform="matrix(1,0,0,1,13,-293)" fill="navy" text-rendering="geometricPrecision" shape-rendering="geometricPrecision" stroke="navy" stroke-miterlimit="1.45">
      <path fill="none" d="M952.0275 601.9249 L1084.1191 601.9249 L1084.1191 945.3362 L1084.1191 946.001" clip-path="url(#clipPath2)"/>
      <path d="M944.0275 601.9249 C944.0275 599.7157 945.8184 597.9249 948.0275 597.9249 C950.2367 597.9249 952.0275 599.7157 952.0275 601.9249 C952.0275 604.134 950.2367 605.9249 948.0275 605.9249 C945.8184 605.9249 944.0275 604.134 944.0275 601.9249 Z" clip-path="url(#clipPath2)" stroke="none"/>
      <path d="M1084.1191 946.001 L1090.1191 934.001 L1078.1191 934.001 Z" clip-path="url(#clipPath2)" stroke="none"/>
      <rect x="1025.2128" y="757.6128" clip-path="url(#clipPath2)" fill="white" width="117.8125" height="23.6016" stroke="none"/>
      <text x="1027.2129" font-size="16px" y="775.6987" clip-path="url(#clipPath2)" font-family="sans-serif" stroke="none" xml:space="preserve">rdfs:subClassOf</text>
      <path fill="none" d="M968.5266 694.9612 L1084.1191 694.9355 L1084.1191 935.0585" clip-path="url(#clipPath2)"/>
      <path d="M960.5266 694.9631 C960.5261 692.7539 962.3165 690.9626 964.5256 690.9622 C966.7348 690.9617 968.5261 692.7521 968.5266 694.9612 C968.527 697.1704 966.7366 698.9617 964.5275 698.9622 C962.3183 698.9626 960.527 697.1722 960.5266 694.9631 Z" clip-path="url(#clipPath2)" stroke="none"/>
      <path d="M1084.1191 946.0585 L1090.1191 934.0585 L1078.1191 934.0585 Z" clip-path="url(#clipPath2)" stroke="none"/>
      <path fill="none" d="M503.0912 669.4543 L539.8679 601.9249 L792.0532 601.9249" clip-path="url(#clipPath2)"/>
      <path d="M499.265 676.4801 C497.3249 675.4235 496.6087 672.9943 497.6653 671.0541 C498.7218 669.1141 501.1511 668.3978 503.0912 669.4543 C505.0313 670.5109 505.7475 672.9402 504.6909 674.8803 C503.6344 676.8204 501.2051 677.5366 499.265 676.4801 Z" clip-path="url(#clipPath2)" stroke="none"/>
      <path d="M803.0532 601.9249 L791.0532 595.9249 L791.0532 607.9249 Z" clip-path="url(#clipPath2)" stroke="none"/>
      <rect x="569.305" y="590.1241" clip-path="url(#clipPath2)" fill="white" width="195.1875" height="23.6016" stroke="none"/>
      <text x="571.3051" font-size="16px" y="608.21" clip-path="url(#clipPath2)" font-family="sans-serif" stroke="none" xml:space="preserve">beast:hasPartDerivedFrom</text>
      <path fill="none" d="M598.7133 694.9819 L775.5125 694.9819" clip-path="url(#clipPath2)"/>
      <path d="M590.7133 694.9819 C590.7133 692.7728 592.5041 690.9819 594.7133 690.9819 C596.9224 690.9819 598.7133 692.7728 598.7133 694.9819 C598.7133 697.1911 596.9224 698.9819 594.7133 698.9819 C592.5041 698.9819 590.7133 697.1911 590.7133 694.9819 Z" clip-path="url(#clipPath2)" stroke="none"/>
      <path d="M786.5125 694.9819 L774.5125 688.9819 L774.5125 700.9819 Z" clip-path="url(#clipPath2)" stroke="none"/>
      <rect x="631.7168" y="683.1811" clip-path="url(#clipPath2)" fill="white" width="117.8125" height="23.6016" stroke="none"/>
      <text x="633.7168" font-size="16px" y="701.2671" clip-path="url(#clipPath2)" font-family="sans-serif" stroke="none" xml:space="preserve">rdfs:subClassOf</text>
      <path fill="none" d="M1105.8885 993.0189 L1189.082 1088.526" clip-path="url(#clipPath2)"/>
      <path d="M1100.6339 986.9865 C1102.2997 985.5355 1104.8264 985.7096 1106.2773 987.3754 C1107.7284 989.0411 1107.5543 991.5678 1105.8885 993.0189 C1104.2228 994.4698 1101.696 994.2958 1100.2451 992.63 C1098.7941 990.9642 1098.9681 988.4376 1100.6339 986.9865 Z" clip-path="url(#clipPath2)" stroke="none"/>
      <path d="M1196.3071 1096.8206 L1192.9496 1083.8311 L1183.901 1091.7129 Z" clip-path="url(#clipPath2)" stroke="none"/>
      <rect x="1091.7548" y="1031.613" clip-path="url(#clipPath2)" fill="white" width="116.0625" height="23.6016" stroke="none"/>
      <text x="1093.7549" font-size="16px" y="1049.699" clip-path="url(#clipPath2)" font-family="sans-serif" stroke="none" xml:space="preserve">beast:hasAbility</text>
      <path fill="none" d="M1154.6448 968.0272 L1367.7485 968.0272" clip-path="url(#clipPath2)"/>
      <path d="M1146.6448 968.0272 C1146.6448 965.8181 1148.4357 964.0272 1150.6448 964.0272 C1152.8539 964.0272 1154.6448 965.8181 1154.6448 968.0272 C1154.6448 970.2364 1152.8539 972.0272 1150.6448 972.0272 C1148.4357 972.0272 1146.6448 970.2364 1146.6448 968.0272 Z" clip-path="url(#clipPath2)" stroke="none"/>
      <path d="M1378.7485 968.0272 L1366.7485 962.0272 L1366.7485 974.0272 Z" clip-path="url(#clipPath2)" stroke="none"/>
      <rect x="1202.6197" y="956.2264" clip-path="url(#clipPath2)" fill="white" width="124.0781" height="23.6016" stroke="none"/>
      <text x="1204.6196" font-size="16px" y="974.3124" clip-path="url(#clipPath2)" font-family="sans-serif" stroke="none" xml:space="preserve">beast:hasHabitat</text>
      <path fill="none" d="M1696.6906 1006.8719 L1501.3632 977.9236" clip-path="url(#clipPath2)"/>
      <path d="M1704.6041 1008.0447 C1704.2803 1010.23 1702.2462 1011.739 1700.0609 1011.4151 C1697.8757 1011.0912 1696.3667 1009.0573 1696.6906 1006.8719 C1697.0144 1004.6866 1699.0485 1003.1777 1701.2338 1003.5015 C1703.4189 1003.8254 1704.928 1005.8594 1704.6041 1008.0447 Z" clip-path="url(#clipPath2)" stroke="none"/>
      <path d="M1490.4821 976.311 L1501.4728 984.0054 L1503.2321 972.1351 Z" clip-path="url(#clipPath2)" stroke="none"/>
      <rect x="1536.6433" y="980.0817" clip-path="url(#clipPath2)" fill="white" width="117.8125" height="23.6016" stroke="none"/>
      <text x="1538.6433" font-size="16px" y="998.1676" clip-path="url(#clipPath2)" font-family="sans-serif" stroke="none" xml:space="preserve">rdfs:subClassOf</text>
      <path fill="none" d="M1096.8676 942.4545 L1168.3744 799.0158 L1213.0562 708.6694 L1540.9104 708.6694" clip-path="url(#clipPath2)" stroke="green"/>
    </g>
    <g stroke-linecap="butt" transform="matrix(1,0,0,1,13,-293)" fill-opacity="0" fill="rgb(0,0,0)" text-rendering="geometricPrecision" shape-rendering="geometricPrecision" stroke="rgb(0,0,0)" stroke-opacity="0" stroke-miterlimit="1.45">
      <path d="M1093.2985 949.6141 C1091.3214 948.6286 1090.5176 946.2269 1091.5032 944.2498 C1092.4888 942.2726 1094.8905 941.4689 1096.8676 942.4545 C1098.8446 943.44 1099.6484 945.8417 1098.6628 947.8188 C1097.6772 949.796 1095.2755 950.5997 1093.2985 949.6141 Z" stroke="none" clip-path="url(#clipPath2)"/>
    </g>
    <g stroke-linecap="butt" transform="matrix(1,0,0,1,13,-293)" fill="green" text-rendering="geometricPrecision" shape-rendering="geometricPrecision" stroke="green" stroke-miterlimit="1.45">
      <path fill="none" d="M1093.2985 949.6141 C1091.3214 948.6286 1090.5176 946.2269 1091.5032 944.2498 C1092.4888 942.2726 1094.8905 941.4689 1096.8676 942.4545 C1098.8446 943.44 1099.6484 945.8417 1098.6628 947.8188 C1097.6772 949.796 1095.2755 950.5997 1093.2985 949.6141 Z" clip-path="url(#clipPath2)"/>
      <path fill="white" d="M1555.9104 708.6694 L1539.9104 702.6694 L1539.9104 714.6694 Z" clip-path="url(#clipPath2)" stroke="none"/>
      <path fill="none" d="M1555.9104 708.6694 L1539.9104 702.6694 L1539.9104 714.6694 Z" clip-path="url(#clipPath2)"/>
      <rect x="1280.9328" y="696.8687" clip-path="url(#clipPath2)" fill="white" width="191.6562" height="23.6016" stroke="none"/>
      <text x="1282.9329" font-size="16px" y="714.9546" clip-path="url(#clipPath2)" font-family="sans-serif" stroke="none" xml:space="preserve">beast:hasAlternativeName</text>
      <path fill="none" d="M1013.6643 968.0272 L711.4994 968.0272 L711.4994 995.4754" clip-path="url(#clipPath2)" stroke="navy"/>
      <path fill="navy" d="M1021.6643 968.0272 C1021.6643 970.2364 1019.8735 972.0272 1017.6643 972.0272 C1015.4551 972.0272 1013.6643 970.2364 1013.6643 968.0272 C1013.6643 965.8181 1015.4551 964.0272 1017.6643 964.0272 C1019.8735 964.0272 1021.6643 965.8181 1021.6643 968.0272 Z" clip-path="url(#clipPath2)" stroke="none"/>
      <path fill="navy" d="M711.4994 1006.4754 L717.4994 994.4754 L705.4994 994.4754 Z" clip-path="url(#clipPath2)" stroke="none"/>
      <rect x="809.0867" y="956.2264" clip-path="url(#clipPath2)" fill="white" width="101.8359" height="23.6016" stroke="none"/>
    </g>
    <g stroke-linecap="butt" font-size="16px" transform="matrix(1,0,0,1,13,-293)" fill="navy" text-rendering="geometricPrecision" font-family="sans-serif" shape-rendering="geometricPrecision" stroke="navy" stroke-miterlimit="1.45">
      <text x="811.0867" xml:space="preserve" y="974.3124" clip-path="url(#clipPath2)" stroke="none">beast:hasDiet</text>
      <path fill="none" d="M1696.8213 912.3268 L1501.1952 953.8792" clip-path="url(#clipPath2)"/>
      <path d="M1704.6467 910.6647 C1705.1057 912.8256 1703.726 914.9495 1701.5651 915.4084 C1699.4042 915.8674 1697.2803 914.4877 1696.8213 912.3268 C1696.3623 910.1658 1697.7421 908.042 1699.903 907.583 C1702.0638 907.124 1704.1877 908.5037 1704.6467 910.6647 Z" stroke="none" clip-path="url(#clipPath2)"/>
      <path d="M1490.4353 956.1647 L1503.42 959.5405 L1500.9268 947.8024 Z" stroke="none" clip-path="url(#clipPath2)"/>
    </g>
    <g stroke-linecap="butt" transform="matrix(1,0,0,1,13,-293)" fill="white" text-rendering="geometricPrecision" shape-rendering="geometricPrecision" stroke="white" stroke-miterlimit="1.45">
      <rect x="1536.6433" width="117.8125" height="23.6016" y="922.0369" clip-path="url(#clipPath2)" stroke="none"/>
    </g>
    <g stroke-linecap="butt" font-size="16px" transform="matrix(1,0,0,1,13,-293)" fill="navy" text-rendering="geometricPrecision" font-family="sans-serif" shape-rendering="geometricPrecision" stroke="navy" stroke-miterlimit="1.45">
      <text x="1538.6433" xml:space="preserve" y="940.1228" clip-path="url(#clipPath2)" stroke="none">rdfs:subClassOf</text>
    </g>
    <g text-rendering="geometricPrecision" stroke-miterlimit="1.45" shape-rendering="geometricPrecision" transform="matrix(1,0,0,1,13,-293)" stroke-linecap="butt">
      <path fill="none" d="M1654.7321 1153.0883 L1761.4875 1048.2697" clip-path="url(#clipPath2)"/>
      <path d="M1767.196 1042.6648 L1755.1304 1047.5043 L1760.774 1048.9702 L1762.1364 1054.6398 Z" clip-path="url(#clipPath2)" stroke="none"/>
      <rect x="1683.6424" y="1084.7423" clip-path="url(#clipPath2)" fill="white" width="57.3594" height="23.6016" stroke="none"/>
      <text x="1685.6425" font-size="16px" y="1102.8282" clip-path="url(#clipPath2)" font-family="sans-serif" stroke="none" xml:space="preserve">rdf:type</text>
      <path fill="none" d="M1789.6229 1195.3729 L1789.6229 1050.6139" clip-path="url(#clipPath2)"/>
      <path d="M1789.6229 1042.6139 L1784.6229 1054.6139 L1789.6229 1051.6139 L1794.6229 1054.6139 Z" clip-path="url(#clipPath2)" stroke="none"/>
      <rect x="1760.9432" y="1107.2081" clip-path="url(#clipPath2)" fill="white" width="57.3594" height="23.6016" stroke="none"/>
      <text x="1762.9432" font-size="16px" y="1125.2941" clip-path="url(#clipPath2)" font-family="sans-serif" stroke="none" xml:space="preserve">rdf:type</text>
      <path fill="none" d="M1931.5564 1153.267 L1818.9967 1048.0917" clip-path="url(#clipPath2)"/>
      <path d="M1813.1514 1042.6299 L1818.5057 1054.476 L1819.7274 1048.7744 L1825.3331 1047.1693 Z" clip-path="url(#clipPath2)" stroke="none"/>
      <rect x="1842.6559" y="1085.1962" clip-path="url(#clipPath2)" fill="white" width="57.3594" height="23.6016" stroke="none"/>
      <text x="1844.6559" font-size="16px" y="1103.2821" clip-path="url(#clipPath2)" font-family="sans-serif" stroke="none" xml:space="preserve">rdf:type</text>
      <path fill="none" d="M980.7335 1074.3185 L767.2051 1037.9471" clip-path="url(#clipPath2)"/>
      <path d="M759.3187 1036.6038 L770.3087 1043.5479 L768.1909 1038.1151 L771.9879 1033.6898 Z" clip-path="url(#clipPath2)" stroke="none"/>
      <rect x="841.2847" y="1043.6498" clip-path="url(#clipPath2)" fill="white" width="57.3594" height="23.6016" stroke="none"/>
      <text x="843.2847" font-size="16px" y="1061.7357" clip-path="url(#clipPath2)" font-family="sans-serif" stroke="none" xml:space="preserve">rdf:type</text>
      <path fill="none" d="M921.7361 1141.4138 L759.4802 1054.2374" clip-path="url(#clipPath2)"/>
      <path d="M752.4329 1050.4512 L760.6373 1060.5352 L760.361 1054.7107 L765.3702 1051.7261 Z" clip-path="url(#clipPath2)" stroke="none"/>
      <rect x="811.2615" y="1085.6665" clip-path="url(#clipPath2)" fill="white" width="57.3594" height="23.6016" stroke="none"/>
      <text x="813.2615" font-size="16px" y="1103.7524" clip-path="url(#clipPath2)" font-family="sans-serif" stroke="none" xml:space="preserve">rdf:type</text>
      <path fill="none" d="M838.1721 1219.4901 L730.5021 1057.116" clip-path="url(#clipPath2)"/>
      <path d="M726.081 1050.4486 L728.5456 1063.2129 L731.0547 1057.9493 L736.8798 1057.6864 Z" clip-path="url(#clipPath2)" stroke="none"/>
      <rect x="752.8978" y="1122.3406" clip-path="url(#clipPath2)" fill="white" width="57.3594" height="23.6016" stroke="none"/>
      <text x="754.8978" font-size="16px" y="1140.4266" clip-path="url(#clipPath2)" font-family="sans-serif" stroke="none" xml:space="preserve">rdf:type</text>
      <path fill="none" d="M588.8405 1219.4106 L693.0562 1057.1704" clip-path="url(#clipPath2)"/>
      <path d="M697.3799 1050.4395 L686.6875 1057.8336 L692.5157 1058.0118 L695.1012 1063.2382 Z" clip-path="url(#clipPath2)" stroke="none"/>
      <rect x="614.9338" y="1122.3406" clip-path="url(#clipPath2)" fill="white" width="57.3594" height="23.6016" stroke="none"/>
      <text x="616.9338" font-size="16px" y="1140.4266" clip-path="url(#clipPath2)" font-family="sans-serif" stroke="none" xml:space="preserve">rdf:type</text>
      <path fill="none" d="M489.1888 668.9847 L489.1888 454.543" clip-path="url(#clipPath2)" stroke="navy"/>
      <path fill="navy" d="M489.1888 676.9847 C486.9797 676.9847 485.1888 675.1938 485.1888 672.9847 C485.1888 670.7755 486.9797 668.9847 489.1888 668.9847 C491.398 668.9847 493.1888 670.7755 493.1888 672.9847 C493.1888 675.1938 491.398 676.9847 489.1888 676.9847 Z" clip-path="url(#clipPath2)" stroke="none"/>
      <path fill="navy" d="M489.1888 443.543 L483.1888 455.543 L495.1888 455.543 Z" clip-path="url(#clipPath2)" stroke="none"/>
      <rect x="437.8255" y="546.4577" clip-path="url(#clipPath2)" fill="white" width="102.7266" height="23.6016" stroke="none"/>
    </g>
    <g stroke-linecap="butt" font-size="16px" transform="matrix(1,0,0,1,13,-293)" fill="navy" text-rendering="geometricPrecision" font-family="sans-serif" shape-rendering="geometricPrecision" stroke="navy" stroke-miterlimit="1.45">
      <text x="439.8256" xml:space="preserve" y="564.5436" clip-path="url(#clipPath2)" stroke="none">beast:hasPart</text>
      <path fill="none" d="M875.5388 575.9487 L875.5388 421.535 L589.1832 421.535" clip-path="url(#clipPath2)"/>
      <path d="M875.5388 583.9487 C873.3296 583.9487 871.5388 582.1578 871.5388 579.9487 C871.5388 577.7395 873.3296 575.9487 875.5388 575.9487 C877.7479 575.9487 879.5388 577.7395 879.5388 579.9487 C879.5388 582.1578 877.7479 583.9487 875.5388 583.9487 Z" stroke="none" clip-path="url(#clipPath2)"/>
      <path d="M578.1832 421.535 L590.1832 427.535 L590.1832 415.535 Z" stroke="none" clip-path="url(#clipPath2)"/>
    </g>
    <g stroke-linecap="butt" transform="matrix(1,0,0,1,13,-293)" fill="white" text-rendering="geometricPrecision" shape-rendering="geometricPrecision" stroke="white" stroke-miterlimit="1.45">
      <rect x="663.6019" width="135.6328" height="23.6016" y="409.7342" clip-path="url(#clipPath2)" stroke="none"/>
    </g>
    <g stroke-linecap="butt" font-size="16px" transform="matrix(1,0,0,1,13,-293)" fill="navy" text-rendering="geometricPrecision" font-family="sans-serif" shape-rendering="geometricPrecision" stroke="navy" stroke-miterlimit="1.45">
      <text x="665.6019" xml:space="preserve" y="427.8202" clip-path="url(#clipPath2)" stroke="none">beast:hasAnomaly</text>
      <path fill="none" d="M470.0662 669.7941 L436.6396 625.7655 L202.8522 625.7655" clip-path="url(#clipPath2)"/>
      <path d="M474.9036 676.166 C473.1441 677.5018 470.6348 677.1583 469.299 675.3987 C467.9632 673.6392 468.3067 671.1299 470.0662 669.7941 C471.8257 668.4583 474.335 668.8018 475.6708 670.5613 C477.0066 672.3209 476.6631 674.8301 474.9036 676.166 Z" stroke="none" clip-path="url(#clipPath2)"/>
      <path d="M191.8522 625.7655 L203.8522 631.7655 L203.8522 619.7655 Z" stroke="none" clip-path="url(#clipPath2)"/>
    </g>
    <g stroke-linecap="butt" transform="matrix(1,0,0,1,13,-293)" fill="white" text-rendering="geometricPrecision" shape-rendering="geometricPrecision" stroke="white" stroke-miterlimit="1.45">
      <rect x="221.2" width="195.1875" height="23.6016" y="613.9647" clip-path="url(#clipPath2)" stroke="none"/>
    </g>
    <g stroke-linecap="butt" font-size="16px" transform="matrix(1,0,0,1,13,-293)" fill="navy" text-rendering="geometricPrecision" font-family="sans-serif" shape-rendering="geometricPrecision" stroke="navy" stroke-miterlimit="1.45">
      <text x="223.2" xml:space="preserve" y="632.0507" clip-path="url(#clipPath2)" stroke="none">beast:hasPartDerivedFrom</text>
      <path fill="none" d="M473.1839 720.331 L439.7896 773.222 L163.8048 773.222" clip-path="url(#clipPath2)"/>
      <path d="M477.4549 713.5665 C479.3229 714.7458 479.8811 717.2162 478.7017 719.0842 C477.5223 720.9522 475.0519 721.5104 473.1839 720.331 C471.316 719.1516 470.7578 716.6812 471.9372 714.8132 C473.1166 712.9453 475.5869 712.3871 477.4549 713.5665 Z" stroke="none" clip-path="url(#clipPath2)"/>
      <path d="M152.8048 773.222 L164.8048 779.222 L164.8048 767.222 Z" stroke="none" clip-path="url(#clipPath2)"/>
    </g>
    <g stroke-linecap="butt" transform="matrix(1,0,0,1,13,-293)" fill="white" text-rendering="geometricPrecision" shape-rendering="geometricPrecision" stroke="white" stroke-miterlimit="1.45">
      <rect x="203.2657" width="195.1875" height="23.6016" y="761.4212" clip-path="url(#clipPath2)" stroke="none"/>
    </g>
    <g stroke-linecap="butt" font-size="16px" transform="matrix(1,0,0,1,13,-293)" fill="navy" text-rendering="geometricPrecision" font-family="sans-serif" shape-rendering="geometricPrecision" stroke="navy" stroke-miterlimit="1.45">
      <text x="205.2657" xml:space="preserve" y="779.5071" clip-path="url(#clipPath2)" stroke="none">beast:hasPartDerivedFrom</text>
      <path fill="none" d="M633.0067 866.4284 L514.7177 725.415" clip-path="url(#clipPath2)"/>
      <path d="M638.1482 872.5574 C636.4557 873.9772 633.9327 873.7562 632.5129 872.0637 C631.0931 870.3712 631.3142 867.8481 633.0067 866.4284 C634.6992 865.0086 637.2222 865.2297 638.642 866.9222 C640.0618 868.6147 639.8407 871.1377 638.1482 872.5574 Z" stroke="none" clip-path="url(#clipPath2)"/>
      <path d="M507.6482 716.9875 L510.7635 730.0372 L519.9572 722.3251 Z" stroke="none" clip-path="url(#clipPath2)"/>
    </g>
    <g stroke-linecap="butt" transform="matrix(1,0,0,1,13,-293)" fill="white" text-rendering="geometricPrecision" shape-rendering="geometricPrecision" stroke="white" stroke-miterlimit="1.45">
      <rect x="512.7029" width="117.8125" height="23.6016" y="781.4351" clip-path="url(#clipPath2)" stroke="none"/>
    </g>
    <g stroke-linecap="butt" font-size="16px" transform="matrix(1,0,0,1,13,-293)" fill="navy" text-rendering="geometricPrecision" font-family="sans-serif" shape-rendering="geometricPrecision" stroke="navy" stroke-miterlimit="1.45">
      <text x="514.7029" xml:space="preserve" y="799.521" clip-path="url(#clipPath2)" stroke="none">rdfs:subClassOf</text>
    </g>
    <g text-rendering="geometricPrecision" stroke-miterlimit="1.45" shape-rendering="geometricPrecision" transform="matrix(1,0,0,1,13,-293)" stroke-linecap="butt">
      <path fill="none" d="M470.9815 1074.132 L655.8123 1039.0333" clip-path="url(#clipPath2)"/>
      <path d="M663.6718 1037.5408 L650.9496 1034.8674 L654.8298 1039.2198 L652.8154 1044.6918 Z" clip-path="url(#clipPath2)" stroke="none"/>
      <rect x="538.7296" y="1044.0199" clip-path="url(#clipPath2)" fill="white" width="57.3594" height="23.6016" stroke="none"/>
      <text x="540.7296" font-size="16px" y="1062.1058" clip-path="url(#clipPath2)" font-family="sans-serif" stroke="none" xml:space="preserve">rdf:type</text>
      <path fill="none" d="M511.6284 1141.2327 L665.519 1054.4022" clip-path="url(#clipPath2)"/>
      <path d="M672.4865 1050.4709 L659.5783 1052.0132 L664.6481 1054.8936 L664.4924 1060.7225 Z" clip-path="url(#clipPath2)" stroke="none"/>
      <rect x="560.5104" y="1085.6688" clip-path="url(#clipPath2)" fill="white" width="57.3594" height="23.6016" stroke="none"/>
      <text x="562.5104" font-size="16px" y="1103.7548" clip-path="url(#clipPath2)" font-family="sans-serif" stroke="none" xml:space="preserve">rdf:type</text>
      <path fill="none" d="M711.4994 1255.1646 L711.4994 1058.4594" clip-path="url(#clipPath2)"/>
      <path d="M711.4994 1050.4594 L706.4994 1062.4594 L711.4994 1059.4594 L716.4994 1062.4594 Z" clip-path="url(#clipPath2)" stroke="none"/>
      <rect x="682.8197" y="1141.0108" clip-path="url(#clipPath2)" fill="white" width="57.3594" height="23.6016" stroke="none"/>
      <text x="684.8197" font-size="16px" y="1159.0967" clip-path="url(#clipPath2)" font-family="sans-serif" stroke="none" xml:space="preserve">rdf:type</text>
    </g>
    <g fill="rgb(210,210,210)" text-rendering="geometricPrecision" shape-rendering="geometricPrecision" transform="matrix(1,0,0,1,13,-293) translate(4,4)" stroke="rgb(210,210,210)">
      <rect x="1536.2072" width="342.3997" height="101.9136" y="308.236" clip-path="url(#clipPath3)" stroke="none"/>
    </g>
    <g fill="white" text-rendering="geometricPrecision" shape-rendering="geometricPrecision" transform="matrix(1,0,0,1,13,-293)" stroke="white">
      <rect x="1536.2072" width="342.3997" height="101.9136" y="308.236" clip-path="url(#clipPath2)" stroke="none"/>
      <rect x="1536.2072" y="308.236" clip-path="url(#clipPath2)" fill="rgb(183,182,158)" width="342.3997" height="22.3765" stroke="none"/>
    </g>
    <g font-size="15px" stroke-linecap="butt" transform="matrix(1,0,0,1,13,-293)" text-rendering="geometricPrecision" font-family="sans-serif" shape-rendering="geometricPrecision" font-weight="bold" stroke-miterlimit="1.45">
      <text x="1805.7305" xml:space="preserve" y="325.3165" clip-path="url(#clipPath2)" stroke="none">Prefixes   </text>
      <text x="1544.9091" font-size="12px" y="355.8953" clip-path="url(#clipPath2)" stroke="none" font-weight="normal" xml:space="preserve">@prefix beast: &lt;https://w3id.org/beast/ontology#&gt; .</text>
      <text x="1544.9091" font-size="12px" y="370.5965" clip-path="url(#clipPath2)" stroke="none" font-weight="normal" xml:space="preserve">@prefix rdfs: &lt;http://www.w3.org/2000/01/rdf-schema#&gt; .</text>
      <text x="1544.9091" font-size="12px" y="385.2976" clip-path="url(#clipPath2)" stroke="none" font-weight="normal" xml:space="preserve">@prefix rdf: &lt;http://www.w3.org/1999/02/22-rdf-syntax-ns#&gt; .</text>
      <rect fill="none" x="1536.2072" width="342.3997" height="101.9136" y="308.236" clip-path="url(#clipPath2)"/>
    </g>
  </g>
</svg>
