<svg height="1500" style="color-interpolation:auto;stroke:#000;stroke-linecap:square;stroke-miterlimit:10;font-family:'Dialog';font-size:12" width="1859" xmlns="http://www.w3.org/2000/svg" xmlns:xlink="http://www.w3.org/1999/xlink"><clipPath id="a"><path color-interpolation="auto" d="m-73-411h1859v1500h-1859z"/></clipPath><g shape-rendering="geometricPrecision" text-rendering="geometricPrecision" transform="translate(73 411)"><path clip-path="url(#a)" d="m-73-411h1859v1500h-1859z" fill="#fff" stroke="none"/><rect clip-path="url(#a)" fill="#ff0" height="44" rx="4" stroke="none" width="164.9682" x="806.052" y="204.9412"/><g font-family="sans-serif" font-size="16" stroke-linecap="butt" stroke-miterlimit="1.45"><text clip-path="url(#a)" stroke="none" x="811.6728" y="232.988">beast:Interpretation</text><rect clip-path="url(#a)" fill="none" height="44" rx="4" width="164.9682" x="806.052" y="204.9412"/></g><rect clip-path="url(#a)" fill="#ff0" height="44" rx="4" stroke="none" width="126.095" x="1005.2352" y="344.5176"/><g font-family="sans-serif" font-size="16" stroke-linecap="butt" stroke-miterlimit="1.45"><text clip-path="url(#a)" stroke="none" x="1011.3999" y="372.5644">beast:Creature</text><rect clip-path="url(#a)" fill="none" height="44" rx="4" width="126.095" x="1005.2352" y="344.5176"/></g><rect clip-path="url(#a)" fill="#ff0" height="44" rx="4" stroke="none" width="164.9682" x="1463.3193" y="163.9019"/><g font-family="sans-serif" font-size="16" stroke-linecap="butt" stroke-miterlimit="1.45"><text clip-path="url(#a)" stroke="none" x="1483.3152" y="191.9487">beast:Archetype</text><rect clip-path="url(#a)" fill="none" height="44" rx="4" width="164.9682" x="1463.3193" y="163.9019"/></g><rect clip-path="url(#a)" fill="#ff0" height="44" rx="4" stroke="none" width="204.819" x="551.4803" y="527.737"/><g font-family="sans-serif" font-size="16" stroke-linecap="butt" stroke-miterlimit="1.45"><text clip-path="url(#a)" stroke="none" x="556.7258" y="555.7839">beast:ImaginaryStructure</text><rect clip-path="url(#a)" fill="none" height="44" rx="4" width="204.819" x="551.4803" y="527.737"/></g><rect clip-path="url(#a)" fill="#ff0" height="44" rx="4" stroke="none" width="126.095" x="1005.2352" y="523.4969"/><g font-family="sans-serif" font-size="16" stroke-linecap="butt" stroke-miterlimit="1.45"><text clip-path="url(#a)" stroke="none" x="1016.0288" y="551.5438">beast:Regime</text><rect clip-path="url(#a)" fill="none" height="44" rx="4" width="126.095" x="1005.2352" y="523.4969"/></g><rect clip-path="url(#a)" fill="#ff0" height="44" rx="4" stroke="none" width="204.819" x="742.108" y="737.6019"/><g font-family="sans-serif" font-size="16" stroke-linecap="butt" stroke-miterlimit="1.45"><text clip-path="url(#a)" stroke="none" x="754.4159" y="765.6487">beast:NocturnalRegime</text><rect clip-path="url(#a)" fill="none" height="44" rx="4" width="204.819" x="742.108" y="737.6019"/></g><rect clip-path="url(#a)" fill="#ff0" height="44" rx="4" stroke="none" width="164.9682" x="1202.3265" y="748.9296"/><g font-family="sans-serif" font-size="16" stroke-linecap="butt" stroke-miterlimit="1.45"><text clip-path="url(#a)" stroke="none" x="1204.3184" y="776.9765">beast:DiurnalRegime</text><rect clip-path="url(#a)" fill="none" height="44" rx="4" width="164.9682" x="1202.3265" y="748.9296"/></g><rect clip-path="url(#a)" fill="#ff0" height="44" rx="4" stroke="none" width="246.6914" x="139.405" y="650.6102"/><g font-family="sans-serif" font-size="16" stroke-linecap="butt" stroke-miterlimit="1.45"><text clip-path="url(#a)" stroke="none" x="146.6648" y="678.657">beast:SchizomorphicStructure</text><rect clip-path="url(#a)" fill="none" height="44" rx="4" width="246.6914" x="139.405" y="650.6102"/></g><rect clip-path="url(#a)" fill="#ff0" height="44" rx="4" stroke="none" width="204.819" x="139.405" y="748.9296"/><g font-family="sans-serif" font-size="16" stroke-linecap="butt" stroke-miterlimit="1.45"><text clip-path="url(#a)" stroke="none" x="147.709" y="776.9765">beast:SyntheticStructure</text><rect clip-path="url(#a)" fill="none" height="44" rx="4" width="204.819" x="139.405" y="748.9296"/></g><rect clip-path="url(#a)" fill="#ff0" height="44" rx="4" stroke="none" width="185.5017" x="139.405" y="842.0527"/><g font-family="sans-serif" font-size="16" stroke-linecap="butt" stroke-miterlimit="1.45"><text clip-path="url(#a)" stroke="none" x="142.0387" y="870.0995">beast:MysticalStructure</text><rect clip-path="url(#a)" fill="none" height="44" rx="4" width="185.5017" x="139.405" y="842.0527"/></g><rect clip-path="url(#a)" fill="#ff0" height="44" rx="4" stroke="none" width="185.5017" x="180.7728" y="527.737"/><g font-family="sans-serif" font-size="16" stroke-linecap="butt" stroke-miterlimit="1.45"><text clip-path="url(#a)" stroke="none" x="183.4651" y="555.7839">beast:ImaginarySymbol</text><rect clip-path="url(#a)" fill="none" height="44" rx="4" width="185.5017" x="180.7728" y="527.737"/></g><circle clip-path="url(#a)" cx="89.2827" cy="349.087" fill="#f9c" r="10" stroke="none"/><g font-family="sans-serif" font-size="16" stroke-linecap="butt" stroke-miterlimit="1.45"><text clip-path="url(#a)" stroke="none" x="105.2827" y="355.1339">beast:Nyctomorphic</text><circle clip-path="url(#a)" cx="89.2827" cy="349.087" fill="none" r="10" stroke-width="3"/></g><circle clip-path="url(#a)" cx="89.2827" cy="379.087" fill="#f9c" r="10" stroke="none"/><g font-family="sans-serif" font-size="16" stroke-linecap="butt" stroke-miterlimit="1.45"><text clip-path="url(#a)" stroke="none" x="105.2827" y="385.1339">beast:Teriomophic</text><circle clip-path="url(#a)" cx="89.2827" cy="379.087" fill="none" r="10" stroke-width="3"/></g><circle clip-path="url(#a)" cx="89.2827" cy="409.087" fill="#f9c" r="10" stroke="none"/><g font-family="sans-serif" font-size="16" stroke-linecap="butt" stroke-miterlimit="1.45"><text clip-path="url(#a)" stroke="none" x="105.2827" y="415.1339">beast:Catamorphic</text><circle clip-path="url(#a)" cx="89.2827" cy="409.087" fill="none" r="10" stroke-width="3"/></g><circle clip-path="url(#a)" cx="89.2827" cy="226.9412" fill="#f9c" r="10" stroke="none"/><g font-family="sans-serif" font-size="16" stroke-linecap="butt" stroke-miterlimit="1.45"><text clip-path="url(#a)" stroke="none" x="105.2827" y="232.988">beast:Ascensional</text><circle clip-path="url(#a)" cx="89.2827" cy="226.9412" fill="none" r="10" stroke-width="3"/></g><circle clip-path="url(#a)" cx="89.2827" cy="293.8762" fill="#f9c" r="10" stroke="none"/><g font-family="sans-serif" font-size="16" stroke-linecap="butt" stroke-miterlimit="1.45"><text clip-path="url(#a)" stroke="none" x="105.2827" y="299.9231">beast:Spectacular</text><circle clip-path="url(#a)" cx="89.2827" cy="293.8762" fill="none" r="10" stroke-width="3"/></g><circle clip-path="url(#a)" cx="89.2827" cy="260.4087" fill="#f9c" r="10" stroke="none"/><g font-family="sans-serif" font-size="16" stroke-linecap="butt" stroke-miterlimit="1.45"><text clip-path="url(#a)" stroke="none" x="105.2827" y="266.4556">beast:Diaretic</text><circle clip-path="url(#a)" cx="89.2827" cy="260.4087" fill="none" r="10" stroke-width="3"/></g><circle clip-path="url(#a)" cx="89.2827" cy="109.28" fill="#f9c" r="10" stroke="none"/><g font-family="sans-serif" font-size="16" stroke-linecap="butt" stroke-miterlimit="1.45"><text clip-path="url(#a)" stroke="none" x="105.2827" y="115.3268">beast:Cyclical</text><circle clip-path="url(#a)" cx="89.2827" cy="109.28" fill="none" r="10" stroke-width="3"/></g><circle clip-path="url(#a)" cx="89.2827" cy="143.1106" fill="#f9c" r="10" stroke="none"/><g font-family="sans-serif" font-size="16" stroke-linecap="butt" stroke-miterlimit="1.45"><text clip-path="url(#a)" stroke="none" x="105.2827" y="149.1574">beast:Inversion</text><circle clip-path="url(#a)" cx="89.2827" cy="143.1106" fill="none" r="10" stroke-width="3"/></g><circle clip-path="url(#a)" cx="89.2827" cy="176.9412" fill="#f9c" r="10" stroke="none"/><g font-family="sans-serif" font-size="16" stroke-linecap="butt" stroke-miterlimit="1.45"><text clip-path="url(#a)" stroke="none" x="105.2827" y="182.988">beast:Intimacy</text><circle clip-path="url(#a)" cx="89.2827" cy="176.9412" fill="none" r="10" stroke-width="3"/></g><path clip-path="url(#a)" d="m1556.5054-39.2721h113.4854l-12.6095 43h-113.4854z" fill="#cfc" fill-rule="evenodd" stroke="none"/><g font-family="sans-serif" font-size="16" stroke-linecap="butt" stroke-miterlimit="1.45"><text clip-path="url(#a)" stroke="none" x="1565.0527" y="-11.7252">rdfs:Literal</text><path clip-path="url(#a)" d="m1556.5054-39.2721h113.4854l-12.6095 43h-113.4854z" fill="none"/></g><rect clip-path="url(#a)" fill="#ff0" height="52.6626" rx="4" stroke="none" width="231.5851" x="977.8375" y="-195.1847"/><g font-family="sans-serif" font-size="16" stroke-linecap="butt" stroke-miterlimit="1.45"><text clip-path="url(#a)" stroke="none" x="1011.5949" y="-162.8065">beast:AnatomicalPart</text><rect clip-path="url(#a)" fill="none" height="52.6626" rx="4" width="231.5851" x="977.8375" y="-195.1847"/></g><rect clip-path="url(#a)" fill="#ff0" height="52.6626" rx="4" stroke="none" width="148.5963" x="1217.953" y="-122.1847"/><g font-family="sans-serif" font-size="16" stroke-linecap="butt" stroke-miterlimit="1.45"><text clip-path="url(#a)" stroke="none" x="1244.0753" y="-89.8065">beast:Ability</text><rect clip-path="url(#a)" fill="none" height="52.6626" rx="4" width="148.5963" x="1217.953" y="-122.1847"/></g><rect clip-path="url(#a)" fill="#ff0" height="44" rx="4" stroke="none" width="204.819" x="1239.3667" y="281.2038"/><g font-family="sans-serif" font-size="16" stroke-linecap="butt" stroke-miterlimit="1.45"><text clip-path="url(#a)" stroke="none" x="1249.5692" y="309.2506">beast:NarrativeFunction</text><rect clip-path="url(#a)" fill="none" height="44" rx="4" width="204.819" x="1239.3667" y="281.2038"/></g><path clip-path="url(#a)" d="m1656.5875 375.6783h113.4855l-12.6095 43h-113.4855z" fill="#cfc" fill-rule="evenodd" stroke="none"/><g font-family="sans-serif" font-size="16" stroke-linecap="butt" stroke-miterlimit="1.45"><text clip-path="url(#a)" stroke="none" x="1665.1349" y="403.2251">rdfs:Literal</text><path clip-path="url(#a)" d="m1656.5875 375.6783h113.4855l-12.6095 43h-113.4855z" fill="none"/></g><rect clip-path="url(#a)" fill="#ff0" height="43.5" rx="4" stroke="none" width="126.095" x="1149.5442" y="-39.5221"/><g font-family="sans-serif" font-size="16" stroke-linecap="butt" stroke-miterlimit="1.45"><text clip-path="url(#a)" stroke="none" x="1161.0331" y="-11.7252">beast:Habitat</text><rect clip-path="url(#a)" fill="none" height="43.5" rx="4" width="126.095" x="1149.5442" y="-39.5221"/></g><rect clip-path="url(#a)" fill="#ff0" height="43.5" rx="4" stroke="none" width="126.095" x="1149.5442" y="33.9779"/><g stroke-linecap="butt" stroke-miterlimit="1.45"><g font-family="sans-serif" font-size="16"><text clip-path="url(#a)" stroke="none" x="1173.326" y="61.7748">beast:Diet</text><rect clip-path="url(#a)" fill="none" height="43.5" rx="4" width="126.095" x="1149.5442" y="33.9779"/></g><g fill="#000080" stroke="#000080"><path clip-path="url(#a)" d="m920.0222 251.3907 111.218 86.3627" fill="none"/><g stroke="none"><path clip-path="url(#a)" d="m913.7036 246.4841c1.3549-1.7449 3.8677-2.061 5.6126-.7061 1.7448 1.355 2.0609 3.8678.706 5.6127-1.355 1.7448-3.8678 2.0609-5.6127.706-1.7448-1.3549-2.0609-3.8678-.7059-5.6126z"/><path clip-path="url(#a)" d="m1039.9285 344.5-5.7981-12.0989-7.3599 9.4781z"/><path clip-path="url(#a)" d="m911.6711 285.3075h133.4766v22.8438h-133.4766z" fill="#fff"/><text clip-path="url(#a)" font-family="sans-serif" font-size="16" x="913.6711" y="302.7762">beast:ofCreature</text></g><path clip-path="url(#a)" d="m926.4926 202.7719 33.6562-21.4309h492.1692" fill="none"/><path clip-path="url(#a)" d="m919.7446 207.0688c-1.1866-1.8634-.6379-4.3359 1.2256-5.5225 1.8634-1.1865 4.3359-.6378 5.5224 1.2256 1.1866 1.8634.6379 4.3359-1.2256 5.5225-1.8634 1.1866-4.3359.6379-5.5224-1.2256z" stroke="none"/><path clip-path="url(#a)" d="m1463.318 181.341-12-6v12z" stroke="none"/><path clip-path="url(#a)" d="m1104.9254 169.9191h204.4922v22.8438h-204.4922z" fill="#fff" stroke="none"/><text clip-path="url(#a)" font-family="sans-serif" font-size="16" stroke="none" x="1106.9254" y="187.3878">beast:embodiesArchetype</text><path clip-path="url(#a)" d="m1548.9132 211.7953 1.2127 4.9354 3.3781 9.5468 4.2613 9.0946 5.0927 8.5896 5.8727 8.0321 6.6013 7.422 7.2784 6.7593 7.9039 6.0441 8.4781 5.2762 9.0009 4.4558 9.4719 3.5827 9.8919 2.6572 10.26 1.6789 10.5769.6482 10.5883-.4206 10.2939-1.458 9.9465-2.4438 9.5469-3.3782 9.0946-4.2612 8.5896-5.0927 8.0321-5.8728 7.422-6.6012 6.7594-7.2784 6.0441-7.9039 5.2761-8.4782 4.4558-9.0008 3.5827-9.472 2.6572-9.8918 1.6789-10.26.6482-10.5769-.4205-10.5884-1.458-10.2938-2.4439-9.9466-3.3782-9.5469-4.2612-9.0945-5.0928-8.5896-5.8726-8.0321-6.6014-7.4221-7.2783-6.7593-7.9039-6.0441-8.4782-5.2762-9.0008-4.4557-9.4719-3.5828-9.8919-2.6571-10.26-1.679-10.5769-.6481-10.5884.4205-10.2938 1.458-9.9465 2.4438-9.5469 3.3783-9.0946 4.2612-8.5896 5.0927-8.0321 5.8727-7.422 6.6013-6.7594 7.2783-6.0441 7.904-5.2761 8.4781-4.4558 9.0008-2.8731 7.5959-.026.0965" fill="none"/><path clip-path="url(#a)" d="m1547.0045 204.0263c2.1454-.5271 4.3118.7848 4.8389 2.9301.527 2.1454-.7848 4.3118-2.9302 4.8389-2.1454.527-4.3118-.7848-4.8389-2.9302-.5269-2.1453.7848-4.3117 2.9302-4.8388z" stroke="none"/><path clip-path="url(#a)" d="m1548.4247 163.9632 9.089-9.8687-11.5305-3.3237z" stroke="none"/><path clip-path="url(#a)" d="m1632.6817 176.0854h124.8594v22.8438h-124.8594z" fill="#fff" stroke="none"/><text clip-path="url(#a)" font-family="sans-serif" font-size="16" stroke="none" x="1634.6816" y="193.5542">beast:relatedTo</text><path clip-path="url(#a)" d="m1014.8739 390.1317-301.2036 133.174" fill="none"/><path clip-path="url(#a)" d="m1022.1907 386.8967c.8933 2.0205-.0205 4.3826-2.0409 5.2759-2.0205.8933-4.3826-.0204-5.2759-2.0409s.0204-4.3826 2.0409-5.2759c2.0204-.8933 4.3826.0204 5.2759 2.0409z" stroke="none"/><path clip-path="url(#a)" d="m703.6097 527.7538 13.4014.6351-4.8525-10.9751z" stroke="none"/><path clip-path="url(#a)" d="m721.1996 446.7054h279.7734v22.8438h-279.7734z" fill="#fff" stroke="none"/><text clip-path="url(#a)" font-family="sans-serif" font-size="16" stroke="none" x="723.1996" y="464.1742">beast:belongsToImaginaryStructure</text><path clip-path="url(#a)" d="m888.5361 200.9205v-54.946h-234.6463v370.731" fill="none"/><path clip-path="url(#a)" d="m888.5361 208.9205c-2.2092 0-4-1.7909-4-4 0-2.2092 1.7908-4 4-4 2.2091 0 4 1.7908 4 4 0 2.2091-1.7909 4-4 4z" stroke="none"/><path clip-path="url(#a)" d="m653.8898 527.7055 6-12h-12z" stroke="none"/><path clip-path="url(#a)" d="m760.2991 548.6482 233.9553-2.3938" fill="none"/><path clip-path="url(#a)" d="m752.2994 548.7301c-.0225-2.209 1.7499-4.0181 3.9589-4.0408 2.209-.0226 4.0181 1.7498 4.0408 3.9589.0226 2.209-1.7498 4.0181-3.9589 4.0408-2.209.0225-4.0181-1.7499-4.0408-3.9589z" stroke="none"/><path clip-path="url(#a)" d="m1005.2538 546.1418-12.0607-5.8768.1228 11.9993z" stroke="none"/><path clip-path="url(#a)" d="m803.0603 535.9937h155.4141v22.8438h-155.4141z" fill="#fff" stroke="none"/><text clip-path="url(#a)" font-family="sans-serif" font-size="16" stroke="none" x="805.0602" y="553.4625">beast:isGovernedBy</text><path clip-path="url(#a)" d="m870.3796 734.8563 166.9395-159.7326" fill="none"/><path clip-path="url(#a)" d="m864.5993 740.387c-1.5272-1.5962-1.4714-4.1282.1248-5.6555 1.5962-1.5272 4.1282-1.4714 5.6555.1248 1.5272 1.5962 1.4714 4.1282-.1248 5.6555-1.5962 1.5272-4.1282 1.4714-5.6555-.1248z" stroke="none"/><path clip-path="url(#a)" d="m1045.267 567.519-12.8185 3.9609 8.296 8.6704z" stroke="none"/><path clip-path="url(#a)" d="m892.8845 641.1275h127.0312v22.8438h-127.0312z" fill="#fff" stroke="none"/><text clip-path="url(#a)" font-family="sans-serif" font-size="16" stroke="none" x="894.8845" y="658.5963">rdfs:subClassOf</text><path clip-path="url(#a)" d="m1260.9208 746.0574-163.9077-170.6485" fill="none"/><path clip-path="url(#a)" d="m1266.4625 751.8271c-1.5932 1.5303-4.1253 1.4793-5.6557-.114-1.5303-1.5932-1.4793-4.1253.114-5.6557 1.5932-1.5303 4.1253-1.4793 5.6557.114 1.5303 1.5932 1.4793 4.1254-.114 5.6557z" stroke="none"/><path clip-path="url(#a)" d="m1089.3932 567.4756 3.9853 12.8108 8.6546-8.3126z" stroke="none"/><path clip-path="url(#a)" d="m1113.031 646.7914h127.0312v22.8438h-127.0312z" fill="#fff" stroke="none"/><text clip-path="url(#a)" font-family="sans-serif" font-size="16" stroke="none" x="1115.031" y="664.2601">rdfs:subClassOf</text><path clip-path="url(#a)" d="m390.0973 672.6102h206.027l-.8015-89.8538" fill="none"/><path clip-path="url(#a)" d="m382.0973 672.6102c0-2.2092 1.7909-4 4-4s4 1.7908 4 4c0 2.2091-1.7909 4-4 4s-4-1.7909-4-4z" stroke="none"/><path clip-path="url(#a)" d="m595.2247 571.7568-5.8927 12.0531 11.9995-.107z" stroke="none"/><path clip-path="url(#a)" d="m135.4028 672.6102h-181.3799v389.0294h1330.7876v-257.7435" fill="none"/><path clip-path="url(#a)" d="m143.4028 672.6102c0 2.2091-1.7908 4-4 4-2.2091 0-4-1.7909-4-4 0-2.2092 1.7909-4 4-4 2.2092 0 4 1.7908 4 4z" stroke="none"/><path clip-path="url(#a)" d="m1284.8105 792.8961-6 12h12z" stroke="none"/><path clip-path="url(#a)" d="m541.7097 1050.2178h155.4141v22.8438h-155.4141z" fill="#fff" stroke="none"/><text clip-path="url(#a)" font-family="sans-serif" font-size="16" stroke="none" x="543.7097" y="1067.6865">beast:isGovernedBy</text><path clip-path="url(#a)" d="m348.2472 770.9296h247.4806l.7774-188.1657" fill="none"/><path clip-path="url(#a)" d="m340.2472 770.9296c0-2.2091 1.7909-4 4-4s4 1.7909 4 4c0 2.2092-1.7909 4-4 4s-4-1.7908-4-4z" stroke="none"/><path clip-path="url(#a)" d="m596.5507 571.764-6.0496 11.9751 11.9999.0497z" stroke="none"/><path clip-path="url(#a)" d="m135.381 770.9296h-125.0521v236.4208h834.1886v-214.762" fill="none"/><path clip-path="url(#a)" d="m143.381 770.9296c0 2.2092-1.7909 4-4 4s-4-1.7908-4-4c0-2.2091 1.7909-4 4-4s4 1.7909 4 4z" stroke="none"/><path clip-path="url(#a)" d="m844.5175 781.5884-6 12h12z" stroke="none"/><path clip-path="url(#a)" d="m328.9429 864.0527h267.0769v-281.2939" fill="none"/><path clip-path="url(#a)" d="m320.9429 864.0527c0-2.2092 1.7909-4 4-4 2.2092 0 4 1.7908 4 4 0 2.2091-1.7908 4-4 4-2.2091 0-4-1.7909-4-4z" stroke="none"/><path clip-path="url(#a)" d="m596.0198 571.7588-6 12h12z" stroke="none"/><path clip-path="url(#a)" d="m536.5823 711.0355h118.875v22.8438h-118.875z" fill="#fff" stroke="none"/><text clip-path="url(#a)" font-family="sans-serif" font-size="16" stroke="none" x="538.5823" y="728.5042">rdf:subClassOf</text><path clip-path="url(#a)" d="m232.1559 890.0581v117.2923h612.3616v-214.762" fill="none"/><path clip-path="url(#a)" d="m232.1559 882.0581c2.2091 0 4 1.7908 4 4s-1.7909 4-4 4c-2.2092 0-4-1.7908-4-4s1.7908-4 4-4z" stroke="none"/><path clip-path="url(#a)" d="m844.5175 781.5884-6 12h12z" stroke="none"/><path clip-path="url(#a)" d="m460.6296 995.9286h155.4141v22.8438h-155.4141z" fill="#fff" stroke="none"/><text clip-path="url(#a)" font-family="sans-serif" font-size="16" stroke="none" x="462.6296" y="1013.3973">beast:isGovernedBy</text><path clip-path="url(#a)" d="m370.2473 549.737h170.219" fill="none"/><path clip-path="url(#a)" d="m362.2473 549.737c0-2.2092 1.7908-4 4-4 2.2091 0 4 1.7908 4 4s-1.7909 4-4 4c-2.2092 0-4-1.7908-4-4z" stroke="none"/><path clip-path="url(#a)" d="m551.4663 549.737-12-6v12z" stroke="none"/><path clip-path="url(#a)" d="m392.6431 538.3151h132.4688v22.8438h-132.4688z" fill="#fff" stroke="none"/><text clip-path="url(#a)" font-family="sans-serif" font-size="16" stroke="none" x="394.6431" y="555.7839">beast:belongsTo</text><path clip-path="url(#a)" d="m79.2827 349.087h-104.4261l.1798 200.65h197.7566" fill="none" stroke="#000"/><path clip-path="url(#a)" d="m180.793 549.737-12-5 3 5-3 5z" fill="#000" stroke="none"/><path clip-path="url(#a)" d="m79.2827 379.087h-104.4261v170.65h197.8805" fill="none" stroke="#000"/><path clip-path="url(#a)" d="m180.7371 549.737-12-5 3 5-3 5z" fill="#000" stroke="none"/><path clip-path="url(#a)" d="m79.2827 409.087h-104.4261v140.65h197.8805" fill="none" stroke="#000"/><path clip-path="url(#a)" d="m180.7371 549.737-12-5 3 5-3 5z" fill="#000" stroke="none"/><path clip-path="url(#a)" d="m79.2827 226.9411h-104.4261v322.7959h197.8805" fill="none" stroke="#000"/><path clip-path="url(#a)" d="m180.7371 549.737-12-5 3 5-3 5z" fill="#000" stroke="none"/><path clip-path="url(#a)" d="m79.2827 293.8763h-104.4261v255.8607h197.8805" fill="none" stroke="#000"/><path clip-path="url(#a)" d="m180.7371 549.737-12-5 3 5-3 5z" fill="#000" stroke="none"/><path clip-path="url(#a)" d="m79.2827 260.4087h-104.4261v289.3283h197.8805" fill="none" stroke="#000"/><path clip-path="url(#a)" d="m180.7371 549.737-12-5 3 5-3 5z" fill="#000" stroke="none"/><path clip-path="url(#a)" d="m79.2827 109.28h-104.4261v440.457h197.8805" fill="none" stroke="#000"/><path clip-path="url(#a)" d="m180.7371 549.737-12-5 3 5-3 5z" fill="#000" stroke="none"/><path clip-path="url(#a)" d="m79.2827 143.1105h-104.2463v406.6265h197.7566" fill="none" stroke="#000"/><path clip-path="url(#a)" d="m180.793 549.737-12-5 3 5-3 5z" fill="#000" stroke="none"/><path clip-path="url(#a)" d="m-57.4089 335.0019h64.8906v22.8438h-64.8906z" fill="#fff" stroke="none"/></g><g font-family="sans-serif" font-size="16"><text clip-path="url(#a)" stroke="none" x="-55.4089" y="352.4706">rdf:type</text><path clip-path="url(#a)" d="m79.2827 176.9411h-104.2463v372.7959h197.7566" fill="none"/><path clip-path="url(#a)" d="m180.793 549.737-12-5 3 5-3 5z" stroke="none"/></g><path clip-path="url(#a)" d="m1553.5585 160.0674 42.6147-141.9615" fill="none" stroke="#008000"/></g><path clip-path="url(#a)" d="m1551.2584 167.7296c-2.1158-.6351-3.3163-2.8653-2.681-4.9811.6351-2.1159 2.8652-3.3162 4.9811-2.6811 2.1158.6351 3.3163 2.8653 2.681 4.9811-.6351 2.1159-2.8652 3.3163-4.9811 2.6811z" fill="none" stroke="none"/><g fill="#008000" stroke="#008000" stroke-linecap="butt" stroke-miterlimit="1.45"><path clip-path="url(#a)" d="m1551.2584 167.7296c-2.1158-.6351-3.3163-2.8653-2.681-4.9811.6351-2.1159 2.8652-3.3162 4.9811-2.6811 2.1158.6351 3.3163 2.8653 2.681 4.9811-.6351 2.1159-2.8652 3.3163-4.9811 2.6811z" fill="none"/><path clip-path="url(#a)" d="m1600.486 3.7392-10.347 13.5993 11.4933 3.4502z" fill="#fff" stroke="none"/><path clip-path="url(#a)" d="m1600.486 3.7392-10.347 13.5993 11.4933 3.4502z" fill="none"/><path clip-path="url(#a)" d="m1504.4797 72.393h143.9375v22.8438h-143.9375z" fill="#fff" stroke="none"/><text clip-path="url(#a)" font-family="sans-serif" font-size="16" stroke="none" x="1506.4796" y="89.8618">beast:hasMeaning</text><path clip-path="url(#a)" d="m888.5361 200.9579v-369.8113h78.303" fill="none" stroke="#000080"/><g stroke="none"><path clip-path="url(#a)" d="m888.5361 208.9579c-2.2092 0-4-1.7908-4-4 0-2.2091 1.7908-4 4-4 2.2091 0 4 1.7909 4 4 0 2.2092-1.7909 4-4 4z" fill="#000080"/><path clip-path="url(#a)" d="m977.8391-168.8534-12-6v12z" fill="#000080"/><path clip-path="url(#a)" d="m806.4228 2.0595h164.2266v22.8438h-164.2266z" fill="#fff"/></g></g><g style="stroke-linecap:butt;font-size:16;fill:#000080;font-family:sans-serif;stroke:#000080;stroke-miterlimit:1.45"><text clip-path="url(#a)" stroke="none" x="808.4228" y="19.5283">beast:hasDivergence</text><path clip-path="url(#a)" d="m1093.63-199.2144v-93.3212h-439.7402v809.2955" fill="none"/><path clip-path="url(#a)" d="m1093.63-191.2144c-2.2091 0-4-1.7908-4-4 0-2.2091 1.7909-4 4-4s4 1.7909 4 4c0 2.2092-1.7909 4-4 4z" stroke="none"/><path clip-path="url(#a)" d="m653.8898 527.7599 6-12h-12z" stroke="none"/><path clip-path="url(#a)" d="m1093.63-199.1994v-184.8351h-820.1063v900.7437" fill="none"/><path clip-path="url(#a)" d="m1093.63-191.1994c-2.2091 0-4-1.7909-4-4 0-2.2092 1.7909-4 4-4s4 1.7908 4 4c0 2.2091-1.7909 4-4 4z" stroke="none"/><path clip-path="url(#a)" d="m273.5237 527.7092 6-12h-12z" stroke="none"/><path clip-path="url(#a)" d="m888.5361 200.9326v-297.6787l318.4477.7042" fill="none"/><path clip-path="url(#a)" d="m888.5361 208.9326c-2.2092 0-4-1.7908-4-4 0-2.2091 1.7908-4 4-4 2.2091 0 4 1.7909 4 4 0 2.2092-1.7909 4-4 4z" stroke="none"/><path clip-path="url(#a)" d="m1217.9838-96.0176-11.9867-6.0265-.0265 11.9999z" stroke="none"/><path clip-path="url(#a)" d="m1292.2511-126.2153v-166.3203h-638.3613v809.2955" fill="none"/><g stroke="none"><path clip-path="url(#a)" d="m1292.2511-118.2153c-2.2091 0-4-1.7909-4-4 0-2.2092 1.7909-4 4-4s4 1.7908 4 4c0 2.2091-1.7909 4-4 4z"/><path clip-path="url(#a)" d="m653.8898 527.7599 6-12h-12z"/></g></g><path clip-path="url(#a)" d="m514.0031 101.6163h279.7734v22.8438h-279.7734z" fill="#fff" stroke="none"/><g style="stroke-linecap:butt;font-size:16;fill:#000080;font-family:sans-serif;stroke:#000080;stroke-miterlimit:1.45"><text clip-path="url(#a)" stroke="none" x="516.0031" y="119.0851">beast:belongsToImaginaryStructure</text><path clip-path="url(#a)" d="m1292.2511-126.202v-257.8325h-1018.7274v900.7437" fill="none"/><g stroke="none"><path clip-path="url(#a)" d="m1292.2511-118.202c-2.2091 0-4-1.7908-4-4 0-2.2091 1.7909-4 4-4s4 1.7909 4 4c0 2.2092-1.7909 4-4 4z"/><path clip-path="url(#a)" d="m273.5237 527.7092 6-12h-12z"/></g></g><g fill="#fff" stroke="#fff" stroke-linecap="butt" stroke-miterlimit="1.45"><path clip-path="url(#a)" d="m780.8874-386.0345h4v4h-4z" stroke="none"/><path clip-path="url(#a)" d="m974.9457 241.4805 253.5582 42.664" fill="none" stroke="#000080"/><g stroke="none"><path clip-path="url(#a)" d="m967.0566 240.1531c.3666-2.1785 2.4298-3.6474 4.6083-3.2808 2.1785.3665 3.6474 2.4297 3.2808 4.6082-.3665 2.1786-2.4298 3.6474-4.6082 3.2809-2.1786-.3666-3.6474-2.4298-3.2809-4.6083z" fill="#000080"/><path clip-path="url(#a)" d="m1239.3514 285.9697-10.8381-7.908-1.9911 11.8337z" fill="#000080"/><path clip-path="url(#a)" d="m997.5255 251.9743h215.3359v22.8438h-215.3359z"/></g></g><g style="stroke-linecap:butt;font-size:16;fill:#000080;font-family:sans-serif;stroke:#000080;stroke-miterlimit:1.45"><text clip-path="url(#a)" stroke="none" x="999.5255" y="269.443">beast:hasNarrativeFunction</text><path clip-path="url(#a)" d="m1358.3757 327.939.0658.0753 2.5751 2.4221 5.1771 3.9996 5.5174 3.4716 5.8134 2.9239 6.0656 2.3569 6.2738 1.7701 6.4377 1.1637 6.5578.5378 6.6336-.1076 6.6656-.7728 6.6534-1.4574 6.5972-2.1616 6.3459-2.8152 5.9158-3.3757 5.4661-3.8921 4.9968-4.3645 4.508-4.7928 3.9996-5.1771 3.4716-5.5173 2.924-5.8135 2.3568-6.0657 1.7701-6.2737 1.1637-6.4378.5379-6.5577-.1077-6.6337-.7727-6.6655-1.4574-6.6535-2.1616-6.5971-2.8153-6.3459-3.3756-5.9158-3.8921-5.4661-4.3645-4.9969-4.7929-4.508-5.1771-3.9996-5.5173-3.4715-5.8135-2.924-6.0657-2.3569-6.2737-1.77-6.4377-1.1638-6.5577-.5378-6.6337.1076-6.6657.7728-6.6533 1.4574-6.5971 2.1616-6.346 2.8152-5.9158 3.3757-5.466 3.8921-4.9969 4.3645-4.508 4.7928-3.9996 5.1771-3.4716 5.5174-2.924 5.8135-2.3568 6.0656-1.7701 6.2737-1.1637 6.4378-.0083.1019.0016.1" fill="none"/><g stroke="none"><path clip-path="url(#a)" d="m1352.6677 322.3336c1.5479-1.5762 4.0805-1.5991 5.6566-.0513 1.5763 1.5479 1.5993 4.0805.0514 5.6567-1.5478 1.5762-4.0804 1.5991-5.6566.0513-1.5763-1.5479-1.5992-4.0804-.0514-5.6567z"/><path clip-path="url(#a)" d="m1337.3463 281.2884 6.4984-11.7376-11.9895-.5037z"/></g></g><path clip-path="url(#a)" d="m1383.1141 251.8813h124.8594v22.8438h-124.8594z" fill="#fff" stroke="none"/><text style="stroke:none;clip-path:url(#a);stroke-linecap:butt;font-size:16;fill:#000080;font-family:sans-serif;stroke-miterlimit:1.45" x="1385.1141" y="269.3501">beast:relatedTo</text><path clip-path="url(#a)" d="m1341.7762 329.1832v67.9951h293.4913" fill="none" stroke="#008000" stroke-linecap="butt" stroke-miterlimit="1.45"/><path clip-path="url(#a)" d="m1341.7762 321.1832c2.2092 0 4 1.7908 4 4 0 2.2091-1.7908 4-4 4-2.2091 0-4-1.7909-4-4 0-2.2092 1.7909-4 4-4z" fill="none" stroke="none"/><g fill="#008000" stroke="#008000" stroke-linecap="butt" stroke-miterlimit="1.45"><path clip-path="url(#a)" d="m1341.7762 321.1832c2.2092 0 4 1.7908 4 4 0 2.2091-1.7908 4-4 4-2.2091 0-4-1.7909-4-4 0-2.2092 1.7909-4 4-4z" fill="none"/><path clip-path="url(#a)" d="m1650.2675 397.1783-16-6v12z" fill="#fff" stroke="none"/><path clip-path="url(#a)" d="m1650.2675 397.1783-16-6v12z" fill="none"/><path clip-path="url(#a)" d="m1416.3459 385.7564h143.9375v22.8438h-143.9375z" fill="#fff" stroke="none"/><text clip-path="url(#a)" font-family="sans-serif" font-size="16" stroke="none" x="1418.3458" y="403.2251">beast:hasMeaning</text><path clip-path="url(#a)" d="m888.5361 200.9253v-218.6974h250.0404" fill="none" stroke="#000080"/><path clip-path="url(#a)" d="m888.5361 208.9253c-2.2092 0-4-1.7908-4-4 0-2.2091 1.7908-4 4-4 2.2091 0 4 1.7909 4 4 0 2.2092-1.7909 4-4 4z" fill="#000080" stroke="none"/><path clip-path="url(#a)" d="m1149.5765-17.7721-12-6v12z" fill="#000080" stroke="none"/><path clip-path="url(#a)" d="m1279.655-17.7721h188.3072v-366.2624h-1194.4385v900.7437" fill="none" stroke="#000080"/><path clip-path="url(#a)" d="m1271.655-17.7721c0-2.2091 1.7909-4 4-4s4 1.7909 4 4-1.7909 4-4 4-4-1.7909-4-4z" fill="#000080" stroke="none"/><path clip-path="url(#a)" d="m273.5237 527.7092 6-12h-12z" fill="#000080" stroke="none"/><path clip-path="url(#a)" d="m888.5361 200.9125v-145.1846h250.0404" fill="none" stroke="#000080"/><path clip-path="url(#a)" d="m888.5361 208.9125c-2.2092 0-4-1.7909-4-4s1.7908-4 4-4c2.2091 0 4 1.7909 4 4s-1.7909 4-4 4z" fill="#000080" stroke="none"/><path clip-path="url(#a)" d="m1149.5765 55.7279-12-6v12z" fill="#000080" stroke="none"/><path clip-path="url(#a)" d="m1279.655 55.7279h188.3072v-439.7624h-1194.4385v900.7437" fill="none" stroke="#000080"/><g stroke="none"><path clip-path="url(#a)" d="m1271.655 55.7279c0-2.2091 1.7909-4 4-4s4 1.7909 4 4-1.7909 4-4 4-4-1.7909-4-4z" fill="#000080"/><path clip-path="url(#a)" d="m273.5237 527.7092 6-12h-12z" fill="#000080"/><path clip-path="url(#a)" d="m740.9265-395.4564h259.6328v22.8438h-259.6328z" fill="#fff"/></g></g><text style="stroke:none;clip-path:url(#a);stroke-linecap:butt;font-size:16;fill:#000080;font-family:sans-serif;stroke-miterlimit:1.45" x="742.9265" y="-377.9876">beast:embodiesImaginarySymbol</text></g></svg>