<svg height="1025" style="color-interpolation:auto;stroke:#000;stroke-linecap:square;stroke-miterlimit:10;font-family:'Dialog';font-size:12" width="1989" xmlns="http://www.w3.org/2000/svg" xmlns:xlink="http://www.w3.org/1999/xlink"><clipPath id="a"><path color-interpolation="auto" d="m-13 293h1989v1025h-1989z"/></clipPath><clipPath id="b"><path color-interpolation="auto" d="m-17 289h1989v1025h-1989z"/></clipPath><g shape-rendering="geometricPrecision" text-rendering="geometricPrecision"><g transform="translate(13 -293)"><path clip-path="url(#a)" d="m-13 293h1989v1025h-1989z" fill="#fff" stroke="none"/><rect clip-path="url(#a)" fill="#ff0" height="44" rx="4" stroke="none" width="132.9682" x="1017.635" y="946.0272"/><g font-family="sans-serif" font-size="16" stroke-linecap="butt" stroke-miterlimit="1.45"><text clip-path="url(#a)" stroke="none" x="1031.2012" y="974.3124">beast:Creature</text><rect clip-path="url(#a)" fill="none" height="44" rx="4" width="132.9682" x="1017.635" y="946.0272"/></g><rect clip-path="url(#a)" fill="#ff0" height="44" rx="4" stroke="none" width="144.9682" x="803.0546" y="579.9249"/><g font-family="sans-serif" font-size="16" stroke-linecap="butt" stroke-miterlimit="1.45"><text clip-path="url(#a)" stroke="none" x="812.8395" y="608.21">beast:RealAnimal</text><rect clip-path="url(#a)" fill="none" height="44" rx="4" width="144.9682" x="803.0546" y="579.9249"/></g><rect clip-path="url(#a)" fill="#ff0" height="44" rx="4" stroke="none" width="177.9682" x="786.5546" y="672.9819"/><g font-family="sans-serif" font-size="16" stroke-linecap="butt" stroke-miterlimit="1.45"><text clip-path="url(#a)" stroke="none" x="795.9372" xml:space="preserve" y="701.2671">beast:ImaginaryBeing </text><rect clip-path="url(#a)" fill="none" height="44" rx="4" width="177.9682" x="786.5546" y="672.9819"/></g><rect clip-path="url(#a)" fill="#ff0" height="44" rx="4" stroke="none" width="177.9682" x="1700.6388" y="998.6449"/><g font-family="sans-serif" font-size="16" stroke-linecap="butt" stroke-miterlimit="1.45"><text clip-path="url(#a)" stroke="none" x="1713.5878" y="1026.9301">beast:realWorldPlace</text><rect clip-path="url(#a)" fill="none" height="44" rx="4" width="177.9682" x="1700.6388" y="998.6449"/></g><rect clip-path="url(#a)" fill="#ff0" height="44" rx="4" stroke="none" width="211.0053" x="383.6862" y="672.9819"/><g font-family="sans-serif" font-size="16" stroke-linecap="butt" stroke-miterlimit="1.45"><text clip-path="url(#a)" stroke="none" x="398.0326" y="701.2671">beast:CompositeCreature</text><rect clip-path="url(#a)" fill="none" height="44" rx="4" width="211.0053" x="383.6862" y="672.9819"/></g><rect clip-path="url(#a)" fill="#ff0" height="44" rx="4" stroke="none" width="111.746" x="1159.5801" y="1096.8004"/><g font-family="sans-serif" font-size="16" stroke-linecap="butt" stroke-miterlimit="1.45"><text clip-path="url(#a)" stroke="none" x="1172.3203" y="1125.0856">beast:Ability</text><rect clip-path="url(#a)" fill="none" height="44" rx="4" width="111.746" x="1159.5801" y="1096.8004"/></g><rect clip-path="url(#a)" fill="#ff0" height="44" rx="4" stroke="none" width="111.746" x="1378.7143" y="946.0272"/><g font-family="sans-serif" font-size="16" stroke-linecap="butt" stroke-miterlimit="1.45"><text clip-path="url(#a)" stroke="none" x="1387.4467" y="974.3124">beast:Habitat</text><rect clip-path="url(#a)" fill="none" height="44" rx="4" width="111.746" x="1378.7143" y="946.0272"/></g><path clip-path="url(#a)" d="m1562.2002 687.1694h113.4855l-12.6095 43h-113.4855z" fill="#cfc" fill-rule="evenodd" stroke="none"/><g font-family="sans-serif" font-size="16" stroke-linecap="butt" stroke-miterlimit="1.45"><text clip-path="url(#a)" stroke="none" x="1575.2905" y="714.9546">rdfs:Literal</text><path clip-path="url(#a)" d="m1562.2002 687.1694h113.4855l-12.6095 43h-113.4855z" fill="none"/></g><rect clip-path="url(#a)" fill="#ff0" height="44" rx="4" stroke="none" width="95.6757" x="663.6616" y="1006.4585"/><g font-family="sans-serif" font-size="16" stroke-linecap="butt" stroke-miterlimit="1.45"><text clip-path="url(#a)" stroke="none" x="675.4799" y="1034.7437">beast:Diet</text><rect clip-path="url(#a)" fill="none" height="44" rx="4" width="95.6757" x="663.6616" y="1006.4585"/></g><rect clip-path="url(#a)" fill="#ff0" height="44" rx="4" stroke="none" width="177.9682" x="1700.6388" y="870.6151"/><g font-family="sans-serif" font-size="16" stroke-linecap="butt" stroke-miterlimit="1.45"><text clip-path="url(#a)" stroke="none" x="1712.6932" y="898.9002">beast:ImaginaryPlace</text><rect clip-path="url(#a)" fill="none" height="44" rx="4" width="177.9682" x="1700.6388" y="870.6151"/></g><circle clip-path="url(#a)" cx="1647.5965" cy="1160.0943" fill="#f9c" r="10" stroke="none"/><g font-family="sans-serif" font-size="16" stroke-linecap="butt" stroke-miterlimit="1.45"><text clip-path="url(#a)" stroke="none" x="1614.2567" y="1192.1803">terrestrial</text><circle clip-path="url(#a)" cx="1647.5965" cy="1160.0943" fill="none" r="10" stroke-width="3"/></g><circle clip-path="url(#a)" cx="1789.6229" cy="1205.3729" fill="#f9c" r="10" stroke="none"/><g font-family="sans-serif" font-size="16" stroke-linecap="butt" stroke-miterlimit="1.45"><text clip-path="url(#a)" stroke="none" x="1763.826" y="1237.4589">aquatic</text><circle clip-path="url(#a)" cx="1789.6229" cy="1205.3729" fill="none" r="10" stroke-width="3"/></g><circle clip-path="url(#a)" cx="1938.863" cy="1160.0943" fill="#f9c" r="10" stroke="none"/><g font-family="sans-serif" font-size="16" stroke-linecap="butt" stroke-miterlimit="1.45"><text clip-path="url(#a)" stroke="none" x="1919.2966" y="1192.1803">aerial</text><circle clip-path="url(#a)" cx="1938.863" cy="1160.0943" fill="none" r="10" stroke-width="3"/></g><circle clip-path="url(#a)" cx="990.5915" cy="1075.9976" fill="#f9c" r="10" stroke="none"/><g font-family="sans-serif" font-size="16" stroke-linecap="butt" stroke-miterlimit="1.45"><text clip-path="url(#a)" stroke="none" x="953.6814" y="1108.0835">scavenger</text><circle clip-path="url(#a)" cx="990.5915" cy="1075.9976" fill="none" r="10" stroke-width="3"/></g><circle clip-path="url(#a)" cx="930.5451" cy="1146.1467" fill="#f9c" r="10" stroke="none"/><g font-family="sans-serif" font-size="16" stroke-linecap="butt" stroke-miterlimit="1.45"><text clip-path="url(#a)" stroke="none" x="895.8576" y="1178.2327">elemental</text><circle clip-path="url(#a)" cx="930.5451" cy="1146.1467" fill="none" r="10" stroke-width="3"/></g><circle clip-path="url(#a)" cx="843.6985" cy="1227.8244" fill="#f9c" r="10" stroke="none"/><g font-family="sans-serif" font-size="16" stroke-linecap="butt" stroke-miterlimit="1.45"><text clip-path="url(#a)" stroke="none" x="798.3274" y="1259.9103">lithophagous</text><circle clip-path="url(#a)" cx="843.6985" cy="1227.8244" fill="none" r="10" stroke-width="3"/></g><circle clip-path="url(#a)" cx="583.4359" cy="1227.8244" fill="#f9c" r="10" stroke="none"/><g font-family="sans-serif" font-size="16" stroke-linecap="butt" stroke-miterlimit="1.45"><text clip-path="url(#a)" stroke="none" x="526.0569" y="1259.9103">hematophagous</text><circle clip-path="url(#a)" cx="583.4359" cy="1227.8244" fill="none" r="10" stroke-width="3"/></g><rect clip-path="url(#a)" fill="#ff0" height="44" rx="4" stroke="none" width="177.9682" x="400.2047" y="399.535"/><g font-family="sans-serif" font-size="16" stroke-linecap="butt" stroke-miterlimit="1.45"><text clip-path="url(#a)" stroke="none" x="413.1498" y="427.8202">beast:AnatomicalPart</text><rect clip-path="url(#a)" fill="none" height="44" rx="4" width="177.9682" x="400.2047" y="399.535"/></g><rect clip-path="url(#a)" fill="#ff0" height="44" rx="4" stroke="none" width="189.7834" x="2.0396" y="603.7655"/><g font-family="sans-serif" font-size="16" stroke-linecap="butt" stroke-miterlimit="1.45"><text clip-path="url(#a)" stroke="none" x="10.6579" y="632.0507">beast:InanimateElement</text><rect clip-path="url(#a)" fill="none" height="44" rx="4" width="189.7834" x="2.0396" y="603.7655"/></g><rect clip-path="url(#a)" fill="#ff0" height="44" rx="4" stroke="none" width="111.746" x="41.0583" y="751.222"/><g font-family="sans-serif" font-size="16" stroke-linecap="butt" stroke-miterlimit="1.45"><text clip-path="url(#a)" stroke="none" x="56.904" y="779.5071">beast:Plant</text><rect clip-path="url(#a)" fill="none" height="44" rx="4" width="111.746" x="41.0583" y="751.222"/></g><rect clip-path="url(#a)" fill="#ff0" height="44" rx="4" stroke="none" width="177.9682" x="565.0453" y="869.4898"/><g font-family="sans-serif" font-size="16" stroke-linecap="butt" stroke-miterlimit="1.45"><text clip-path="url(#a)" stroke="none" x="577.9943" y="897.7749">beast:HybridCreature</text><rect clip-path="url(#a)" fill="none" height="44" rx="4" width="177.9682" x="565.0453" y="869.4898"/></g><circle clip-path="url(#a)" cx="461.1571" cy="1075.9976" fill="#f9c" r="10" stroke="none"/><g font-family="sans-serif" font-size="16" stroke-linecap="butt" stroke-miterlimit="1.45"><text clip-path="url(#a)" stroke="none" x="419.8055" y="1108.0835">omnivorous</text><circle clip-path="url(#a)" cx="461.1571" cy="1075.9976" fill="none" r="10" stroke-width="3"/></g><circle clip-path="url(#a)" cx="502.9191" cy="1146.1467" fill="#f9c" r="10" stroke="none"/><g font-family="sans-serif" font-size="16" stroke-linecap="butt" stroke-miterlimit="1.45"><text clip-path="url(#a)" stroke="none" x="461.5675" y="1178.2327">carnivorous</text><circle clip-path="url(#a)" cx="502.9191" cy="1146.1467" fill="none" r="10" stroke-width="3"/></g><circle clip-path="url(#a)" cx="711.4994" cy="1265.1646" fill="#f9c" r="10" stroke="none"/><g font-family="sans-serif" font-size="16" stroke-linecap="butt" stroke-miterlimit="1.45"><text clip-path="url(#a)" stroke="none" x="669.6986" y="1297.2505">herbivorous</text><circle clip-path="url(#a)" cx="711.4994" cy="1265.1646" fill="none" r="10" stroke-width="3"/></g><g fill="#000080" stroke="#000080" stroke-linecap="butt" stroke-miterlimit="1.45"><path clip-path="url(#a)" d="m952.0275 601.9249h132.0916v343.4113.6648" fill="none"/><g stroke="none"><path clip-path="url(#a)" d="m944.0275 601.9249c0-2.2092 1.7909-4 4-4 2.2092 0 4 1.7908 4 4 0 2.2091-1.7908 4-4 4-2.2091 0-4-1.7909-4-4z"/><path clip-path="url(#a)" d="m1084.1191 946.001 6-12h-12z"/><path clip-path="url(#a)" d="m1025.2128 757.6128h117.8125v23.6016h-117.8125z" fill="#fff"/><text clip-path="url(#a)" font-family="sans-serif" font-size="16" x="1027.2129" y="775.6987">rdfs:subClassOf</text></g><path clip-path="url(#a)" d="m968.5266 694.9612 115.5925-.0257v240.123" fill="none"/><path clip-path="url(#a)" d="m960.5266 694.9631c-.0005-2.2092 1.7899-4.0005 3.999-4.0009 2.2092-.0005 4.0005 1.7899 4.001 3.999.0004 2.2092-1.79 4.0005-3.9991 4.001-2.2092.0004-4.0005-1.79-4.0009-3.9991z" stroke="none"/><path clip-path="url(#a)" d="m1084.1191 946.0585 6-12h-12z" stroke="none"/><path clip-path="url(#a)" d="m503.0912 669.4543 36.7767-67.5294h252.1853" fill="none"/><path clip-path="url(#a)" d="m499.265 676.4801c-1.9401-1.0566-2.6563-3.4858-1.5997-5.426 1.0565-1.94 3.4858-2.6563 5.4259-1.5998 1.9401 1.0566 2.6563 3.4859 1.5997 5.426-1.0565 1.9401-3.4858 2.6563-5.4259 1.5998z" stroke="none"/><path clip-path="url(#a)" d="m803.0532 601.9249-12-6v12z" stroke="none"/><path clip-path="url(#a)" d="m569.305 590.1241h195.1875v23.6016h-195.1875z" fill="#fff" stroke="none"/><text clip-path="url(#a)" font-family="sans-serif" font-size="16" stroke="none" x="571.3051" y="608.21">beast:hasPartDerivedFrom</text><path clip-path="url(#a)" d="m598.7133 694.9819h176.7992" fill="none"/><path clip-path="url(#a)" d="m590.7133 694.9819c0-2.2091 1.7908-4 4-4 2.2091 0 4 1.7909 4 4 0 2.2092-1.7909 4-4 4-2.2092 0-4-1.7908-4-4z" stroke="none"/><path clip-path="url(#a)" d="m786.5125 694.9819-12-6v12z" stroke="none"/><path clip-path="url(#a)" d="m631.7168 683.1811h117.8125v23.6016h-117.8125z" fill="#fff" stroke="none"/><text clip-path="url(#a)" font-family="sans-serif" font-size="16" stroke="none" x="633.7168" y="701.2671">rdfs:subClassOf</text><path clip-path="url(#a)" d="m1105.8885 993.0189 83.1935 95.5071" fill="none"/><path clip-path="url(#a)" d="m1100.6339 986.9865c1.6658-1.451 4.1925-1.2769 5.6434.3889 1.4511 1.6657 1.277 4.1924-.3888 5.6435-1.6657 1.4509-4.1925 1.2769-5.6434-.3889-1.451-1.6658-1.277-4.1924.3888-5.6435z" stroke="none"/><path clip-path="url(#a)" d="m1196.3071 1096.8206-3.3575-12.9895-9.0486 7.8818z" stroke="none"/><path clip-path="url(#a)" d="m1091.7548 1031.613h116.0625v23.6016h-116.0625z" fill="#fff" stroke="none"/><text clip-path="url(#a)" font-family="sans-serif" font-size="16" stroke="none" x="1093.7549" y="1049.699">beast:hasAbility</text><path clip-path="url(#a)" d="m1154.6448 968.0272h213.1037" fill="none"/><path clip-path="url(#a)" d="m1146.6448 968.0272c0-2.2091 1.7909-4 4-4s4 1.7909 4 4c0 2.2092-1.7909 4-4 4s-4-1.7908-4-4z" stroke="none"/><path clip-path="url(#a)" d="m1378.7485 968.0272-12-6v12z" stroke="none"/><path clip-path="url(#a)" d="m1202.6197 956.2264h124.0781v23.6016h-124.0781z" fill="#fff" stroke="none"/><text clip-path="url(#a)" font-family="sans-serif" font-size="16" stroke="none" x="1204.6196" y="974.3124">beast:hasHabitat</text><path clip-path="url(#a)" d="m1696.6906 1006.8719-195.3274-28.9483" fill="none"/><path clip-path="url(#a)" d="m1704.6041 1008.0447c-.3238 2.1853-2.3579 3.6943-4.5432 3.3704-2.1852-.3239-3.6942-2.3578-3.3703-4.5432.3238-2.1853 2.3579-3.6942 4.5432-3.3704 2.1851.3239 3.6942 2.3579 3.3703 4.5432z" stroke="none"/><path clip-path="url(#a)" d="m1490.4821 976.311 10.9907 7.6944 1.7593-11.8703z" stroke="none"/><path clip-path="url(#a)" d="m1536.6433 980.0817h117.8125v23.6016h-117.8125z" fill="#fff" stroke="none"/><text clip-path="url(#a)" font-family="sans-serif" font-size="16" stroke="none" x="1538.6433" y="998.1676">rdfs:subClassOf</text><path clip-path="url(#a)" d="m1096.8676 942.4545 71.5068-143.4387 44.6818-90.3464h327.8542" fill="none" stroke="#008000"/></g><path clip-path="url(#a)" d="m1093.2985 949.6141c-1.9771-.9855-2.7809-3.3872-1.7953-5.3643.9856-1.9772 3.3873-2.7809 5.3644-1.7953 1.977.9855 2.7808 3.3872 1.7952 5.3643-.9856 1.9772-3.3873 2.7809-5.3643 1.7953z" fill="none" stroke="none"/><g fill="#008000" stroke="#008000" stroke-linecap="butt" stroke-miterlimit="1.45"><path clip-path="url(#a)" d="m1093.2985 949.6141c-1.9771-.9855-2.7809-3.3872-1.7953-5.3643.9856-1.9772 3.3873-2.7809 5.3644-1.7953 1.977.9855 2.7808 3.3872 1.7952 5.3643-.9856 1.9772-3.3873 2.7809-5.3643 1.7953z" fill="none"/><path clip-path="url(#a)" d="m1555.9104 708.6694-16-6v12z" fill="#fff" stroke="none"/><path clip-path="url(#a)" d="m1555.9104 708.6694-16-6v12z" fill="none"/><path clip-path="url(#a)" d="m1280.9328 696.8687h191.6562v23.6016h-191.6562z" fill="#fff" stroke="none"/><text clip-path="url(#a)" font-family="sans-serif" font-size="16" stroke="none" x="1282.9329" y="714.9546">beast:hasAlternativeName</text><path clip-path="url(#a)" d="m1013.6643 968.0272h-302.1649v27.4482" fill="none" stroke="#000080"/><g stroke="none"><path clip-path="url(#a)" d="m1021.6643 968.0272c0 2.2092-1.7908 4-4 4s-4-1.7908-4-4c0-2.2091 1.7908-4 4-4s4 1.7909 4 4z" fill="#000080"/><path clip-path="url(#a)" d="m711.4994 1006.4754 6-12h-12z" fill="#000080"/><path clip-path="url(#a)" d="m809.0867 956.2264h101.8359v23.6016h-101.8359z" fill="#fff"/></g></g><g style="stroke-linecap:butt;font-size:16;fill:#000080;font-family:sans-serif;stroke:#000080;stroke-miterlimit:1.45"><text clip-path="url(#a)" stroke="none" x="811.0867" y="974.3124">beast:hasDiet</text><path clip-path="url(#a)" d="m1696.8213 912.3268-195.6261 41.5524" fill="none"/><g stroke="none"><path clip-path="url(#a)" d="m1704.6467 910.6647c.459 2.1609-.9207 4.2848-3.0816 4.7437-2.1609.459-4.2848-.9207-4.7438-3.0816-.459-2.161.9208-4.2848 3.0817-4.7438 2.1608-.459 4.2847.9207 4.7437 3.0817z"/><path clip-path="url(#a)" d="m1490.4353 956.1647 12.9847 3.3758-2.4932-11.7381z"/></g></g><path clip-path="url(#a)" d="m1536.6433 922.0369h117.8125v23.6016h-117.8125z" fill="#fff" stroke="none"/><text style="stroke:none;clip-path:url(#a);stroke-linecap:butt;font-size:16;fill:#000080;font-family:sans-serif;stroke-miterlimit:1.45" x="1538.6433" y="940.1228">rdfs:subClassOf</text><g stroke-linecap="butt" stroke-miterlimit="1.45"><path clip-path="url(#a)" d="m1654.7321 1153.0883 106.7554-104.8186" fill="none"/><g stroke="none"><path clip-path="url(#a)" d="m1767.196 1042.6648-12.0656 4.8395 5.6436 1.4659 1.3624 5.6696z"/><path clip-path="url(#a)" d="m1683.6424 1084.7423h57.3594v23.6016h-57.3594z" fill="#fff"/><text clip-path="url(#a)" font-family="sans-serif" font-size="16" x="1685.6425" y="1102.8282">rdf:type</text></g><path clip-path="url(#a)" d="m1789.6229 1195.3729v-144.759" fill="none"/><path clip-path="url(#a)" d="m1789.6229 1042.6139-5 12 5-3 5 3z" stroke="none"/><path clip-path="url(#a)" d="m1760.9432 1107.2081h57.3594v23.6016h-57.3594z" fill="#fff" stroke="none"/><text clip-path="url(#a)" font-family="sans-serif" font-size="16" stroke="none" x="1762.9432" y="1125.2941">rdf:type</text><path clip-path="url(#a)" d="m1931.5564 1153.267-112.5597-105.1753" fill="none"/><path clip-path="url(#a)" d="m1813.1514 1042.6299 5.3543 11.8461 1.2217-5.7016 5.6057-1.6051z" stroke="none"/><path clip-path="url(#a)" d="m1842.6559 1085.1962h57.3594v23.6016h-57.3594z" fill="#fff" stroke="none"/><text clip-path="url(#a)" font-family="sans-serif" font-size="16" stroke="none" x="1844.6559" y="1103.2821">rdf:type</text><path clip-path="url(#a)" d="m980.7335 1074.3185-213.5284-36.3714" fill="none"/><path clip-path="url(#a)" d="m759.3187 1036.6038 10.99 6.9441-2.1178-5.4328 3.797-4.4253z" stroke="none"/><path clip-path="url(#a)" d="m841.2847 1043.6498h57.3594v23.6016h-57.3594z" fill="#fff" stroke="none"/><text clip-path="url(#a)" font-family="sans-serif" font-size="16" stroke="none" x="843.2847" y="1061.7357">rdf:type</text><path clip-path="url(#a)" d="m921.7361 1141.4138-162.2559-87.1764" fill="none"/><path clip-path="url(#a)" d="m752.4329 1050.4512 8.2044 10.084-.2763-5.8245 5.0092-2.9846z" stroke="none"/><path clip-path="url(#a)" d="m811.2615 1085.6665h57.3594v23.6016h-57.3594z" fill="#fff" stroke="none"/><text clip-path="url(#a)" font-family="sans-serif" font-size="16" stroke="none" x="813.2615" y="1103.7524">rdf:type</text><path clip-path="url(#a)" d="m838.1721 1219.4901-107.67-162.3741" fill="none"/><path clip-path="url(#a)" d="m726.081 1050.4486 2.4646 12.7643 2.5091-5.2636 5.8251-.2629z" stroke="none"/><path clip-path="url(#a)" d="m752.8978 1122.3406h57.3594v23.6016h-57.3594z" fill="#fff" stroke="none"/><text clip-path="url(#a)" font-family="sans-serif" font-size="16" stroke="none" x="754.8978" y="1140.4266">rdf:type</text><path clip-path="url(#a)" d="m588.8405 1219.4106 104.2157-162.2402" fill="none"/><path clip-path="url(#a)" d="m697.3799 1050.4395-10.6924 7.3941 5.8282.1782 2.5855 5.2264z" stroke="none"/><path clip-path="url(#a)" d="m614.9338 1122.3406h57.3594v23.6016h-57.3594z" fill="#fff" stroke="none"/><text clip-path="url(#a)" font-family="sans-serif" font-size="16" stroke="none" x="616.9338" y="1140.4266">rdf:type</text><path clip-path="url(#a)" d="m489.1888 668.9847v-214.4417" fill="none" stroke="#000080"/><path clip-path="url(#a)" d="m489.1888 676.9847c-2.2091 0-4-1.7909-4-4 0-2.2092 1.7909-4 4-4 2.2092 0 4 1.7908 4 4 0 2.2091-1.7908 4-4 4z" fill="#000080" stroke="none"/><path clip-path="url(#a)" d="m489.1888 443.543-6 12h12z" fill="#000080" stroke="none"/><path clip-path="url(#a)" d="m437.8255 546.4577h102.7266v23.6016h-102.7266z" fill="#fff" stroke="none"/></g><g style="stroke-linecap:butt;font-size:16;fill:#000080;font-family:sans-serif;stroke:#000080;stroke-miterlimit:1.45"><text clip-path="url(#a)" stroke="none" x="439.8256" y="564.5436">beast:hasPart</text><path clip-path="url(#a)" d="m875.5388 575.9487v-154.4137h-286.3556" fill="none"/><g stroke="none"><path clip-path="url(#a)" d="m875.5388 583.9487c-2.2092 0-4-1.7909-4-4 0-2.2092 1.7908-4 4-4 2.2091 0 4 1.7908 4 4 0 2.2091-1.7909 4-4 4z"/><path clip-path="url(#a)" d="m578.1832 421.535 12 6v-12z"/></g></g><path clip-path="url(#a)" d="m663.6019 409.7342h135.6328v23.6016h-135.6328z" fill="#fff" stroke="none"/><g style="stroke-linecap:butt;font-size:16;fill:#000080;font-family:sans-serif;stroke:#000080;stroke-miterlimit:1.45"><text clip-path="url(#a)" stroke="none" x="665.6019" y="427.8202">beast:hasAnomaly</text><path clip-path="url(#a)" d="m470.0662 669.7941-33.4266-44.0286h-233.7874" fill="none"/><g stroke="none"><path clip-path="url(#a)" d="m474.9036 676.166c-1.7595 1.3358-4.2688.9923-5.6046-.7673-1.3358-1.7595-.9923-4.2688.7672-5.6046s4.2688-.9923 5.6046.7672c1.3358 1.7596.9923 4.2688-.7672 5.6047z"/><path clip-path="url(#a)" d="m191.8522 625.7655 12 6v-12z"/></g></g><path clip-path="url(#a)" d="m221.2 613.9647h195.1875v23.6016h-195.1875z" fill="#fff" stroke="none"/><g style="stroke-linecap:butt;font-size:16;fill:#000080;font-family:sans-serif;stroke:#000080;stroke-miterlimit:1.45"><text clip-path="url(#a)" stroke="none" x="223.2" y="632.0507">beast:hasPartDerivedFrom</text><path clip-path="url(#a)" d="m473.1839 720.331-33.3943 52.891h-275.9848" fill="none"/><g stroke="none"><path clip-path="url(#a)" d="m477.4549 713.5665c1.868 1.1793 2.4262 3.6497 1.2468 5.5177s-3.6498 2.4262-5.5178 1.2468c-1.8679-1.1794-2.4261-3.6498-1.2467-5.5178 1.1794-1.8679 3.6497-2.4261 5.5177-1.2467z"/><path clip-path="url(#a)" d="m152.8048 773.222 12 6v-12z"/></g></g><path clip-path="url(#a)" d="m203.2657 761.4212h195.1875v23.6016h-195.1875z" fill="#fff" stroke="none"/><g style="stroke-linecap:butt;font-size:16;fill:#000080;font-family:sans-serif;stroke:#000080;stroke-miterlimit:1.45"><text clip-path="url(#a)" stroke="none" x="205.2657" y="779.5071">beast:hasPartDerivedFrom</text><path clip-path="url(#a)" d="m633.0067 866.4284-118.289-141.0134" fill="none"/><g stroke="none"><path clip-path="url(#a)" d="m638.1482 872.5574c-1.6925 1.4198-4.2155 1.1988-5.6353-.4937s-1.1987-4.2156.4938-5.6353c1.6925-1.4198 4.2155-1.1987 5.6353.4938s1.1987 4.2155-.4938 5.6352z"/><path clip-path="url(#a)" d="m507.6482 716.9875 3.1153 13.0497 9.1937-7.7121z"/></g></g><path clip-path="url(#a)" d="m512.7029 781.4351h117.8125v23.6016h-117.8125z" fill="#fff" stroke="none"/><text style="stroke:none;clip-path:url(#a);stroke-linecap:butt;font-size:16;fill:#000080;font-family:sans-serif;stroke-miterlimit:1.45" x="514.7029" y="799.521">rdfs:subClassOf</text><g stroke-linecap="butt" stroke-miterlimit="1.45"><path clip-path="url(#a)" d="m470.9815 1074.132 184.8308-35.0987" fill="none"/><g stroke="none"><path clip-path="url(#a)" d="m663.6718 1037.5408-12.7222-2.6734 3.8802 4.3524-2.0144 5.472z"/><path clip-path="url(#a)" d="m538.7296 1044.0199h57.3594v23.6016h-57.3594z" fill="#fff"/><text clip-path="url(#a)" font-family="sans-serif" font-size="16" x="540.7296" y="1062.1058">rdf:type</text></g><path clip-path="url(#a)" d="m511.6284 1141.2327 153.8906-86.8305" fill="none"/><path clip-path="url(#a)" d="m672.4865 1050.4709-12.9082 1.5423 5.0698 2.8804-.1557 5.8289z" stroke="none"/><path clip-path="url(#a)" d="m560.5104 1085.6688h57.3594v23.6016h-57.3594z" fill="#fff" stroke="none"/><text clip-path="url(#a)" font-family="sans-serif" font-size="16" stroke="none" x="562.5104" y="1103.7548">rdf:type</text><path clip-path="url(#a)" d="m711.4994 1255.1646v-196.7052" fill="none"/><path clip-path="url(#a)" d="m711.4994 1050.4594-5 12 5-3 5 3z" stroke="none"/><path clip-path="url(#a)" d="m682.8197 1141.0108h57.3594v23.6016h-57.3594z" fill="#fff" stroke="none"/><text clip-path="url(#a)" font-family="sans-serif" font-size="16" stroke="none" x="684.8197" y="1159.0967">rdf:type</text></g></g><path clip-path="url(#b)" d="m1536.2072 308.236h342.3997v101.9136h-342.3997z" fill="#d2d2d2" stroke="none" transform="translate(17 -289)"/><g fill="#fff" stroke="none" transform="translate(13 -293)"><path clip-path="url(#a)" d="m1536.2072 308.236h342.3997v101.9136h-342.3997z"/><path clip-path="url(#a)" d="m1536.2072 308.236h342.3997v22.3765h-342.3997z" fill="#b7b69e"/></g><g font-family="sans-serif" font-size="15" font-weight="bold" stroke-linecap="butt" stroke-miterlimit="1.45" transform="translate(13 -293)"><g stroke="none"><text clip-path="url(#a)" x="1805.7305" xml:space="preserve" y="325.3165">Prefixes   </text><text clip-path="url(#a)" font-size="12" font-weight="normal" x="1544.9091" y="355.8953">@prefix beast: &lt;https://w3id.org/beast/ontology#&gt; .</text><text clip-path="url(#a)" font-size="12" font-weight="normal" x="1544.9091" y="370.5965">@prefix rdfs: &lt;http://www.w3.org/2000/01/rdf-schema#&gt; .</text><text clip-path="url(#a)" font-size="12" font-weight="normal" x="1544.9091" y="385.2976">@prefix rdf: &lt;http://www.w3.org/1999/02/22-rdf-syntax-ns#&gt; .</text></g><path clip-path="url(#a)" d="m1536.2072 308.236h342.3997v101.9136h-342.3997z" fill="none"/></g></g></svg>