<svg height="1219" style="color-interpolation:auto;stroke:#000;stroke-linecap:square;stroke-miterlimit:10;font-family:'Dialog';font-size:12" width="1708" xmlns="http://www.w3.org/2000/svg" xmlns:xlink="http://www.w3.org/1999/xlink"><clipPath id="a"><path color-interpolation="auto" d="m-78-60h1708v1219h-1708z"/></clipPath><clipPath id="b"><path color-interpolation="auto" d="m-82-64h1708v1219h-1708z"/></clipPath><g shape-rendering="geometricPrecision" text-rendering="geometricPrecision"><g transform="translate(78 60)"><path clip-path="url(#a)" d="m-78-60h1708v1219h-1708z" fill="#fff" stroke="none"/><rect clip-path="url(#a)" fill="#ff0" height="44" rx="4" stroke="none" width="164.9682" x="693.6652" y="626.7819"/><g font-family="sans-serif" font-size="16" stroke-linecap="butt" stroke-miterlimit="1.45"><text clip-path="url(#a)" stroke="none" x="707.2157" y="655.0671">beast:Interpretation</text><rect clip-path="url(#a)" fill="none" height="44" rx="4" width="164.9682" x="693.6652" y="626.7819"/></g><rect clip-path="url(#a)" fill="#ff0" height="44" rx="4" stroke="none" width="121.9682" x="278.1531" y="716.1677"/><g font-family="sans-serif" font-size="16" stroke-linecap="butt" stroke-miterlimit="1.45"><text clip-path="url(#a)" stroke="none" x="286.2192" y="744.4529">beast:Creature</text><rect clip-path="url(#a)" fill="none" height="44" rx="4" width="121.9682" x="278.1531" y="716.1677"/></g><rect clip-path="url(#a)" fill="#ff0" height="44" rx="4" stroke="none" width="113.4682" x="1030.3039" y="626.7819"/><g font-family="sans-serif" font-size="16" stroke-linecap="butt" stroke-miterlimit="1.45"><text clip-path="url(#a)" stroke="none" x="1039.8975" y="655.0671">beast:Source</text><rect clip-path="url(#a)" fill="none" height="44" rx="4" width="113.4682" x="1030.3039" y="626.7819"/></g><rect clip-path="url(#a)" fill="#ff0" height="44" rx="4" stroke="none" width="132.0053" x="710.1467" y="864.6142"/><g font-family="sans-serif" font-size="16" stroke-linecap="butt" stroke-miterlimit="1.45"><text clip-path="url(#a)" stroke="none" x="717.0087" y="892.8994">beast:Etymology</text><rect clip-path="url(#a)" fill="none" height="44" rx="4" width="132.0053" x="710.1467" y="864.6142"/></g><path clip-path="url(#a)" d="m343.6555 1027.125h113.4855l-12.6095 43h-113.4855z" fill="#cfc" fill-rule="evenodd" stroke="none"/><g font-family="sans-serif" font-size="16" stroke-linecap="butt" stroke-miterlimit="1.45"><text clip-path="url(#a)" stroke="none" x="356.7458" y="1054.9102">rdfs:Literal</text><path clip-path="url(#a)" d="m343.6555 1027.125h113.4855l-12.6095 43h-113.4855z" fill="none"/></g><path clip-path="url(#a)" d="m343.6555 954.125h113.4855l-12.6095 43h-113.4855z" fill="#cfc" fill-rule="evenodd" stroke="none"/><g font-family="sans-serif" font-size="16" stroke-linecap="butt" stroke-miterlimit="1.45"><text clip-path="url(#a)" stroke="none" x="356.7458" y="981.9102">rdfs:Literal</text><path clip-path="url(#a)" d="m343.6555 954.125h113.4855l-12.6095 43h-113.4855z" fill="none"/></g><path clip-path="url(#a)" d="m1497.4019 260.4073h113.4854l-12.6095 43h-113.4854z" fill="#cfc" fill-rule="evenodd" stroke="none"/><g font-family="sans-serif" font-size="16" stroke-linecap="butt" stroke-miterlimit="1.45"><text clip-path="url(#a)" stroke="none" x="1510.4922" y="288.1925">rdfs:Literal</text><path clip-path="url(#a)" d="m1497.4019 260.4073h113.4854l-12.6095 43h-113.4854z" fill="none"/></g><rect clip-path="url(#a)" fill="#ff0" height="44" rx="4" stroke="none" width="132.0053" x="1481.8372" y="516.2453"/><g font-family="sans-serif" font-size="16" stroke-linecap="butt" stroke-miterlimit="1.45"><text clip-path="url(#a)" stroke="none" x="1492.2578" y="544.5305">schema:Person</text><rect clip-path="url(#a)" fill="none" height="44" rx="4" width="132.0053" x="1481.8372" y="516.2453"/></g><path clip-path="url(#a)" d="m1497.4019 324.8211h113.4854l-12.6095 43h-113.4854z" fill="#cfc" fill-rule="evenodd" stroke="none"/><g font-family="sans-serif" font-size="16" stroke-linecap="butt" stroke-miterlimit="1.45"><text clip-path="url(#a)" stroke="none" x="1511.8203" y="352.6062">xsd:gYear</text><path clip-path="url(#a)" d="m1497.4019 324.8211h113.4854l-12.6095 43h-113.4854z" fill="none"/></g><path clip-path="url(#a)" d="m1497.4019 389.2348h113.4854l-12.6095 43h-113.4854z" fill="#cfc" fill-rule="evenodd" stroke="none"/><g font-family="sans-serif" font-size="16" stroke-linecap="butt" stroke-miterlimit="1.45"><text clip-path="url(#a)" stroke="none" x="1510.4922" y="417.02">rdfs:Literal</text><path clip-path="url(#a)" d="m1497.4019 389.2348h113.4854l-12.6095 43h-113.4854z" fill="none"/></g><rect clip-path="url(#a)" fill="#ff0" height="44" rx="4" stroke="none" width="113.4682" x="1284.613" y="955.5933"/><g font-family="sans-serif" font-size="16" stroke-linecap="butt" stroke-miterlimit="1.45"><text clip-path="url(#a)" stroke="none" x="1290.6558" y="983.8784">beast:Bestiary</text><rect clip-path="url(#a)" fill="none" height="44" rx="4" width="113.4682" x="1284.613" y="955.5933"/></g><rect clip-path="url(#a)" fill="#ff0" height="44" rx="4" stroke="none" width="154.7893" x="1263.9525" y="1099.625"/><g font-family="sans-serif" font-size="16" stroke-linecap="butt" stroke-miterlimit="1.45"><text clip-path="url(#a)" stroke="none" x="1272.8706" y="1127.9102">beast:BestiaryType</text><rect clip-path="url(#a)" fill="none" height="44" rx="4" width="154.7893" x="1263.9525" y="1099.625"/></g><path clip-path="url(#a)" d="m361.8432 516.7453h113.4854l-12.6095 43h-113.4854z" fill="#cfc" fill-rule="evenodd" stroke="none"/><g font-family="sans-serif" font-size="16" stroke-linecap="butt" stroke-miterlimit="1.45"><text clip-path="url(#a)" stroke="none" x="374.9335" y="544.5305">rdfs:Literal</text><path clip-path="url(#a)" d="m361.8432 516.7453h113.4854l-12.6095 43h-113.4854z" fill="none"/></g><path clip-path="url(#a)" d="m1497.4019 453.6485h113.4854l-12.6095 43h-113.4854z" fill="#cfc" fill-rule="evenodd" stroke="none"/><g font-family="sans-serif" font-size="16" stroke-linecap="butt" stroke-miterlimit="1.45"><text clip-path="url(#a)" stroke="none" x="1510.4922" y="481.4337">rdfs:Literal</text><path clip-path="url(#a)" d="m1497.4019 453.6485h113.4854l-12.6095 43h-113.4854z" fill="none"/></g><path clip-path="url(#a)" d="m343.6555 1100.125h113.4855l-12.6095 43h-113.4855z" fill="#cfc" fill-rule="evenodd" stroke="none"/><g font-family="sans-serif" font-size="16" stroke-linecap="butt" stroke-miterlimit="1.45"><text clip-path="url(#a)" stroke="none" x="356.7458" y="1127.9102">rdfs:Literal</text><path clip-path="url(#a)" d="m343.6555 1100.125h113.4855l-12.6095 43h-113.4855z" fill="none"/></g><rect clip-path="url(#a)" fill="#ff0" height="44" rx="4" stroke="none" width="121.9682" x="388.5473" y="397.1738"/><g font-family="sans-serif" font-size="16" stroke-linecap="butt" stroke-miterlimit="1.45"><text clip-path="url(#a)" stroke="none" x="400.6135" y="425.459">beast:Citation</text><rect clip-path="url(#a)" fill="none" height="44" rx="4" width="121.9682" x="388.5473" y="397.1738"/></g><path clip-path="url(#a)" d="m-6.2477 125.1509h113.4855l-12.6095 43h-113.4855z" fill="#cfc" fill-rule="evenodd" stroke="none"/><g font-family="sans-serif" font-size="16" stroke-linecap="butt" stroke-miterlimit="1.45"><text clip-path="url(#a)" stroke="none" x="6.8426" y="152.9361">rdfs:Literal</text><path clip-path="url(#a)" d="m-6.2477 125.1509h113.4855l-12.6095 43h-113.4855z" fill="none"/></g><path clip-path="url(#a)" d="m-41.4431 300.5142h192.675l-21.4083 53.9985h-192.675z" fill="#cfc" fill-rule="evenodd" stroke="none"/><g font-family="sans-serif" font-size="16" stroke-linecap="butt" stroke-miterlimit="1.45"><text clip-path="url(#a)" stroke="none" x="-35.423" y="333.7986">hasSequenceIdentifier</text><path clip-path="url(#a)" d="m-41.4431 300.5142h192.675l-21.4083 53.9985h-192.675z" fill="none"/></g><path clip-path="url(#a)" d="m-6.2477 210.8512h113.4855l-12.6095 43h-113.4855z" fill="#cfc" fill-rule="evenodd" stroke="none"/><g font-family="sans-serif" font-size="16" stroke-linecap="butt" stroke-miterlimit="1.45"><text clip-path="url(#a)" stroke="none" x="6.8426" y="238.6363">rdfs:Literal</text><path clip-path="url(#a)" d="m-6.2477 210.8512h113.4855l-12.6095 43h-113.4855z" fill="none"/></g><g fill="#000080" stroke="#000080" stroke-linecap="butt" stroke-miterlimit="1.45"><path clip-path="url(#a)" d="m689.679 648.7819h-221.3186l-88.344 61.109" fill="none"/><g stroke="none"><path clip-path="url(#a)" d="m697.679 648.7819c0 2.2092-1.7908 4-4 4s-4-1.7908-4-4c0-2.2091 1.7908-4 4-4s4 1.7909 4 4z"/><path clip-path="url(#a)" d="m370.9698 716.1486 13.2823-1.892-6.8266-9.8691z"/><path clip-path="url(#a)" d="m514.8604 636.9811h123.1797v23.6016h-123.1797z" fill="#fff"/><text clip-path="url(#a)" font-family="sans-serif" font-size="16" x="516.8604" y="655.0671">beast:ofCreature</text></g><path clip-path="url(#a)" d="m862.6153 648.7819h156.6796" fill="none"/><path clip-path="url(#a)" d="m854.6153 648.7819c0-2.2091 1.7908-4 4-4s4 1.7909 4 4c0 2.2092-1.7908 4-4 4s-4-1.7908-4-4z" stroke="none"/><path clip-path="url(#a)" d="m1030.2949 648.7819-12-6v12z" stroke="none"/><path clip-path="url(#a)" d="m885.0937 636.9811h118.75v23.6016h-118.75z" fill="#fff" stroke="none"/><text clip-path="url(#a)" font-family="sans-serif" font-size="16" stroke="none" x="887.0937" y="655.0671">beast:appearsIn</text><path clip-path="url(#a)" d="m1076.9596 674.5383-.0297.0956-1.3706 5.3438-1.301 6.3785-.9777 6.3988-.658 6.4081-.3418 6.406-.0291 6.3929.2799 6.3685.5855 6.333.8875 6.2863 1.186 6.2284 1.4808 6.1594 1.7722 6.0792 2.0599 5.9878 2.3443 5.8852 2.625 5.7714 2.9021 5.6466 3.1756 5.5103 3.4457 5.3632 3.7123 5.2047 3.9752 5.035 4.2346 4.8543 4.4905 4.6622 4.7428 4.4591 4.9916 4.2448 5.2367 4.0193 5.4784 3.7826 5.7165 3.5347 5.9511 3.2756 6.1091 2.9708 6.1852 2.6296 6.2504 2.2923 6.3042 1.9582 6.3469 1.6279 6.3785 1.301 6.3988.9777 6.4081.658 6.406.3418 6.3928.0292 6.3686-.28 6.333-.5855 6.2863-.8875 6.2284-1.1859 6.1595-1.4809 6.0791-1.7721 5.9878-2.06 5.8852-2.3443 5.7715-2.6249 5.6465-2.9021 5.5104-3.1757 5.3631-3.4458 5.2047-3.7122 5.0351-3.9752 4.8542-4.2346 4.6622-4.4905 4.4591-4.7428 4.2448-4.9916 4.0193-5.2367 3.7826-5.4784 3.5346-5.7165 3.2758-5.9511 2.9707-6.109 2.6296-6.1853 2.2923-6.2503 1.9582-6.3043 1.6278-6.3469 1.3011-6.3785.9778-6.3988.6579-6.4081.3418-6.406.0292-6.3929-.2799-6.3685-.5856-6.333-.8874-6.2863-1.186-6.2284-1.4808-6.1595-1.7722-6.0791-2.0601-5.9878-2.3442-5.8852-2.6249-5.7714-2.9021-5.6466-3.1756-5.5103-3.4458-5.3632-3.7123-5.2047-3.9752-5.0351-4.2347-4.8542-4.4904-4.6622-4.7428-4.4591-4.9915-4.2449-5.2368-4.0192-5.4784-3.7826-5.7166-3.5347-5.951-3.2756-6.109-2.9708-6.1853-2.6296-6.2504-2.2923-6.3042-1.9582-6.3469-1.6279-6.3784-1.301-6.399-.9777-6.4079-.658-6.406-.3418-6.393-.0292-6.3685.28-6.333.5855-6.2863.8875-6.2285 1.1859-6.1593 1.4809-6.0792 1.7721-5.9878 2.06-5.8851 2.3443-5.7715 2.6249-5.6465 2.9021-5.5105 3.1757-5.363 3.4458-5.2047 3.7122-5.0351 3.9752-4.8542 4.2346-4.6624 4.4905-1.7453 1.8564-.0646.0764" fill="none"/><path clip-path="url(#a)" d="m1079.2311 666.8676c2.1181.6272 3.3269 2.8528 2.6996 4.971-.6272 2.1182-2.8528 3.3269-4.9711 2.6997-2.1182-.6272-3.3269-2.8528-2.6996-4.971.6272-2.1183 2.8528-3.3269 4.9711-2.6997z" stroke="none"/><path clip-path="url(#a)" d="m1101.2859 626.863 12.4265-5.0577-9.0168-7.9182z" stroke="none"/><path clip-path="url(#a)" d="m1149.9914 713.2356h168.5469v23.6016h-168.5469z" fill="#fff" stroke="none"/><text clip-path="url(#a)" font-family="sans-serif" font-size="16" stroke="none" x="1151.9915" y="731.3215">beast:wasInfluencedBy</text><path clip-path="url(#a)" d="m1074.7627 674.3953-.0396.0919-1.8167 4.8765-2.4917 7.8733-2.0828 7.9358-1.6772 7.984-1.2755 8.0179-.8775 8.0375-.4831 8.0427-.0926 8.0337.2946 8.0103.6777 7.9726 1.0574 7.9207 1.4333 7.8544 1.8056 7.7738 2.1742 7.6788 2.5389 7.5696 2.9002 7.4462 3.2577 7.3082 3.6114 7.1561 3.9615 6.9896 4.308 6.8088 4.6508 6.6137 4.9899 6.4043 5.3252 6.1806 5.6568 5.9426 5.9849 5.6902 6.3093 5.4236 6.6298 5.1425 6.9469 4.8473 7.26 4.5377 7.4801 4.165 7.5998 3.7412 7.7054 3.321 7.7965 2.9046 7.8733 2.4917 7.9357 2.0827 7.9841 1.6772 8.0178 1.2755 8.0374.8775 8.0428.4832 8.0337.0924 8.0103-.2945 7.9727-.6777 7.9207-1.0574 7.8543-1.4334 7.7738-1.8055 7.6789-2.1741 7.5697-2.539 7.446-2.9002 7.3082-3.2576 7.1562-3.6115 6.9896-3.9615 6.8088-4.3081 6.6137-4.6507 6.4043-4.9898 6.1806-5.3252 5.9425-5.6569 5.6902-5.9849 5.4236-6.3093 5.1426-6.6298 4.8473-6.9468 4.5377-7.26 4.165-7.4802 3.7411-7.5999 3.3211-7.7053 2.9045-7.7964 2.4917-7.8733 2.0826-7.9358 1.6773-7.984 1.2756-8.0179.8775-8.0375.4831-8.0427.0926-8.0337-.2946-8.0103-.6777-7.9727-1.0575-7.9207-1.4334-7.8544-1.8055-7.7737-2.1741-7.6789-2.5389-7.5696-2.9002-7.4461-3.2577-7.3083-3.6114-7.156-3.9616-6.9897-4.308-6.8088-4.6507-6.6137-4.9899-6.4043-5.3252-6.1806-5.6568-5.9425-5.985-5.6903-6.3092-5.4235-6.6299-5.1426-6.9468-4.8473-7.26-4.5377-7.4801-4.165-7.6-3.7412-7.7053-3.3209-7.7964-2.9046-7.8733-2.4917-7.9358-2.0827-7.984-1.6772-8.0179-1.2756-8.0375-.8775-8.0427-.4831-8.0337-.0925-8.0103.2945-7.9726.6778-7.9207 1.0574-7.8543 1.4333-7.7738 1.8056-7.6789 2.1741-7.5697 2.539-7.446 2.9001-7.3083 3.2576-7.1561 3.6116-6.9896 3.9615-6.8088 4.308-6.6137 4.6507-6.4043 4.9899-6.1807 5.3252-5.9425 5.6569-2.7888 2.9332-.0652.0758" fill="none"/><path clip-path="url(#a)" d="m1077.6311 666.9273c2.0623.7921 3.0919 3.106 2.2998 5.1683-.7921 2.0622-3.1061 3.0918-5.1682 2.2997-2.0623-.7921-3.0919-3.106-2.2998-5.1682.7921-2.0623 3.1061-3.0919 5.1682-2.2998z" stroke="none"/><path clip-path="url(#a)" d="m1102.4948 626.8614 12.4705-4.9484-8.9469-7.997z" stroke="none"/><path clip-path="url(#a)" d="m1216.375 737.1018h80.4844v23.6016h-80.4844z" fill="#fff" stroke="none"/><text clip-path="url(#a)" font-family="sans-serif" font-size="16" stroke="none" x="1218.375" y="755.1877">beast:cites</text><path clip-path="url(#a)" d="m404.1555 738.1677h557.8631l85.2742-60.969" fill="none"/><path clip-path="url(#a)" d="m396.1555 738.1677c0-2.2091 1.7909-4 4-4 2.2092 0 4 1.7909 4 4 0 2.2092-1.7908 4-4 4-2.2091 0-4-1.7908-4-4z" stroke="none"/><path clip-path="url(#a)" d="m1056.241 670.8011-13.2514 2.0984 6.9794 9.7617z" stroke="none"/><path clip-path="url(#a)" d="m600.0309 726.3669h171.2031v23.6016h-171.2031z" fill="#fff" stroke="none"/><text clip-path="url(#a)" font-family="sans-serif" font-size="16" stroke="none" x="602.0309" y="744.4529">beast:hasOriginContext</text><path clip-path="url(#a)" d="m403.0725 759.8856 298.9459 101.5474" fill="none"/><path clip-path="url(#a)" d="m395.4976 757.3124c.7106-2.0917 2.9823-3.2114 5.074-2.5009 2.0918.7106 3.2115 2.9823 2.5009 5.0741-.7105 2.0917-2.9822 3.2114-5.074 2.5009-2.0917-.7106-3.2114-2.9823-2.5009-5.0741z" stroke="none"/><path clip-path="url(#a)" d="m712.4338 864.971-9.4325-9.5408-3.8596 11.3623z" stroke="none"/><path clip-path="url(#a)" d="m481.0949 799.7378h148.0781v23.6016h-148.0781z" fill="#fff" stroke="none"/><text clip-path="url(#a)" font-family="sans-serif" font-size="16" stroke="none" x="483.0949" y="817.8237">beast:hasEtymology</text><path clip-path="url(#a)" d="m776.1493 912.6454v135.9796h-310.2978" fill="none" stroke="#008000"/></g><path clip-path="url(#a)" d="m776.1493 904.6454c2.2092 0 4 1.7909 4 4 0 2.2092-1.7908 4-4 4s-4-1.7908-4-4c0-2.2091 1.7908-4 4-4z" fill="none" stroke="none"/><g fill="#008000" stroke="#008000" stroke-linecap="butt" stroke-miterlimit="1.45"><path clip-path="url(#a)" d="m776.1493 904.6454c2.2092 0 4 1.7909 4 4 0 2.2092-1.7908 4-4 4s-4-1.7908-4-4c0-2.2091 1.7908-4 4-4z" fill="none"/><path clip-path="url(#a)" d="m450.8515 1048.625 16 6v-12z" fill="#fff" stroke="none"/><path clip-path="url(#a)" d="m450.8515 1048.625 16 6v-12z" fill="none"/><path clip-path="url(#a)" d="m548.9537 1036.8242h144.5078v23.6016h-144.5078z" fill="#fff" stroke="none"/><text clip-path="url(#a)" font-family="sans-serif" font-size="16" stroke="none" x="550.9537" y="1054.9102">beast:hasRootTerm</text><path clip-path="url(#a)" d="m776.1493 912.6495v62.9755h-310.2978" fill="none"/></g><path clip-path="url(#a)" d="m776.1493 904.6495c2.2092 0 4 1.7909 4 4 0 2.2092-1.7908 4-4 4s-4-1.7908-4-4c0-2.2091 1.7908-4 4-4z" fill="none" stroke="none"/><g fill="#008000" stroke="#008000" stroke-linecap="butt" stroke-miterlimit="1.45"><path clip-path="url(#a)" d="m776.1493 904.6495c2.2092 0 4 1.7909 4 4 0 2.2092-1.7908 4-4 4s-4-1.7908-4-4c0-2.2091 1.7908-4 4-4z" fill="none"/><path clip-path="url(#a)" d="m450.8515 975.625 16 6v-12z" fill="#fff" stroke="none"/><path clip-path="url(#a)" d="m450.8515 975.625 16 6v-12z" fill="none"/><path clip-path="url(#a)" d="m553.8287 963.8242h134.7578v23.6016h-134.7578z" fill="#fff" stroke="none"/><text clip-path="url(#a)" font-family="sans-serif" font-size="16" stroke="none" x="555.8287" y="981.9102">beast:hasMeaning</text><path clip-path="url(#a)" d="m1087.0381 622.7927v-340.8854h389.0734" fill="none"/></g><path clip-path="url(#a)" d="m1087.0381 630.7927c-2.2091 0-4-1.7908-4-4 0-2.2091 1.7909-4 4-4s4 1.7909 4 4c0 2.2092-1.7909 4-4 4z" fill="none" stroke="none"/><g fill="#008000" stroke="#008000" stroke-linecap="butt" stroke-miterlimit="1.45"><path clip-path="url(#a)" d="m1087.0381 630.7927c-2.2091 0-4-1.7908-4-4 0-2.2091 1.7909-4 4-4s4 1.7909 4 4c0 2.2092-1.7909 4-4 4z" fill="none"/><path clip-path="url(#a)" d="m1491.1115 281.9073-16-6v12z" fill="#fff" stroke="none"/><path clip-path="url(#a)" d="m1491.1115 281.9073-16-6v12z" fill="none"/><path clip-path="url(#a)" d="m1236.2316 270.1066h90.2422v23.6016h-90.2422z" fill="#fff" stroke="none"/><text clip-path="url(#a)" font-family="sans-serif" font-size="16" stroke="none" x="1238.2316" y="288.1925">dcterms:title</text><path clip-path="url(#a)" d="m1087.0381 622.788v-84.5427h383.7921" fill="none" stroke="#000080"/><g stroke="none"><path clip-path="url(#a)" d="m1087.0381 630.788c-2.2091 0-4-1.7909-4-4 0-2.2092 1.7909-4 4-4s4 1.7908 4 4c0 2.2091-1.7909 4-4 4z" fill="#000080"/><path clip-path="url(#a)" d="m1481.8302 538.2453-12-6v12z" fill="#000080"/><path clip-path="url(#a)" d="m1222.7423 526.4445h114.2656v23.6016h-114.2656z" fill="#fff"/></g></g><text style="stroke:none;clip-path:url(#a);stroke-linecap:butt;font-size:16;fill:#000080;font-family:sans-serif;stroke-miterlimit:1.45" x="1224.7423" y="544.5305">schema:creator</text><path clip-path="url(#a)" d="m1087.0381 622.8137v-276.4926h389.0734" fill="none" stroke="#008000" stroke-linecap="butt" stroke-miterlimit="1.45"/><path clip-path="url(#a)" d="m1087.0381 630.8137c-2.2091 0-4-1.7909-4-4 0-2.2092 1.7909-4 4-4s4 1.7908 4 4c0 2.2091-1.7909 4-4 4z" fill="none" stroke="none"/><g fill="#008000" stroke="#008000" stroke-linecap="butt" stroke-miterlimit="1.45"><path clip-path="url(#a)" d="m1087.0381 630.8137c-2.2091 0-4-1.7909-4-4 0-2.2092 1.7909-4 4-4s4 1.7908 4 4c0 2.2091-1.7909 4-4 4z" fill="none"/><path clip-path="url(#a)" d="m1491.1115 346.3211-16-6v12z" fill="#fff" stroke="none"/><path clip-path="url(#a)" d="m1491.1115 346.3211-16-6v12z" fill="none"/><path clip-path="url(#a)" d="m1205.0871 334.5203h152.5312v23.6016h-152.5312z" fill="#fff" stroke="none"/><text clip-path="url(#a)" font-family="sans-serif" font-size="16" stroke="none" x="1207.087" y="352.6062">schema:dateCreated</text><path clip-path="url(#a)" d="m1087.0381 622.7847v-212.0499h389.0734" fill="none"/></g><path clip-path="url(#a)" d="m1087.0381 630.7847c-2.2091 0-4-1.7909-4-4 0-2.2092 1.7909-4 4-4s4 1.7908 4 4c0 2.2091-1.7909 4-4 4z" fill="none" stroke="none"/><g fill="#008000" stroke="#008000" stroke-linecap="butt" stroke-miterlimit="1.45"><path clip-path="url(#a)" d="m1087.0381 630.7847c-2.2091 0-4-1.7909-4-4 0-2.2092 1.7909-4 4-4s4 1.7908 4 4c0 2.2091-1.7909 4-4 4z" fill="none"/><path clip-path="url(#a)" d="m1491.1115 410.7348-16-6v12z" fill="#fff" stroke="none"/><path clip-path="url(#a)" d="m1491.1115 410.7348-16-6v12z" fill="none"/><path clip-path="url(#a)" d="m1183.3058 398.934h196.0938v23.6016h-196.0938z" fill="#fff" stroke="none"/><text clip-path="url(#a)" font-family="sans-serif" font-size="16" stroke="none" x="1185.3058" y="417.02">schema:temporalCoverage</text><path clip-path="url(#a)" d="m1087.0381 670.8177v306.7756h189.5924" fill="none" stroke="#000"/><path clip-path="url(#a)" d="m1284.6305 977.5933-12-5 3 5-3 5z" fill="#000" stroke="none"/><path clip-path="url(#a)" d="m1085.0381 826.7501h4v4h-4z" fill="#fff" stroke="none"/><path clip-path="url(#a)" d="m1341.3472 1003.5708v85.0332" fill="none" stroke="#000080"/><g stroke="none"><path clip-path="url(#a)" d="m1341.3472 995.5708c2.2091 0 4 1.7908 4 4s-1.7909 4-4 4-4-1.7908-4-4 1.7909-4 4-4z" fill="#000080"/><path clip-path="url(#a)" d="m1341.3472 1099.604 6-12h-12z" fill="#000080"/><path clip-path="url(#a)" d="m1257.9722 1037.8084h166.75v23.6016h-166.75z" fill="#fff"/></g></g><text style="stroke:none;clip-path:url(#a);stroke-linecap:butt;font-size:16;fill:#000080;font-family:sans-serif;stroke-miterlimit:1.45" x="1259.9722" y="1055.8943">beast:hasBestiaryType</text><path clip-path="url(#a)" d="m760.9429 623.355-50.8993-85.1097h-226.0233" fill="none" stroke="#008000" stroke-linecap="butt" stroke-miterlimit="1.45"/><path clip-path="url(#a)" d="m765.049 630.2209c-1.8959 1.1338-4.3521.516-5.486-1.3799-1.1338-1.8959-.516-4.3521 1.3799-5.486 1.896-1.1338 4.3521-.516 5.486 1.3799 1.1338 1.896.516 4.3521-1.3799 5.486z" fill="none" stroke="none"/><g fill="#008000" stroke="#008000" stroke-linecap="butt" stroke-miterlimit="1.45"><path clip-path="url(#a)" d="m765.049 630.2209c-1.8959 1.1338-4.3521.516-5.486-1.3799-1.1338-1.8959-.516-4.3521 1.3799-5.486 1.896-1.1338 4.3521-.516 5.486 1.3799 1.1338 1.896.516 4.3521-1.3799 5.486z" fill="none"/><path clip-path="url(#a)" d="m469.0203 538.2453 16 6v-12z" fill="#fff" stroke="none"/><path clip-path="url(#a)" d="m469.0203 538.2453 16 6v-12z" fill="none"/><path clip-path="url(#a)" d="m516.5455 526.4445h161.4062v23.6016h-161.4062z" fill="#fff" stroke="none"/><text clip-path="url(#a)" font-family="sans-serif" font-size="16" stroke="none" x="518.5455" y="544.5305">beast:hasSourceTerm</text><path clip-path="url(#a)" d="m1087.0381 622.781v-147.6325h389.0734" fill="none"/></g><path clip-path="url(#a)" d="m1087.0381 630.781c-2.2091 0-4-1.7908-4-4s1.7909-4 4-4 4 1.7908 4 4-1.7909 4-4 4z" fill="none" stroke="none"/><g fill="#008000" stroke="#008000" stroke-linecap="butt" stroke-miterlimit="1.45"><path clip-path="url(#a)" d="m1087.0381 630.781c-2.2091 0-4-1.7908-4-4s1.7909-4 4-4 4 1.7908 4 4-1.7909 4-4 4z" fill="none"/><path clip-path="url(#a)" d="m1491.1115 475.1485-16-6v12z" fill="#fff" stroke="none"/><path clip-path="url(#a)" d="m1491.1115 475.1485-16-6v12z" fill="none"/><path clip-path="url(#a)" d="m1215.7589 463.3477h131.1875v23.6016h-131.1875z" fill="#fff" stroke="none"/><text clip-path="url(#a)" font-family="sans-serif" font-size="16" stroke="none" x="1217.7589" y="481.4337">dcterms:language</text><path clip-path="url(#a)" d="m776.1493 912.6177v209.0073h-310.2978" fill="none"/></g><path clip-path="url(#a)" d="m776.1493 904.6177c2.2092 0 4 1.7909 4 4 0 2.2092-1.7908 4-4 4s-4-1.7908-4-4c0-2.2091 1.7908-4 4-4z" fill="none" stroke="none"/><g fill="#008000" stroke="#008000" stroke-linecap="butt" stroke-miterlimit="1.45"><path clip-path="url(#a)" d="m776.1493 904.6177c2.2092 0 4 1.7909 4 4 0 2.2092-1.7908 4-4 4s-4-1.7908-4-4c0-2.2091 1.7908-4 4-4z" fill="none"/><path clip-path="url(#a)" d="m450.8515 1121.625 16 6v-12z" fill="#fff" stroke="none"/><path clip-path="url(#a)" d="m450.8515 1121.625 16 6v-12z" fill="none"/><path clip-path="url(#a)" d="m555.6139 1109.8242h131.1875v23.6016h-131.1875z" fill="#fff" stroke="none"/><text clip-path="url(#a)" font-family="sans-serif" font-size="16" stroke="none" x="557.6139" y="1127.9102">dcterms:language</text><path clip-path="url(#a)" d="m776.1493 622.7797v-203.6059h-254.6561" fill="none" stroke="#000080"/><g stroke="none"><path clip-path="url(#a)" d="m776.1493 630.7797c-2.2092 0-4-1.7909-4-4 0-2.2092 1.7908-4 4-4s4 1.7908 4 4c0 2.2091-1.7908 4-4 4z" fill="#000080"/><path clip-path="url(#a)" d="m510.4932 419.1738 12 6v-12z" fill="#000080"/><path clip-path="url(#a)" d="m548.059 407.373h199.6719v23.6016h-199.6719z" fill="#fff"/></g></g><g style="stroke-linecap:butt;font-size:16;fill:#000080;font-family:sans-serif;stroke:#000080;stroke-miterlimit:1.45"><text clip-path="url(#a)" stroke="none" x="550.059" y="425.459">beast:hasTextualReference</text><path clip-path="url(#a)" d="m449.5314 393.1648v-45.6514h322.8949l283.6817 271.6502" fill="none"/><g stroke="none"><path clip-path="url(#a)" d="m449.5314 401.1648c-2.2091 0-4-1.7908-4-4 0-2.2091 1.7909-4 4-4 2.2092 0 4 1.7909 4 4 0 2.2092-1.7908 4-4 4z"/><path clip-path="url(#a)" d="m1064.0529 626.7715-4.5174-12.633-8.2994 8.667z"/></g></g><path clip-path="url(#a)" d="m838.1172 470.7844h150.7266v23.6016h-150.7266z" fill="#fff" stroke="none"/><text style="stroke:none;clip-path:url(#a);stroke-linecap:butt;font-size:16;fill:#000080;font-family:sans-serif;stroke-miterlimit:1.45" x="840.1172" y="488.8703">beast:extractedFrom</text><path clip-path="url(#a)" d="m449.5314 393.1844v-246.5335h-333.5874" fill="none" stroke="#008000" stroke-linecap="butt" stroke-miterlimit="1.45"/><path clip-path="url(#a)" d="m449.5314 401.1844c-2.2091 0-4-1.7909-4-4 0-2.2092 1.7909-4 4-4 2.2092 0 4 1.7908 4 4 0 2.2091-1.7908 4-4 4z" fill="none" stroke="none"/><g fill="#008000" stroke="#008000" stroke-linecap="butt" stroke-miterlimit="1.45"><path clip-path="url(#a)" d="m449.5314 401.1844c-2.2091 0-4-1.7909-4-4 0-2.2092 1.7909-4 4-4 2.2092 0 4 1.7908 4 4 0 2.2091-1.7908 4-4 4z" fill="none"/><path clip-path="url(#a)" d="m100.944 146.6509 16 6v-12z" fill="#fff" stroke="none"/><path clip-path="url(#a)" d="m100.944 146.6509 16 6v-12z" fill="none"/><path clip-path="url(#a)" d="m217.3534 134.8501h131.1875v23.6016h-131.1875z" fill="#fff" stroke="none"/><text clip-path="url(#a)" font-family="sans-serif" font-size="16" stroke="none" x="219.3533" y="152.9361">dcterms:language</text><path clip-path="url(#a)" d="m449.5314 393.1986v-65.6852h-294.0033" fill="none"/></g><path clip-path="url(#a)" d="m449.5314 401.1986c-2.2091 0-4-1.7909-4-4s1.7909-4 4-4c2.2092 0 4 1.7909 4 4s-1.7908 4-4 4z" fill="none" stroke="none"/><g fill="#008000" stroke="#008000" stroke-linecap="butt" stroke-miterlimit="1.45"><path clip-path="url(#a)" d="m449.5314 401.1986c-2.2091 0-4-1.7909-4-4s1.7909-4 4-4c2.2092 0 4 1.7909 4 4s-1.7908 4-4 4z" fill="none"/><path clip-path="url(#a)" d="m140.5281 327.5134 16 6v-12z" fill="#fff" stroke="none"/><path clip-path="url(#a)" d="m140.5281 327.5134 16 6v-12z" fill="none"/><path clip-path="url(#a)" d="m201.5379 315.7126h206.8125v23.6016h-206.8125z" fill="#fff" stroke="none"/><text clip-path="url(#a)" font-family="sans-serif" font-size="16" stroke="none" x="203.5379" y="333.7986">beast:hasSequenceIdentifier</text><path clip-path="url(#a)" d="m449.5314 393.1437v-160.7925h-333.5874" fill="none"/></g><path clip-path="url(#a)" d="m449.5314 401.1437c-2.2091 0-4-1.7909-4-4s1.7909-4 4-4c2.2092 0 4 1.7909 4 4s-1.7908 4-4 4z" fill="none" stroke="none"/><g fill="#008000" stroke="#008000" stroke-linecap="butt" stroke-miterlimit="1.45"><path clip-path="url(#a)" d="m449.5314 401.1437c-2.2091 0-4-1.7909-4-4s1.7909-4 4-4c2.2092 0 4 1.7909 4 4s-1.7908 4-4 4z" fill="none"/><path clip-path="url(#a)" d="m100.944 232.3512 16 6v-12z" fill="#fff" stroke="none"/><path clip-path="url(#a)" d="m100.944 232.3512 16 6v-12z" fill="none"/><g stroke="none"><path clip-path="url(#a)" d="m199.5643 220.5504h166.7656v23.6016h-166.7656z" fill="#fff"/><text clip-path="url(#a)" font-family="sans-serif" font-size="16" x="201.5643" y="238.6363">beast:hasPassageText</text></g></g></g><path clip-path="url(#b)" d="m1268.4876 11.5045h342.3997v135.0686h-342.3997z" fill="#d2d2d2" stroke="none" transform="translate(82 64)"/><g fill="#fff" stroke="none" transform="translate(78 60)"><path clip-path="url(#a)" d="m1268.4876 11.5045h342.3997v135.0686h-342.3997z"/><path clip-path="url(#a)" d="m1268.4876 11.5045h342.3997v22.3765h-342.3997z" fill="#b7b69e"/></g><g font-family="sans-serif" font-size="15" font-weight="bold" stroke-linecap="butt" stroke-miterlimit="1.45" transform="translate(78 60)"><g stroke="none"><text clip-path="url(#a)" x="1538.0109" xml:space="preserve" y="28.585">Prefixes   </text><text clip-path="url(#a)" font-size="12" font-weight="normal" x="1287.5282" y="63.2165">@prefix beast: &lt;https://w3id.org/beast/ontology#&gt; .</text><text clip-path="url(#a)" font-size="12" font-weight="normal" x="1287.5282" y="77.9177">@prefix dcterms: &lt;http://purl.org/dc/terms/&gt; .</text><text clip-path="url(#a)" font-size="12" font-weight="normal" x="1287.5282" y="92.6189">@prefix schema: &lt;https://schema.org/&gt; .</text><text clip-path="url(#a)" font-size="12" font-weight="normal" x="1287.5282" y="107.32">@prefix rdfs: &lt;http://www.w3.org/2000/01/rdf-schema#&gt; .</text><text clip-path="url(#a)" font-size="12" font-weight="normal" x="1287.5282" y="122.0212">@prefix xsd: &lt;http://www.w3.org/2001/XMLSchema#&gt; .</text></g><path clip-path="url(#a)" d="m1268.4876 11.5045h342.3997v135.0686h-342.3997z" fill="none"/></g></g></svg>