<svg height="1041" style="color-interpolation:auto;stroke:#000;stroke-linecap:square;stroke-miterlimit:10;font-family:'Dialog';font-size:12" width="2326" xmlns="http://www.w3.org/2000/svg" xmlns:xlink="http://www.w3.org/1999/xlink"><clipPath id="a"><path color-interpolation="auto" d="m-13 277h2326v1041h-2326z"/></clipPath><g shape-rendering="geometricPrecision" text-rendering="geometricPrecision" transform="translate(13 -277)"><path clip-path="url(#a)" d="m-13 277h2326v1041h-2326z" fill="#fff" stroke="none"/><rect clip-path="url(#a)" fill="#ff0" height="44" rx="4" stroke="none" width="132.9682" x="1017.635" y="946.0272"/><g font-family="sans-serif" font-size="16" stroke-linecap="butt" stroke-miterlimit="1.45"><text clip-path="url(#a)" stroke="none" x="1027.2363" y="974.0741">beast:Creature</text><rect clip-path="url(#a)" fill="none" height="44" rx="4" width="132.9682" x="1017.635" y="946.0272"/></g><rect clip-path="url(#a)" fill="#ff0" height="44" rx="4" stroke="none" width="144.9682" x="803.0546" y="579.9249"/><g font-family="sans-serif" font-size="16" stroke-linecap="butt" stroke-miterlimit="1.45"><text clip-path="url(#a)" stroke="none" x="808.7849" y="607.9717">beast:RealAnimal</text><rect clip-path="url(#a)" fill="none" height="44" rx="4" width="144.9682" x="803.0546" y="579.9249"/></g><rect clip-path="url(#a)" fill="#ff0" height="44" rx="4" stroke="none" width="177.9682" x="786.5546" y="672.9819"/><g font-family="sans-serif" font-size="16" stroke-linecap="butt" stroke-miterlimit="1.45"><text clip-path="url(#a)" stroke="none" x="789.8434" xml:space="preserve" y="701.0288">beast:ImaginaryBeing </text><rect clip-path="url(#a)" fill="none" height="44" rx="4" width="177.9682" x="786.5546" y="672.9819"/></g><rect clip-path="url(#a)" fill="#ff0" height="44" rx="4" stroke="none" width="177.9682" x="1700.6388" y="998.6449"/><g font-family="sans-serif" font-size="16" stroke-linecap="butt" stroke-miterlimit="1.45"><text clip-path="url(#a)" stroke="none" x="1709.5643" y="1026.6918">beast:realWorldPlace</text><rect clip-path="url(#a)" fill="none" height="44" rx="4" width="177.9682" x="1700.6388" y="998.6449"/></g><rect clip-path="url(#a)" fill="#ff0" height="44" rx="4" stroke="none" width="211.0053" x="383.6862" y="672.9819"/><g font-family="sans-serif" font-size="16" stroke-linecap="butt" stroke-miterlimit="1.45"><text clip-path="url(#a)" stroke="none" x="390.599" y="701.0288">beast:CompositeCreature</text><rect clip-path="url(#a)" fill="none" height="44" rx="4" width="211.0053" x="383.6862" y="672.9819"/></g><rect clip-path="url(#a)" fill="#ff0" height="44" rx="4" stroke="none" width="111.746" x="1159.5801" y="1096.8004"/><g font-family="sans-serif" font-size="16" stroke-linecap="butt" stroke-miterlimit="1.45"><text clip-path="url(#a)" stroke="none" x="1167.2773" y="1124.8473">beast:Ability</text><rect clip-path="url(#a)" fill="none" height="44" rx="4" width="111.746" x="1159.5801" y="1096.8004"/></g><rect clip-path="url(#a)" fill="#ff0" height="44" rx="4" stroke="none" width="111.746" x="1378.7143" y="946.0272"/><g font-family="sans-serif" font-size="16" stroke-linecap="butt" stroke-miterlimit="1.45"><text clip-path="url(#a)" stroke="none" x="1383.0287" y="974.0741">beast:Habitat</text><rect clip-path="url(#a)" fill="none" height="44" rx="4" width="111.746" x="1378.7143" y="946.0272"/></g><path clip-path="url(#a)" d="m1422.756 776.5567h113.4855l-12.6095 43h-113.4855z" fill="#cfc" fill-rule="evenodd" stroke="none"/><g font-family="sans-serif" font-size="16" stroke-linecap="butt" stroke-miterlimit="1.45"><text clip-path="url(#a)" stroke="none" x="1431.3033" y="804.1036">rdfs:Literal</text><path clip-path="url(#a)" d="m1422.756 776.5567h113.4855l-12.6095 43h-113.4855z" fill="none"/></g><rect clip-path="url(#a)" fill="#ff0" height="44" rx="4" stroke="none" width="95.6757" x="663.6616" y="1006.4585"/><g font-family="sans-serif" font-size="16" stroke-linecap="butt" stroke-miterlimit="1.45"><text clip-path="url(#a)" stroke="none" x="672.2338" y="1034.5054">beast:Diet</text><rect clip-path="url(#a)" fill="none" height="44" rx="4" width="95.6757" x="663.6616" y="1006.4585"/></g><rect clip-path="url(#a)" fill="#ff0" height="44" rx="4" stroke="none" width="177.9682" x="1661.426" y="835.53"/><g font-family="sans-serif" font-size="16" stroke-linecap="butt" stroke-miterlimit="1.45"><text clip-path="url(#a)" stroke="none" x="1668.8633" y="863.5768">beast:ImaginaryPlace</text><rect clip-path="url(#a)" fill="none" height="44" rx="4" width="177.9682" x="1661.426" y="835.53"/></g><circle clip-path="url(#a)" cx="1643.7146" cy="1205.3729" fill="#f9c" r="10" stroke="none"/><g font-family="sans-serif" font-size="16" stroke-linecap="butt" stroke-miterlimit="1.45"><text clip-path="url(#a)" stroke="none" x="1580.2966" y="1236.8417">beast:Terrestrial</text><circle clip-path="url(#a)" cx="1643.7146" cy="1205.3729" fill="none" r="10" stroke-width="3"/></g><circle clip-path="url(#a)" cx="1789.6229" cy="1205.3729" fill="#f9c" r="10" stroke="none"/><g font-family="sans-serif" font-size="16" stroke-linecap="butt" stroke-miterlimit="1.45"><text clip-path="url(#a)" stroke="none" x="1732.6737" y="1236.8417">beast:Acquatic</text><circle clip-path="url(#a)" cx="1789.6229" cy="1205.3729" fill="none" r="10" stroke-width="3"/></g><circle clip-path="url(#a)" cx="1935.5311" cy="1205.3729" fill="#f9c" r="10" stroke="none"/><g font-family="sans-serif" font-size="16" stroke-linecap="butt" stroke-miterlimit="1.45"><text clip-path="url(#a)" stroke="none" x="1889.7264" y="1236.8417">beast:Aerial</text><circle clip-path="url(#a)" cx="1935.5311" cy="1205.3729" fill="none" r="10" stroke-width="3"/></g><circle clip-path="url(#a)" cx="990.5915" cy="1075.9976" fill="#f9c" r="10" stroke="none"/><g font-family="sans-serif" font-size="16" stroke-linecap="butt" stroke-miterlimit="1.45"><text clip-path="url(#a)" stroke="none" x="927.9744" y="1107.4663">beast:Scavenger</text><circle clip-path="url(#a)" cx="990.5915" cy="1075.9976" fill="none" r="10" stroke-width="3"/></g><circle clip-path="url(#a)" cx="930.5451" cy="1146.1467" fill="#f9c" r="10" stroke="none"/><g font-family="sans-serif" font-size="16" stroke-linecap="butt" stroke-miterlimit="1.45"><text clip-path="url(#a)" stroke="none" x="869.3146" y="1177.6155">beast:Elemental</text><circle clip-path="url(#a)" cx="930.5451" cy="1146.1467" fill="none" r="10" stroke-width="3"/></g><circle clip-path="url(#a)" cx="843.6985" cy="1227.8244" fill="#f9c" r="10" stroke="none"/><g font-family="sans-serif" font-size="16" stroke-linecap="butt" stroke-miterlimit="1.45"><text clip-path="url(#a)" stroke="none" x="767.3743" y="1259.2931">beast:Lithophagous</text><circle clip-path="url(#a)" cx="843.6985" cy="1227.8244" fill="none" r="10" stroke-width="3"/></g><circle clip-path="url(#a)" cx="583.4359" cy="1227.8244" fill="#f9c" r="10" stroke="none"/><g font-family="sans-serif" font-size="16" stroke-linecap="butt" stroke-miterlimit="1.45"><text clip-path="url(#a)" stroke="none" x="496.4319" y="1259.2931">beast:Hematophagous</text><circle clip-path="url(#a)" cx="583.4359" cy="1227.8244" fill="none" r="10" stroke-width="3"/></g><rect clip-path="url(#a)" fill="#ff0" height="44" rx="4" stroke="none" width="177.9682" x="400.2047" y="399.535"/><g font-family="sans-serif" font-size="16" stroke-linecap="butt" stroke-miterlimit="1.45"><text clip-path="url(#a)" stroke="none" x="407.1537" y="427.5819">beast:AnatomicalPart</text><rect clip-path="url(#a)" fill="none" height="44" rx="4" width="177.9682" x="400.2047" y="399.535"/></g><rect clip-path="url(#a)" fill="#ff0" height="44" rx="4" stroke="none" width="189.7834" x="2.0396" y="603.7655"/><g font-family="sans-serif" font-size="16" stroke-linecap="butt" stroke-miterlimit="1.45"><text clip-path="url(#a)" stroke="none" x="4.1306" y="631.8124">beast:InanimateElement</text><rect clip-path="url(#a)" fill="none" height="44" rx="4" width="189.7834" x="2.0396" y="603.7655"/></g><rect clip-path="url(#a)" fill="#ff0" height="44" rx="4" stroke="none" width="111.746" x="41.0583" y="751.222"/><g font-family="sans-serif" font-size="16" stroke-linecap="butt" stroke-miterlimit="1.45"><text clip-path="url(#a)" stroke="none" x="54.3102" y="779.2689">beast:Plant</text><rect clip-path="url(#a)" fill="none" height="44" rx="4" width="111.746" x="41.0583" y="751.222"/></g><rect clip-path="url(#a)" fill="#ff0" height="44" rx="4" stroke="none" width="177.9682" x="565.0453" y="869.4898"/><g font-family="sans-serif" font-size="16" stroke-linecap="butt" stroke-miterlimit="1.45"><text clip-path="url(#a)" stroke="none" x="571.4318" y="897.5366">beast:HybridCreature</text><rect clip-path="url(#a)" fill="none" height="44" rx="4" width="177.9682" x="565.0453" y="869.4898"/></g><circle clip-path="url(#a)" cx="447.9437" cy="1065.582" fill="#f9c" r="10" stroke="none"/><g font-family="sans-serif" font-size="16" stroke-linecap="butt" stroke-miterlimit="1.45"><text clip-path="url(#a)" stroke="none" x="377.1859" y="1097.0508">beast:Omnivorous</text><circle clip-path="url(#a)" cx="447.9437" cy="1065.582" fill="none" r="10" stroke-width="3"/></g><circle clip-path="url(#a)" cx="502.9191" cy="1146.1467" fill="#f9c" r="10" stroke="none"/><g font-family="sans-serif" font-size="16" stroke-linecap="butt" stroke-miterlimit="1.45"><text clip-path="url(#a)" stroke="none" x="432.6183" y="1177.6155">beast:Carnivorous</text><circle clip-path="url(#a)" cx="502.9191" cy="1146.1467" fill="none" r="10" stroke-width="3"/></g><circle clip-path="url(#a)" cx="711.4994" cy="1265.1646" fill="#f9c" r="10" stroke="none"/><g font-family="sans-serif" font-size="16" stroke-linecap="butt" stroke-miterlimit="1.45"><text clip-path="url(#a)" stroke="none" x="646.7455" y="1296.6333">beast:Erbivorous</text><circle clip-path="url(#a)" cx="711.4994" cy="1265.1646" fill="none" r="10" stroke-width="3"/></g><rect clip-path="url(#a)" fill="#ff0" height="53.0108" rx="4" stroke="none" width="126.095" x="1803.1682" y="687.1694"/><g font-family="sans-serif" font-size="16" stroke-linecap="butt" stroke-miterlimit="1.45"><text clip-path="url(#a)" stroke="none" x="1816.6884" y="719.7217">beast:Source</text><rect clip-path="url(#a)" fill="none" height="53.0108" rx="4" width="126.095" x="1803.1682" y="687.1694"/></g><rect clip-path="url(#a)" fill="#ff0" height="44" rx="4" stroke="none" width="188.0716" x="2109.7604" y="998.6449"/><g font-family="sans-serif" font-size="16" stroke-linecap="butt" stroke-miterlimit="1.45"><text clip-path="url(#a)" stroke="none" x="2116.3352" y="1026.6918">beast:GeographicPlace</text><rect clip-path="url(#a)" fill="none" height="44" rx="4" width="188.0716" x="2109.7604" y="998.6449"/></g><g fill="#000080" stroke="#000080" stroke-linecap="butt" stroke-miterlimit="1.45"><path clip-path="url(#a)" d="m952.0435 601.9249h102.2909v333.0971" fill="none"/><path clip-path="url(#a)" d="m944.0435 601.9249c0-2.2092 1.7909-4 4-4 2.2092 0 4 1.7908 4 4 0 2.2091-1.7908 4-4 4-2.2091 0-4-1.7909-4-4z" stroke="none"/><path clip-path="url(#a)" d="m1054.3344 946.022 6-12h-12z" stroke="none"/><path clip-path="url(#a)" d="m968.5059 694.9819h85.5774v240.0031" fill="none"/><g stroke="none"><path clip-path="url(#a)" d="m960.5059 694.9819c0-2.2091 1.7908-4 4-4 2.2091 0 4 1.7909 4 4 0 2.2092-1.7909 4-4 4-2.2092 0-4-1.7908-4-4z"/><path clip-path="url(#a)" d="m1054.0833 945.985 6-12h-12z"/><path clip-path="url(#a)" d="m990.5676 804.5202h127.0312v22.8438h-127.0312z" fill="#fff"/><text clip-path="url(#a)" font-family="sans-serif" font-size="16" x="992.5676" y="821.989">rdfs:subClassOf</text></g><path clip-path="url(#a)" d="m1810.59 1045.0371 1.8768 1.4129 5.7707 3.5242 6.0607 2.9435 6.3031 2.3473 6.4981 1.7362 6.6456 1.1099 6.7456.4682 6.7982-.1882 6.8032-.86 6.7609-1.5468 6.671-2.2491 6.5338-2.9662 6.2017-3.6091 5.6965-4.1365 5.1762-4.6163 4.6406-5.0485 4.0901-5.4334 3.5243-5.7708 2.9435-6.0606 2.3473-6.3032 1.7362-6.498 1.1098-6.6456.4683-6.7456-.1882-6.7982-.86-6.8032-1.5469-6.7609-2.249-6.6711-2.9662-6.5337-3.6091-6.2017-4.1365-5.6965-4.6164-5.1762-5.0484-4.6406-5.4335-4.0901-5.7707-3.5243-6.0607-2.9434-6.3031-2.3474-6.4981-1.7361-6.6456-1.1099-6.7456-.4683-6.7981.1882-6.8033.8601-6.7609 1.5468-6.671 2.249-6.5337 2.9662-6.2018 3.6092-5.6964 4.1364-5.1763 4.6163-4.6406 5.0485-4.0901 5.4335-3.5243 5.7707-2.9435 6.0607-2.3472 6.3031-1.7363 6.4981-1.1097 6.6456-.4684 6.7456.0161.5823.0126.0992" fill="none"/><path clip-path="url(#a)" d="m1804.1986 1040.2258c1.3286-1.765 3.8364-2.1186 5.6013-.79 1.765 1.3286 2.1187 3.8364.7901 5.6013-1.3286 1.765-3.8365 2.1187-5.6014.79-1.765-1.3286-2.1186-3.8364-.79-5.6013z" stroke="none"/><path clip-path="url(#a)" d="m1782.6091 998.7324 5.1477-12.3895-11.9707.8376z" stroke="none"/><path clip-path="url(#a)" d="m1794.6421 961.5052h174.8047v22.8438h-174.8047z" fill="#fff" stroke="none"/><text clip-path="url(#a)" font-family="sans-serif" font-size="16" stroke="none" x="1796.6421" y="978.974">beast:habitatCategory</text><path clip-path="url(#a)" d="m503.0912 669.4543 36.7767-67.5294h252.1853" fill="none"/><path clip-path="url(#a)" d="m499.265 676.4801c-1.9401-1.0566-2.6563-3.4858-1.5997-5.426 1.0565-1.94 3.4858-2.6563 5.4259-1.5998 1.9401 1.0566 2.6563 3.4859 1.5997 5.426-1.0565 1.9401-3.4858 2.6563-5.4259 1.5998z" stroke="none"/><path clip-path="url(#a)" d="m803.0532 601.9249-12-6v12z" stroke="none"/><path clip-path="url(#a)" d="m563.2074 590.503h207.3828v22.8438h-207.3828z" fill="#fff" stroke="none"/><text clip-path="url(#a)" font-family="sans-serif" font-size="16" stroke="none" x="565.2074" y="607.9717">beast:hasPartDerivedFrom</text><path clip-path="url(#a)" d="m598.7133 694.9819h176.7992" fill="none"/><path clip-path="url(#a)" d="m590.7133 694.9819c0-2.2091 1.7908-4 4-4 2.2091 0 4 1.7909 4 4 0 2.2092-1.7909 4-4 4-2.2092 0-4-1.7908-4-4z" stroke="none"/><path clip-path="url(#a)" d="m786.5125 694.9819-12-6v12z" stroke="none"/><path clip-path="url(#a)" d="m627.1074 683.56h127.0312v22.8438h-127.0312z" fill="#fff" stroke="none"/><text clip-path="url(#a)" font-family="sans-serif" font-size="16" stroke="none" x="629.1074" y="701.0288">rdfs:subClassOf</text><path clip-path="url(#a)" d="m1105.8885 993.0189 83.1935 95.5071" fill="none"/><path clip-path="url(#a)" d="m1100.6339 986.9865c1.6658-1.451 4.1925-1.2769 5.6434.3889 1.4511 1.6657 1.277 4.1924-.3888 5.6435-1.6657 1.4509-4.1925 1.2769-5.6434-.3889-1.451-1.6658-1.277-4.1924.3888-5.6435z" stroke="none"/><path clip-path="url(#a)" d="m1196.3071 1096.8206-3.3575-12.9895-9.0486 7.8818z" stroke="none"/><path clip-path="url(#a)" d="m1086.1494 1031.9919h127.2734v22.8438h-127.2734z" fill="#fff" stroke="none"/><text clip-path="url(#a)" font-family="sans-serif" font-size="16" stroke="none" x="1088.1494" y="1049.4607">beast:hasAbility</text><path clip-path="url(#a)" d="m1154.6448 968.0272h213.1037" fill="none"/><path clip-path="url(#a)" d="m1146.6448 968.0272c0-2.2091 1.7909-4 4-4s4 1.7909 4 4c0 2.2092-1.7909 4-4 4s-4-1.7908-4-4z" stroke="none"/><path clip-path="url(#a)" d="m1378.7485 968.0272-12-6v12z" stroke="none"/><path clip-path="url(#a)" d="m1197.6392 956.6053h134.0391v22.8438h-134.0391z" fill="#fff" stroke="none"/><text clip-path="url(#a)" font-family="sans-serif" font-size="16" stroke="none" x="1199.6392" y="974.0741">beast:hasHabitat</text><path clip-path="url(#a)" d="m1696.6906 1006.8719-195.3274-28.9483" fill="none"/><path clip-path="url(#a)" d="m1704.6041 1008.0447c-.3238 2.1853-2.3579 3.6943-4.5432 3.3704-2.1852-.3239-3.6942-2.3578-3.3703-4.5432.3238-2.1853 2.3579-3.6942 4.5432-3.3704 2.1851.3239 3.6942 2.3579 3.3703 4.5432z" stroke="none"/><path clip-path="url(#a)" d="m1490.4821 976.311 10.9907 7.6944 1.7593-11.8703z" stroke="none"/><path clip-path="url(#a)" d="m1532.0339 980.4606h127.0312v22.8438h-127.0312z" fill="#fff" stroke="none"/><text clip-path="url(#a)" font-family="sans-serif" font-size="16" stroke="none" x="1534.0339" y="997.9293">rdfs:subClassOf</text><path clip-path="url(#a)" d="m1154.1707 966.1625 264.9209-139.5971" fill="none" stroke="#008000"/></g><path clip-path="url(#a)" d="m1147.093 969.892c-1.0298-1.9544-.2803-4.3737 1.6741-5.4035 1.9545-1.0299 4.3736-.2804 5.4036 1.674 1.0297 1.9544.2802 4.3736-1.6741 5.4035-1.9545 1.0298-4.3737.2803-5.4036-1.674z" fill="none" stroke="none"/><g fill="#008000" stroke="#008000" stroke-linecap="butt" stroke-miterlimit="1.45"><path clip-path="url(#a)" d="m1147.093 969.892c-1.0298-1.9544-.2803-4.3737 1.6741-5.4035 1.9545-1.0299 4.3736-.2804 5.4036 1.674 1.0297 1.9544.2802 4.3736-1.6741 5.4035-1.9545 1.0298-4.3737.2803-5.4036-1.674z" fill="none"/><path clip-path="url(#a)" d="m1432.3619 819.5727-16.9521 2.1507 5.5942 10.6163z" fill="#fff" stroke="none"/><path clip-path="url(#a)" d="m1432.3619 819.5727-16.9521 2.1507 5.5942 10.6163z" fill="none"/><path clip-path="url(#a)" d="m1184.3353 884.536h206.1328v22.8438h-206.1328z" fill="#fff" stroke="none"/><text clip-path="url(#a)" font-family="sans-serif" font-size="16" stroke="none" x="1186.3353" y="902.0048">beast:hasAlternativeName</text><path clip-path="url(#a)" d="m1013.6643 968.0272h-302.1649v27.4482" fill="none" stroke="#000080"/><g stroke="none"><path clip-path="url(#a)" d="m1021.6643 968.0272c0 2.2092-1.7908 4-4 4s-4-1.7908-4-4c0-2.2091 1.7908-4 4-4s4 1.7909 4 4z" fill="#000080"/><path clip-path="url(#a)" d="m711.4994 1006.4754 6-12h-12z" fill="#000080"/><path clip-path="url(#a)" d="m805.2781 956.6053h109.4531v22.8438h-109.4531z" fill="#fff"/></g></g><g style="stroke-linecap:butt;font-size:16;fill:#000080;font-family:sans-serif;stroke:#000080;stroke-miterlimit:1.45"><text clip-path="url(#a)" stroke="none" x="807.2781" y="974.0741">beast:hasDiet</text><path clip-path="url(#a)" d="m720.0693 1002.5646.0191-.0981.3033-3.1862-.0127-5.9847-.5851-5.9345-1.1469-5.8415-1.6983-5.7057-2.239-5.527-2.7692-5.3055-3.2889-5.0412-3.798-4.7341-4.2967-4.3842-4.7846-3.9915-5.262-3.5558-5.5935-3.0077-5.7574-2.3825-5.8785-1.7679-5.9566-1.1638-5.9921-.5703-5.9848.0126-5.9345.5851-5.8415 1.1469-5.7057 1.6983-5.527 2.239-5.3055 2.7693-5.0412 3.2888-4.7341 3.7981-4.3842 4.2965-3.9914 4.7846-3.5559 5.2621-3.0077 5.5935-2.3825 5.7574-1.7679 5.8784-1.1638 5.9568-.5703 5.9921.0126 5.9847.5851 5.9345 1.1469 5.8415 1.6983 5.7057 2.239 5.527 2.7693 5.3055 3.2889 5.0412 3.798 4.7341 4.2966 4.3842 4.7846 3.9914 5.2621 3.5559 5.5935 3.0077 5.7573 2.3825 5.8785 1.7679 5.9567 1.1638 5.9921.5703 5.9848-.0127 5.9345-.585 5.8415-1.1469 5.3897-1.6042.091-.0415" fill="none"/><g stroke="none"><path clip-path="url(#a)" d="m719.0945 1010.5051c-2.1926-.2692-3.752-2.2649-3.4828-4.4576s2.2649-3.752 4.4576-3.4829c2.1927.2692 3.752 2.2649 3.4828 4.4576-.2691 2.1927-2.2649 3.752-4.4576 3.4829z"/><path clip-path="url(#a)" d="m688.7646 1050.4316-13.4054-.5421 4.9285 10.9412z"/></g></g><path clip-path="url(#a)" d="m554.8651 979.9066h150.1328v22.8438h-150.1328z" fill="#fff" stroke="none"/><g style="stroke-linecap:butt;font-size:16;fill:#000080;font-family:sans-serif;stroke:#000080;stroke-miterlimit:1.45"><text clip-path="url(#a)" stroke="none" x="556.8651" y="997.3753">beast:dietCategory</text><path clip-path="url(#a)" d="m1683.7552 880.8506-183.1757 64.0879" fill="none"/><g stroke="none"><path clip-path="url(#a)" d="m1691.3065 878.2086c.7295 2.0852-.3695 4.367-2.4547 5.0966-2.0852.7295-4.3669-.3694-5.0966-2.4546-.7294-2.0852.3696-4.367 2.4548-5.0966 2.0852-.7295 4.3669.3694 5.0965 2.4546z"/><path clip-path="url(#a)" d="m1490.1967 948.5712 13.3082 1.7005-3.9629-11.3268z"/></g></g><path clip-path="url(#a)" d="m1517.0014 905.5488h127.0312v22.8438h-127.0312z" fill="#fff" stroke="none"/><g stroke-linecap="butt" stroke-miterlimit="1.45"><text clip-path="url(#a)" fill="#000080" font-family="sans-serif" font-size="16" stroke="none" x="1519.0015" y="923.0175">rdfs:subClassOf</text><g><path clip-path="url(#a)" d="m1643.7146 1195.3729v-62.3088h145.9083v-82.4349" fill="none"/><path clip-path="url(#a)" d="m1789.6229 1042.6292-5 12 5-3 5 3z" stroke="none"/><path clip-path="url(#a)" d="m1789.6229 1195.3729v-144.725" fill="none"/><g stroke="none"><path clip-path="url(#a)" d="m1789.6229 1042.6479-5 12 5-3 5 3z"/><path clip-path="url(#a)" d="m1757.1776 1107.587h64.8906v22.8438h-64.8906z" fill="#fff"/><text clip-path="url(#a)" font-family="sans-serif" font-size="16" x="1759.1776" y="1125.0558">rdf:type</text></g><path clip-path="url(#a)" d="m1935.5311 1195.3729v-62.3088h-145.9082v-82.4349" fill="none"/><path clip-path="url(#a)" d="m1789.6229 1042.6292-5 12 5-3 5 3z" stroke="none"/><path clip-path="url(#a)" d="m980.7335 1074.3185-213.5284-36.3714" fill="none"/><path clip-path="url(#a)" d="m759.3187 1036.6038 10.99 6.9441-2.1178-5.4328 3.797-4.4253z" stroke="none"/><path clip-path="url(#a)" d="m837.5191 1044.0287h64.8906v22.8438h-64.8906z" fill="#fff" stroke="none"/><text clip-path="url(#a)" font-family="sans-serif" font-size="16" stroke="none" x="839.5191" y="1061.4974">rdf:type</text><path clip-path="url(#a)" d="m921.7361 1141.4138-162.2559-87.1764" fill="none"/><path clip-path="url(#a)" d="m752.4329 1050.4512 8.2044 10.084-.2763-5.8245 5.0092-2.9846z" stroke="none"/><path clip-path="url(#a)" d="m807.4959 1086.0454h64.8906v22.8438h-64.8906z" fill="#fff" stroke="none"/><text clip-path="url(#a)" font-family="sans-serif" font-size="16" stroke="none" x="809.4959" y="1103.5142">rdf:type</text><path clip-path="url(#a)" d="m838.1721 1219.4901-107.67-162.3741" fill="none"/><path clip-path="url(#a)" d="m726.081 1050.4486 2.4646 12.7643 2.5091-5.2636 5.8251-.2629z" stroke="none"/><path clip-path="url(#a)" d="m749.1322 1122.7196h64.8906v22.8438h-64.8906z" fill="#fff" stroke="none"/><text clip-path="url(#a)" font-family="sans-serif" font-size="16" stroke="none" x="751.1322" y="1140.1884">rdf:type</text><path clip-path="url(#a)" d="m588.8405 1219.4106 104.2157-162.2402" fill="none"/><path clip-path="url(#a)" d="m697.3799 1050.4395-10.6924 7.3941 5.8282.1782 2.5855 5.2264z" stroke="none"/><path clip-path="url(#a)" d="m611.1682 1122.7196h64.8906v22.8438h-64.8906z" fill="#fff" stroke="none"/><text clip-path="url(#a)" font-family="sans-serif" font-size="16" stroke="none" x="613.1682" y="1140.1884">rdf:type</text><path clip-path="url(#a)" d="m875.5388 575.9487v-154.4137h-286.3556" fill="none" stroke="#000080"/><path clip-path="url(#a)" d="m875.5388 583.9487c-2.2092 0-4-1.7909-4-4 0-2.2092 1.7908-4 4-4 2.2091 0 4 1.7908 4 4 0 2.2091-1.7909 4-4 4z" fill="#000080" stroke="none"/><path clip-path="url(#a)" d="m578.1832 421.535 12 6v-12z" fill="#000080" stroke="none"/><path clip-path="url(#a)" d="m658.6683 410.1131h145.5v22.8438h-145.5z" fill="#fff" stroke="none"/></g><g fill="#000080" font-family="sans-serif" font-size="16" stroke="#000080"><text clip-path="url(#a)" stroke="none" x="660.6683" y="427.5819">beast:hasAnomaly</text><path clip-path="url(#a)" d="m1134.1548 941.9883v-649.5765h-644.966v96.1508" fill="none"/><g stroke="none"><path clip-path="url(#a)" d="m1134.1548 949.9883c-2.2091 0-4-1.7909-4-4 0-2.2092 1.7909-4 4-4s4 1.7908 4 4c0 2.2091-1.7909 4-4 4z"/><path clip-path="url(#a)" d="m489.1888 399.5626 6-12h-12z"/></g></g></g><path clip-path="url(#a)" d="m1080.0767 603.2352h108.1562v22.8438h-108.1562z" fill="#fff" stroke="none"/><g style="stroke-linecap:butt;font-size:16;fill:#000080;font-family:sans-serif;stroke:#000080;stroke-miterlimit:1.45"><text clip-path="url(#a)" stroke="none" x="1082.0767" y="620.7039">beast:hasPart</text><path clip-path="url(#a)" d="m470.0662 669.7941-33.4266-44.0286h-233.7874" fill="none"/><g stroke="none"><path clip-path="url(#a)" d="m474.9036 676.166c-1.7595 1.3358-4.2688.9923-5.6046-.7673-1.3358-1.7595-.9923-4.2688.7672-5.6046s4.2688-.9923 5.6046.7672c1.3358 1.7596.9923 4.2688-.7672 5.6047z"/><path clip-path="url(#a)" d="m191.8522 625.7655 12 6v-12z"/></g></g><path clip-path="url(#a)" d="m215.1024 614.3436h207.3828v22.8438h-207.3828z" fill="#fff" stroke="none"/><g style="stroke-linecap:butt;font-size:16;fill:#000080;font-family:sans-serif;stroke:#000080;stroke-miterlimit:1.45"><text clip-path="url(#a)" stroke="none" x="217.1024" y="631.8124">beast:hasPartDerivedFrom</text><path clip-path="url(#a)" d="m473.1839 720.331-33.3943 52.891h-275.9848" fill="none"/><g stroke="none"><path clip-path="url(#a)" d="m477.4549 713.5665c1.868 1.1793 2.4262 3.6497 1.2468 5.5177s-3.6498 2.4262-5.5178 1.2468c-1.8679-1.1794-2.4261-3.6498-1.2467-5.5178 1.1794-1.8679 3.6497-2.4261 5.5177-1.2467z"/><path clip-path="url(#a)" d="m152.8048 773.222 12 6v-12z"/></g></g><path clip-path="url(#a)" d="m197.1681 761.8001h207.3828v22.8438h-207.3828z" fill="#fff" stroke="none"/><g style="stroke-linecap:butt;font-size:16;fill:#000080;font-family:sans-serif;stroke:#000080;stroke-miterlimit:1.45"><text clip-path="url(#a)" stroke="none" x="199.1681" y="779.2689">beast:hasPartDerivedFrom</text><path clip-path="url(#a)" d="m633.0067 866.4284-118.289-141.0134" fill="none"/><g stroke="none"><path clip-path="url(#a)" d="m638.1482 872.5574c-1.6925 1.4198-4.2155 1.1988-5.6353-.4937s-1.1987-4.2156.4938-5.6353c1.6925-1.4198 4.2155-1.1987 5.6353.4938s1.1987 4.2155-.4938 5.6352z"/><path clip-path="url(#a)" d="m507.6482 716.9875 3.1153 13.0497 9.1937-7.7121z"/></g></g><path clip-path="url(#a)" d="m508.0935 781.814h127.0312v22.8438h-127.0312z" fill="#fff" stroke="none"/><text style="stroke:none;clip-path:url(#a);stroke-linecap:butt;font-size:16;fill:#000080;font-family:sans-serif;stroke-miterlimit:1.45" x="510.0935" y="799.2827">rdfs:subClassOf</text><g stroke-linecap="butt" stroke-miterlimit="1.45"><path clip-path="url(#a)" d="m457.8459 1064.1873 197.893-27.8746" fill="none"/><g stroke="none"><path clip-path="url(#a)" d="m663.6607 1035.1969-12.5801-3.2773 3.6681 4.5327-2.2733 5.3695z"/><path clip-path="url(#a)" d="m528.3573 1038.2632h64.8906v22.8438h-64.8906z" fill="#fff"/><text clip-path="url(#a)" font-family="sans-serif" font-size="16" x="530.3573" y="1055.7319">rdf:type</text></g><path clip-path="url(#a)" d="m511.6284 1141.2327 153.8906-86.8305" fill="none"/><path clip-path="url(#a)" d="m672.4865 1050.4709-12.9082 1.5423 5.0698 2.8804-.1557 5.8289z" stroke="none"/><path clip-path="url(#a)" d="m556.7448 1086.0477h64.8906v22.8438h-64.8906z" fill="#fff" stroke="none"/><text clip-path="url(#a)" font-family="sans-serif" font-size="16" stroke="none" x="558.7448" y="1103.5165">rdf:type</text><path clip-path="url(#a)" d="m711.4994 1255.1646v-196.7052" fill="none"/><path clip-path="url(#a)" d="m711.4994 1050.4594-5 12 5-3 5 3z" stroke="none"/><path clip-path="url(#a)" d="m679.0541 1141.3897h64.8906v22.8438h-64.8906z" fill="#fff" stroke="none"/><text clip-path="url(#a)" font-family="sans-serif" font-size="16" stroke="none" x="681.0541" y="1158.8584">rdf:type</text><path clip-path="url(#a)" d="m1770.6455 832.3934 67.3374-83.6474" fill="none" stroke="#000080"/><path clip-path="url(#a)" d="m1765.6289 838.6251c-1.7208-1.3854-1.9928-3.9034-.6075-5.6242 1.3852-1.7208 3.9033-1.9928 5.6241-.6075s1.9928 3.9033.6076 5.6241c-1.3853 1.7208-3.9034 1.9929-5.6242.6076z" fill="#000080" stroke="none"/><path clip-path="url(#a)" d="m1844.8807 740.1774-12.1986 5.5851 9.3474 7.5249z" fill="#000080" stroke="none"/><path clip-path="url(#a)" d="m1712.6987 776.4333h187.6016v22.8438h-187.6016z" fill="#fff" stroke="none"/></g><g style="stroke-linecap:butt;font-size:16;fill:#000080;font-family:sans-serif;stroke:#000080;stroke-miterlimit:1.45"><text clip-path="url(#a)" stroke="none" x="1714.6987" y="793.902">beast:hasOriginContext</text><path clip-path="url(#a)" d="m2105.7832 1020.6448h-216.1705" fill="none"/><g stroke="none"><path clip-path="url(#a)" d="m2113.7832 1020.6448c0 2.2092-1.7908 4-4 4s-4-1.7908-4-4c0-2.2091 1.7908-4 4-4s4 1.7909 4 4z"/><path clip-path="url(#a)" d="m1878.6127 1020.6448 12 6v-12z"/></g></g><path clip-path="url(#a)" d="m1930.6681 1009.223h127.0312v22.8438h-127.0312z" fill="#fff" stroke="none"/><text style="stroke:none;clip-path:url(#a);stroke-linecap:butt;font-size:16;fill:#000080;font-family:sans-serif;stroke-miterlimit:1.45" x="1932.6681" y="1026.6918">rdfs:subClassOf</text></g></svg>