<svg height="1128" style="color-interpolation:auto;stroke:#000;stroke-linecap:square;stroke-miterlimit:10;font-family:'Dialog';font-size:12" width="1673" xmlns="http://www.w3.org/2000/svg" xmlns:xlink="http://www.w3.org/1999/xlink"><clipPath id="a"><path color-interpolation="auto" d="m-44 31h1673v1128h-1673z"/></clipPath><g shape-rendering="geometricPrecision" text-rendering="geometricPrecision" transform="translate(44 -31)"><path clip-path="url(#a)" d="m-44 31h1673v1128h-1673z" fill="#fff" stroke="none"/><rect clip-path="url(#a)" fill="#ff0" height="44" rx="4" stroke="none" width="164.9682" x="693.6652" y="626.7819"/><g font-family="sans-serif" font-size="16" stroke-linecap="butt" stroke-miterlimit="1.45"><text clip-path="url(#a)" stroke="none" x="699.286" y="654.8288">beast:Interpretation</text><rect clip-path="url(#a)" fill="none" height="44" rx="4" width="164.9682" x="693.6652" y="626.7819"/></g><rect clip-path="url(#a)" fill="#ff0" height="44" rx="4" stroke="none" width="121.9682" x="278.1531" y="716.1677"/><g font-family="sans-serif" font-size="16" stroke-linecap="butt" stroke-miterlimit="1.45"><text clip-path="url(#a)" stroke="none" x="282.2544" y="744.2146">beast:Creature</text><rect clip-path="url(#a)" fill="none" height="44" rx="4" width="121.9682" x="278.1531" y="716.1677"/></g><rect clip-path="url(#a)" fill="#ff0" height="44" rx="4" stroke="none" width="113.4682" x="1030.3039" y="626.7819"/><g font-family="sans-serif" font-size="16" stroke-linecap="butt" stroke-miterlimit="1.45"><text clip-path="url(#a)" stroke="none" x="1037.5107" y="654.8288">beast:Source</text><rect clip-path="url(#a)" fill="none" height="44" rx="4" width="113.4682" x="1030.3039" y="626.7819"/></g><rect clip-path="url(#a)" fill="#ff0" height="44" rx="4" stroke="none" width="132.0053" x="710.1467" y="864.6142"/><g font-family="sans-serif" font-size="16" stroke-linecap="butt" stroke-miterlimit="1.45"><text clip-path="url(#a)" stroke="none" x="712.3524" y="892.6611">beast:Etymology</text><rect clip-path="url(#a)" fill="none" height="44" rx="4" width="132.0053" x="710.1467" y="864.6142"/></g><path clip-path="url(#a)" d="m343.6555 1027.125h113.4855l-12.6095 43h-113.4855z" fill="#cfc" fill-rule="evenodd" stroke="none"/><g font-family="sans-serif" font-size="16" stroke-linecap="butt" stroke-miterlimit="1.45"><text clip-path="url(#a)" stroke="none" x="352.2029" y="1054.6719">rdfs:Literal</text><path clip-path="url(#a)" d="m343.6555 1027.125h113.4855l-12.6095 43h-113.4855z" fill="none"/></g><path clip-path="url(#a)" d="m343.6555 954.125h113.4855l-12.6095 43h-113.4855z" fill="#cfc" fill-rule="evenodd" stroke="none"/><g font-family="sans-serif" font-size="16" stroke-linecap="butt" stroke-miterlimit="1.45"><text clip-path="url(#a)" stroke="none" x="352.2029" y="981.6719">rdfs:Literal</text><path clip-path="url(#a)" d="m343.6555 954.125h113.4855l-12.6095 43h-113.4855z" fill="none"/></g><path clip-path="url(#a)" d="m1497.4019 324.8211h113.4854l-12.6095 43h-113.4854z" fill="#cfc" fill-rule="evenodd" stroke="none"/><g font-family="sans-serif" font-size="16" stroke-linecap="butt" stroke-miterlimit="1.45"><text clip-path="url(#a)" stroke="none" x="1505.9492" y="352.368">rdfs:Literal</text><path clip-path="url(#a)" d="m1497.4019 324.8211h113.4854l-12.6095 43h-113.4854z" fill="none"/></g><rect clip-path="url(#a)" fill="#ff0" height="44" rx="4" stroke="none" width="132.0053" x="1481.8372" y="516.2453"/><g font-family="sans-serif" font-size="16" stroke-linecap="butt" stroke-miterlimit="1.45"><text clip-path="url(#a)" stroke="none" x="1489.7148" y="544.2922">schema:Person</text><rect clip-path="url(#a)" fill="none" height="44" rx="4" width="132.0053" x="1481.8372" y="516.2453"/></g><path clip-path="url(#a)" d="m1497.4019 389.2348h113.4854l-12.6095 43h-113.4854z" fill="#cfc" fill-rule="evenodd" stroke="none"/><g font-family="sans-serif" font-size="16" stroke-linecap="butt" stroke-miterlimit="1.45"><text clip-path="url(#a)" stroke="none" x="1505.9492" y="416.7817">rdfs:Literal</text><path clip-path="url(#a)" d="m1497.4019 389.2348h113.4854l-12.6095 43h-113.4854z" fill="none"/></g><rect clip-path="url(#a)" fill="#ff0" height="44" rx="4" stroke="none" width="113.4682" x="1284.613" y="955.5933"/><g font-family="sans-serif" font-size="16" stroke-linecap="butt" stroke-miterlimit="1.45"><text clip-path="url(#a)" stroke="none" x="1287.5229" y="983.6401">beast:Bestiary</text><rect clip-path="url(#a)" fill="none" height="44" rx="4" width="113.4682" x="1284.613" y="955.5933"/></g><rect clip-path="url(#a)" fill="#ff0" height="44" rx="4" stroke="none" width="154.7893" x="1263.9525" y="1099.625"/><g font-family="sans-serif" font-size="16" stroke-linecap="butt" stroke-miterlimit="1.45"><text clip-path="url(#a)" stroke="none" x="1268.7925" y="1127.6719">beast:BestiaryType</text><rect clip-path="url(#a)" fill="none" height="44" rx="4" width="154.7893" x="1263.9525" y="1099.625"/></g><path clip-path="url(#a)" d="m1497.4019 453.6485h113.4854l-12.6095 43h-113.4854z" fill="#cfc" fill-rule="evenodd" stroke="none"/><g font-family="sans-serif" font-size="16" stroke-linecap="butt" stroke-miterlimit="1.45"><text clip-path="url(#a)" stroke="none" x="1505.9492" y="481.1954">rdfs:Literal</text><path clip-path="url(#a)" d="m1497.4019 453.6485h113.4854l-12.6095 43h-113.4854z" fill="none"/></g><path clip-path="url(#a)" d="m343.6555 1100.125h113.4855l-12.6095 43h-113.4855z" fill="#cfc" fill-rule="evenodd" stroke="none"/><g font-family="sans-serif" font-size="16" stroke-linecap="butt" stroke-miterlimit="1.45"><text clip-path="url(#a)" stroke="none" x="352.2029" y="1127.6719">rdfs:Literal</text><path clip-path="url(#a)" d="m343.6555 1100.125h113.4855l-12.6095 43h-113.4855z" fill="none"/></g><rect clip-path="url(#a)" fill="#ff0" height="44" rx="4" stroke="none" width="121.9682" x="388.5473" y="318.2594"/><g font-family="sans-serif" font-size="16" stroke-linecap="butt" stroke-miterlimit="1.45"><text clip-path="url(#a)" stroke="none" x="395.5783" y="346.3062">beast:Citation</text><rect clip-path="url(#a)" fill="none" height="44" rx="4" width="121.9682" x="388.5473" y="318.2594"/></g><path clip-path="url(#a)" d="m-6.2477 46.2364h113.4855l-12.6095 43h-113.4855z" fill="#cfc" fill-rule="evenodd" stroke="none"/><g font-family="sans-serif" font-size="16" stroke-linecap="butt" stroke-miterlimit="1.45"><text clip-path="url(#a)" stroke="none" x="2.2997" y="73.7833">rdfs:Literal</text><path clip-path="url(#a)" d="m-6.2477 46.2364h113.4855l-12.6095 43h-113.4855z" fill="none"/></g><path clip-path="url(#a)" d="m-4.597 227.099h109.7714l-12.1968 43h-109.7714z" fill="#cfc" fill-rule="evenodd" stroke="none"/><g font-family="sans-serif" font-size="16" stroke-linecap="butt" stroke-miterlimit="1.45"><text clip-path="url(#a)" stroke="none" x="2.2997" y="254.6459">rdfs:Literal</text><path clip-path="url(#a)" d="m-4.597 227.099h109.7714l-12.1968 43h-109.7714z" fill="none"/></g><path clip-path="url(#a)" d="m-6.2477 131.9367h113.4855l-12.6095 43h-113.4855z" fill="#cfc" fill-rule="evenodd" stroke="none"/><g font-family="sans-serif" font-size="16" stroke-linecap="butt" stroke-miterlimit="1.45"><text clip-path="url(#a)" stroke="none" x="2.2997" y="159.4836">rdfs:Literal</text><path clip-path="url(#a)" d="m-6.2477 131.9367h113.4855l-12.6095 43h-113.4855z" fill="none"/></g><path clip-path="url(#a)" d="m479.1107 494.0592h113.4854l-12.6095 43h-113.4854z" fill="#cfc" fill-rule="evenodd" stroke="none"/><g font-family="sans-serif" font-size="16" stroke-linecap="butt" stroke-miterlimit="1.45"><text clip-path="url(#a)" stroke="none" x="487.658" y="521.6061">rdfs:Literal</text><path clip-path="url(#a)" d="m479.1107 494.0592h113.4854l-12.6095 43h-113.4854z" fill="none"/></g><rect clip-path="url(#a)" fill="#ff0" height="44" rx="4" stroke="none" width="121.9682" x="388.5473" y="406.1593"/><g font-family="sans-serif" font-size="16" stroke-linecap="butt" stroke-miterlimit="1.45"><text clip-path="url(#a)" stroke="none" x="395.8908" y="434.2062">beast:Genesis</text><rect clip-path="url(#a)" fill="none" height="44" rx="4" width="121.9682" x="388.5473" y="406.1593"/></g><rect clip-path="url(#a)" fill="#ff0" height="44" rx="4" stroke="none" width="204.724" x="-28.4711" y="586.2196"/><g font-family="sans-serif" font-size="16" stroke-linecap="butt" stroke-miterlimit="1.45"><text clip-path="url(#a)" stroke="none" x="-23.2028" y="614.2665">beast:MythologicalFigure</text><rect clip-path="url(#a)" fill="none" height="44" rx="4" width="204.724" x="-28.4711" y="586.2196"/></g><path clip-path="url(#a)" d="m-15.8616 406.6593h113.4855l-12.6095 43h-113.4855z" fill="#cfc" fill-rule="evenodd" stroke="none"/><g font-family="sans-serif" font-size="16" stroke-linecap="butt" stroke-miterlimit="1.45"><text clip-path="url(#a)" stroke="none" x="-7.3142" y="434.2062">rdfs:Literal</text><path clip-path="url(#a)" d="m-15.8616 406.6593h113.4855l-12.6095 43h-113.4855z" fill="none"/></g><g fill="#000080" stroke="#000080" stroke-linecap="butt" stroke-miterlimit="1.45"><path clip-path="url(#a)" d="m689.679 648.7819h-221.3186l-88.344 61.109" fill="none"/><g stroke="none"><path clip-path="url(#a)" d="m697.679 648.7819c0 2.2092-1.7908 4-4 4s-4-1.7908-4-4c0-2.2091 1.7908-4 4-4s4 1.7909 4 4z"/><path clip-path="url(#a)" d="m370.9698 716.1486 13.2823-1.892-6.8266-9.8691z"/><path clip-path="url(#a)" d="m509.712 637.3601h133.4766v22.8438h-133.4766z" fill="#fff"/><text clip-path="url(#a)" font-family="sans-serif" font-size="16" x="511.712" y="654.8288">beast:ofCreature</text></g><path clip-path="url(#a)" d="m862.6153 648.7819h156.6796" fill="none"/><path clip-path="url(#a)" d="m854.6153 648.7819c0-2.2091 1.7908-4 4-4s4 1.7909 4 4c0 2.2092-1.7908 4-4 4s-4-1.7908-4-4z" stroke="none"/><path clip-path="url(#a)" d="m1030.2949 648.7819-12-6v12z" stroke="none"/><path clip-path="url(#a)" d="m880.9726 637.3601h126.9922v22.8438h-126.9922z" fill="#fff" stroke="none"/><text clip-path="url(#a)" font-family="sans-serif" font-size="16" stroke="none" x="882.9726" y="654.8288">beast:appearsIn</text><path clip-path="url(#a)" d="m1076.9596 674.5383-.0297.0956-1.3706 5.3438-1.301 6.3785-.9777 6.3988-.658 6.4081-.3418 6.406-.0291 6.3929.2799 6.3685.5855 6.333.8875 6.2863 1.186 6.2284 1.4808 6.1594 1.7722 6.0792 2.0599 5.9878 2.3443 5.8852 2.625 5.7714 2.9021 5.6466 3.1756 5.5103 3.4457 5.3632 3.7123 5.2047 3.9752 5.035 4.2346 4.8543 4.4905 4.6622 4.7428 4.4591 4.9916 4.2448 5.2367 4.0193 5.4784 3.7826 5.7165 3.5347 5.9511 3.2756 6.1091 2.9708 6.1852 2.6296 6.2504 2.2923 6.3042 1.9582 6.3469 1.6279 6.3785 1.301 6.3988.9777 6.4081.658 6.406.3418 6.3928.0292 6.3686-.28 6.333-.5855 6.2863-.8875 6.2284-1.1859 6.1595-1.4809 6.0791-1.7721 5.9878-2.06 5.8852-2.3443 5.7715-2.6249 5.6465-2.9021 5.5104-3.1757 5.3631-3.4458 5.2047-3.7122 5.0351-3.9752 4.8542-4.2346 4.6622-4.4905 4.4591-4.7428 4.2448-4.9916 4.0193-5.2367 3.7826-5.4784 3.5346-5.7165 3.2758-5.9511 2.9707-6.109 2.6296-6.1853 2.2923-6.2503 1.9582-6.3043 1.6278-6.3469 1.3011-6.3785.9778-6.3988.6579-6.4081.3418-6.406.0292-6.3929-.2799-6.3685-.5856-6.333-.8874-6.2863-1.186-6.2284-1.4808-6.1595-1.7722-6.0791-2.0601-5.9878-2.3442-5.8852-2.6249-5.7714-2.9021-5.6466-3.1756-5.5103-3.4458-5.3632-3.7123-5.2047-3.9752-5.0351-4.2347-4.8542-4.4904-4.6622-4.7428-4.4591-4.9915-4.2449-5.2368-4.0192-5.4784-3.7826-5.7166-3.5347-5.951-3.2756-6.109-2.9708-6.1853-2.6296-6.2504-2.2923-6.3042-1.9582-6.3469-1.6279-6.3784-1.301-6.399-.9777-6.4079-.658-6.406-.3418-6.393-.0292-6.3685.28-6.333.5855-6.2863.8875-6.2285 1.1859-6.1593 1.4809-6.0792 1.7721-5.9878 2.06-5.8851 2.3443-5.7715 2.6249-5.6465 2.9021-5.5105 3.1757-5.363 3.4458-5.2047 3.7122-5.0351 3.9752-4.8542 4.2346-4.6624 4.4905-1.7453 1.8564-.0646.0764" fill="none"/><path clip-path="url(#a)" d="m1079.2311 666.8676c2.1181.6272 3.3269 2.8528 2.6996 4.971-.6272 2.1182-2.8528 3.3269-4.9711 2.6997-2.1182-.6272-3.3269-2.8528-2.6996-4.971.6272-2.1183 2.8528-3.3269 4.9711-2.6997z" stroke="none"/><path clip-path="url(#a)" d="m1101.2859 626.863 12.4265-5.0577-9.0168-7.9182z" stroke="none"/><path clip-path="url(#a)" d="m1144.8117 713.6145h178.9062v22.8438h-178.9062z" fill="#fff" stroke="none"/><text clip-path="url(#a)" font-family="sans-serif" font-size="16" stroke="none" x="1146.8118" y="731.0833">beast:wasInfluencedBy</text><path clip-path="url(#a)" d="m1074.7627 674.3953-.0396.0919-1.8167 4.8765-2.4917 7.8733-2.0828 7.9358-1.6772 7.984-1.2755 8.0179-.8775 8.0375-.4831 8.0427-.0926 8.0337.2946 8.0103.6777 7.9726 1.0574 7.9207 1.4333 7.8544 1.8056 7.7738 2.1742 7.6788 2.5389 7.5696 2.9002 7.4462 3.2577 7.3082 3.6114 7.1561 3.9615 6.9896 4.308 6.8088 4.6508 6.6137 4.9899 6.4043 5.3252 6.1806 5.6568 5.9426 5.9849 5.6902 6.3093 5.4236 6.6298 5.1425 6.9469 4.8473 7.26 4.5377 7.4801 4.165 7.5998 3.7412 7.7054 3.321 7.7965 2.9046 7.8733 2.4917 7.9357 2.0827 7.9841 1.6772 8.0178 1.2755 8.0374.8775 8.0428.4832 8.0337.0924 8.0103-.2945 7.9727-.6777 7.9207-1.0574 7.8543-1.4334 7.7738-1.8055 7.6789-2.1741 7.5697-2.539 7.446-2.9002 7.3082-3.2576 7.1562-3.6115 6.9896-3.9615 6.8088-4.3081 6.6137-4.6507 6.4043-4.9898 6.1806-5.3252 5.9425-5.6569 5.6902-5.9849 5.4236-6.3093 5.1426-6.6298 4.8473-6.9468 4.5377-7.26 4.165-7.4802 3.7411-7.5999 3.3211-7.7053 2.9045-7.7964 2.4917-7.8733 2.0826-7.9358 1.6773-7.984 1.2756-8.0179.8775-8.0375.4831-8.0427.0926-8.0337-.2946-8.0103-.6777-7.9727-1.0575-7.9207-1.4334-7.8544-1.8055-7.7737-2.1741-7.6789-2.5389-7.5696-2.9002-7.4461-3.2577-7.3083-3.6114-7.156-3.9616-6.9897-4.308-6.8088-4.6507-6.6137-4.9899-6.4043-5.3252-6.1806-5.6568-5.9425-5.985-5.6903-6.3092-5.4235-6.6299-5.1426-6.9468-4.8473-7.26-4.5377-7.4801-4.165-7.6-3.7412-7.7053-3.3209-7.7964-2.9046-7.8733-2.4917-7.9358-2.0827-7.984-1.6772-8.0179-1.2756-8.0375-.8775-8.0427-.4831-8.0337-.0925-8.0103.2945-7.9726.6778-7.9207 1.0574-7.8543 1.4333-7.7738 1.8056-7.6789 2.1741-7.5697 2.539-7.446 2.9001-7.3083 3.2576-7.1561 3.6116-6.9896 3.9615-6.8088 4.308-6.6137 4.6507-6.4043 4.9899-6.1807 5.3252-5.9425 5.6569-2.7888 2.9332-.0652.0758" fill="none"/><path clip-path="url(#a)" d="m1077.6311 666.9273c2.0623.7921 3.0919 3.106 2.2998 5.1683-.7921 2.0622-3.1061 3.0918-5.1682 2.2997-2.0623-.7921-3.0919-3.106-2.2998-5.1682.7921-2.0623 3.1061-3.0919 5.1682-2.2998z" stroke="none"/><path clip-path="url(#a)" d="m1102.4948 626.8614 12.4705-4.9484-8.9469-7.997z" stroke="none"/><path clip-path="url(#a)" d="m1213.1679 737.4807h86.8984v22.8438h-86.8984z" fill="#fff" stroke="none"/><text clip-path="url(#a)" font-family="sans-serif" font-size="16" stroke="none" x="1215.168" y="754.9495">beast:cites</text><path clip-path="url(#a)" d="m404.1555 738.1677h557.8631l85.2742-60.969" fill="none"/><path clip-path="url(#a)" d="m396.1555 738.1677c0-2.2091 1.7909-4 4-4 2.2092 0 4 1.7909 4 4 0 2.2092-1.7908 4-4 4-2.2091 0-4-1.7908-4-4z" stroke="none"/><path clip-path="url(#a)" d="m1056.241 670.8011-13.2514 2.0984 6.9794 9.7617z" stroke="none"/><path clip-path="url(#a)" d="m591.8317 726.7458h187.6016v22.8438h-187.6016z" fill="#fff" stroke="none"/><text clip-path="url(#a)" font-family="sans-serif" font-size="16" stroke="none" x="593.8317" y="744.2146">beast:hasOriginContext</text><path clip-path="url(#a)" d="m403.0725 759.8856 298.9459 101.5474" fill="none"/><path clip-path="url(#a)" d="m395.4976 757.3124c.7106-2.0917 2.9823-3.2114 5.074-2.5009 2.0918.7106 3.2115 2.9823 2.5009 5.0741-.7105 2.0917-2.9822 3.2114-5.074 2.5009-2.0917-.7106-3.2114-2.9823-2.5009-5.0741z" stroke="none"/><path clip-path="url(#a)" d="m712.4338 864.971-9.4325-9.5408-3.8596 11.3623z" stroke="none"/><path clip-path="url(#a)" d="m475.8762 800.1167h158.5156v22.8438h-158.5156z" fill="#fff" stroke="none"/><text clip-path="url(#a)" font-family="sans-serif" font-size="16" stroke="none" x="477.8762" y="817.5854">beast:hasEtymology</text><path clip-path="url(#a)" d="m776.1493 912.6454v135.9796h-310.2978" fill="none" stroke="#008000"/></g><path clip-path="url(#a)" d="m776.1493 904.6454c2.2092 0 4 1.7909 4 4 0 2.2092-1.7908 4-4 4s-4-1.7908-4-4c0-2.2091 1.7908-4 4-4z" fill="none" stroke="none"/><g fill="#008000" stroke="#008000" stroke-linecap="butt" stroke-miterlimit="1.45"><path clip-path="url(#a)" d="m776.1493 904.6454c2.2092 0 4 1.7909 4 4 0 2.2092-1.7908 4-4 4s-4-1.7908-4-4c0-2.2091 1.7908-4 4-4z" fill="none"/><path clip-path="url(#a)" d="m450.8515 1048.625 16 6v-12z" fill="#fff" stroke="none"/><path clip-path="url(#a)" d="m450.8515 1048.625 16 6v-12z" fill="none"/><path clip-path="url(#a)" d="m544.0983 1037.2031h154.2188v22.8438h-154.2188z" fill="#fff" stroke="none"/><text clip-path="url(#a)" font-family="sans-serif" font-size="16" stroke="none" x="546.0983" y="1054.6719">beast:hasRootTerm</text><path clip-path="url(#a)" d="m776.1493 912.6495v62.9755h-310.2978" fill="none"/></g><path clip-path="url(#a)" d="m776.1493 904.6495c2.2092 0 4 1.7909 4 4 0 2.2092-1.7908 4-4 4s-4-1.7908-4-4c0-2.2091 1.7908-4 4-4z" fill="none" stroke="none"/><g fill="#008000" stroke="#008000" stroke-linecap="butt" stroke-miterlimit="1.45"><path clip-path="url(#a)" d="m776.1493 904.6495c2.2092 0 4 1.7909 4 4 0 2.2092-1.7908 4-4 4s-4-1.7908-4-4c0-2.2091 1.7908-4 4-4z" fill="none"/><path clip-path="url(#a)" d="m450.8515 975.625 16 6v-12z" fill="#fff" stroke="none"/><path clip-path="url(#a)" d="m450.8515 975.625 16 6v-12z" fill="none"/><path clip-path="url(#a)" d="m549.2389 964.2031h143.9375v22.8438h-143.9375z" fill="#fff" stroke="none"/><text clip-path="url(#a)" font-family="sans-serif" font-size="16" stroke="none" x="551.2389" y="981.6719">beast:hasMeaning</text><path clip-path="url(#a)" d="m1087.0381 622.8137v-276.4926h389.0734" fill="none"/></g><path clip-path="url(#a)" d="m1087.0381 630.8137c-2.2091 0-4-1.7909-4-4 0-2.2092 1.7909-4 4-4s4 1.7908 4 4c0 2.2091-1.7909 4-4 4z" fill="none" stroke="none"/><g stroke-linecap="butt" stroke-miterlimit="1.45"><g fill="#008000" stroke="#008000"><path clip-path="url(#a)" d="m1087.0381 630.8137c-2.2091 0-4-1.7909-4-4 0-2.2092 1.7909-4 4-4s4 1.7908 4 4c0 2.2091-1.7909 4-4 4z" fill="none"/><path clip-path="url(#a)" d="m1491.1115 346.3211-16-6v12z" fill="#fff" stroke="none"/><path clip-path="url(#a)" d="m1491.1115 346.3211-16-6v12z" fill="none"/><path clip-path="url(#a)" d="m1230.3527 334.8992h102v22.8438h-102z" fill="#fff" stroke="none"/><text clip-path="url(#a)" font-family="sans-serif" font-size="16" stroke="none" x="1232.3527" y="352.368">dcterms:title</text><path clip-path="url(#a)" d="m1087.0381 622.788v-84.5427h383.7921" fill="none" stroke="#000080"/><g stroke="none"><path clip-path="url(#a)" d="m1087.0381 630.788c-2.2091 0-4-1.7909-4-4 0-2.2092 1.7909-4 4-4s4 1.7908 4 4c0 2.2091-1.7909 4-4 4z" fill="#000080"/><path clip-path="url(#a)" d="m1481.8302 538.2453-12-6v12z" fill="#000080"/><path clip-path="url(#a)" d="m1218.4337 526.8234h122.8828v22.8438h-122.8828z" fill="#fff"/></g></g><text clip-path="url(#a)" fill="#000080" font-family="sans-serif" font-size="16" stroke="none" x="1220.4337" y="544.2922">schema:creator</text><path clip-path="url(#a)" d="m1087.0381 622.7847v-212.0499h389.0734" fill="none" stroke="#008000"/></g><path clip-path="url(#a)" d="m1087.0381 630.7847c-2.2091 0-4-1.7909-4-4 0-2.2092 1.7909-4 4-4s4 1.7908 4 4c0 2.2091-1.7909 4-4 4z" fill="none" stroke="none"/><g fill="#008000" stroke="#008000" stroke-linecap="butt" stroke-miterlimit="1.45"><path clip-path="url(#a)" d="m1087.0381 630.7847c-2.2091 0-4-1.7909-4-4 0-2.2092 1.7909-4 4-4s4 1.7908 4 4c0 2.2091-1.7909 4-4 4z" fill="none"/><path clip-path="url(#a)" d="m1491.1115 410.7348-16-6v12z" fill="#fff" stroke="none"/><path clip-path="url(#a)" d="m1491.1115 410.7348-16-6v12z" fill="none"/><path clip-path="url(#a)" d="m1216.6886 399.3129h129.3281v22.8438h-129.3281z" fill="#fff" stroke="none"/><text clip-path="url(#a)" font-family="sans-serif" font-size="16" stroke="none" x="1218.6886" y="416.7817">dcterms:created</text><path clip-path="url(#a)" d="m1087.0381 670.8177v306.7756h189.5924" fill="none" stroke="#000"/><path clip-path="url(#a)" d="m1284.6305 977.5933-12-5 3 5-3 5z" fill="#000" stroke="none"/><path clip-path="url(#a)" d="m1085.0381 826.7501h4v4h-4z" fill="#fff" stroke="none"/><path clip-path="url(#a)" d="m1341.3472 1003.5708v85.0332" fill="none" stroke="#000080"/><g stroke="none"><path clip-path="url(#a)" d="m1341.3472 995.5708c2.2091 0 4 1.7908 4 4s-1.7909 4-4 4-4-1.7908-4-4 1.7909-4 4-4z" fill="#000080"/><path clip-path="url(#a)" d="m1341.3472 1099.604 6-12h-12z" fill="#000080"/><path clip-path="url(#a)" d="m1253.3315 1038.1873h176.0312v22.8438h-176.0312z" fill="#fff"/></g></g><text style="stroke:none;clip-path:url(#a);stroke-linecap:butt;font-size:16;fill:#000080;font-family:sans-serif;stroke-miterlimit:1.45" x="1255.3315" y="1055.656">beast:hasBestiaryType</text><path clip-path="url(#a)" d="m1087.0381 622.781v-147.6325h389.0734" fill="none" stroke="#008000" stroke-linecap="butt" stroke-miterlimit="1.45"/><path clip-path="url(#a)" d="m1087.0381 630.781c-2.2091 0-4-1.7908-4-4s1.7909-4 4-4 4 1.7908 4 4-1.7909 4-4 4z" fill="none" stroke="none"/><g fill="#008000" stroke="#008000" stroke-linecap="butt" stroke-miterlimit="1.45"><path clip-path="url(#a)" d="m1087.0381 630.781c-2.2091 0-4-1.7908-4-4s1.7909-4 4-4 4 1.7908 4 4-1.7909 4-4 4z" fill="none"/><path clip-path="url(#a)" d="m1491.1115 475.1485-16-6v12z" fill="#fff" stroke="none"/><path clip-path="url(#a)" d="m1491.1115 475.1485-16-6v12z" fill="none"/><path clip-path="url(#a)" d="m1209.9074 463.7266h142.8906v22.8438h-142.8906z" fill="#fff" stroke="none"/><text clip-path="url(#a)" font-family="sans-serif" font-size="16" stroke="none" x="1211.9073" y="481.1954">dcterms:language</text><path clip-path="url(#a)" d="m776.1493 912.6177v209.0073h-310.2978" fill="none"/></g><path clip-path="url(#a)" d="m776.1493 904.6177c2.2092 0 4 1.7909 4 4 0 2.2092-1.7908 4-4 4s-4-1.7908-4-4c0-2.2091 1.7908-4 4-4z" fill="none" stroke="none"/><g fill="#008000" stroke="#008000" stroke-linecap="butt" stroke-miterlimit="1.45"><path clip-path="url(#a)" d="m776.1493 904.6177c2.2092 0 4 1.7909 4 4 0 2.2092-1.7908 4-4 4s-4-1.7908-4-4c0-2.2091 1.7908-4 4-4z" fill="none"/><path clip-path="url(#a)" d="m450.8515 1121.625 16 6v-12z" fill="#fff" stroke="none"/><path clip-path="url(#a)" d="m450.8515 1121.625 16 6v-12z" fill="none"/><path clip-path="url(#a)" d="m549.7623 1110.2031h142.8906v22.8438h-142.8906z" fill="#fff" stroke="none"/><text clip-path="url(#a)" font-family="sans-serif" font-size="16" stroke="none" x="551.7623" y="1127.6719">dcterms:language</text><path clip-path="url(#a)" d="m776.1493 622.7797v-203.6059-78.9144h-254.6561" fill="none" stroke="#000080"/><g stroke="none"><path clip-path="url(#a)" d="m776.1493 630.7797c-2.2092 0-4-1.7909-4-4 0-2.2092 1.7908-4 4-4s4 1.7908 4 4c0 2.2091-1.7908 4-4 4z" fill="#000080"/><path clip-path="url(#a)" d="m510.4932 340.2594 12 6v-12z" fill="#000080"/><path clip-path="url(#a)" d="m541.6488 328.8375h212.4922v22.8438h-212.4922z" fill="#fff"/></g></g><g style="stroke-linecap:butt;font-size:16;fill:#000080;font-family:sans-serif;stroke:#000080;stroke-miterlimit:1.45"><text clip-path="url(#a)" stroke="none" x="543.6489" y="346.3062">beast:hasTextualReference</text><path clip-path="url(#a)" d="m449.5314 314.2504v-45.6514h322.8949l289.3757 349.6873" fill="none"/><g stroke="none"><path clip-path="url(#a)" d="m449.5314 322.2504c-2.2091 0-4-1.7909-4-4s1.7909-4 4-4c2.2092 0 4 1.7909 4 4s-1.7908 4-4 4z"/><path clip-path="url(#a)" d="m1068.8151 626.7607-3.0281-13.0701-9.245 7.6505z"/></g></g><path clip-path="url(#a)" d="m834.7679 431.7061h164.1719v22.8438h-164.1719z" fill="#fff" stroke="none"/><text style="stroke:none;clip-path:url(#a);stroke-linecap:butt;font-size:16;fill:#000080;font-family:sans-serif;stroke-miterlimit:1.45" x="836.7679" y="449.1748">beast:extractedFrom</text><path clip-path="url(#a)" d="m449.5314 314.2699v-246.5335h-333.5874" fill="none" stroke="#008000" stroke-linecap="butt" stroke-miterlimit="1.45"/><path clip-path="url(#a)" d="m449.5314 322.2699c-2.2091 0-4-1.7909-4-4s1.7909-4 4-4c2.2092 0 4 1.7909 4 4s-1.7908 4-4 4z" fill="none" stroke="none"/><g fill="#008000" stroke="#008000" stroke-linecap="butt" stroke-miterlimit="1.45"><path clip-path="url(#a)" d="m449.5314 322.2699c-2.2091 0-4-1.7909-4-4s1.7909-4 4-4c2.2092 0 4 1.7909 4 4s-1.7908 4-4 4z" fill="none"/><path clip-path="url(#a)" d="m100.944 67.7364 16 6v-12z" fill="#fff" stroke="none"/><path clip-path="url(#a)" d="m100.944 67.7364 16 6v-12z" fill="none"/><path clip-path="url(#a)" d="m211.5018 56.3146h142.8906v22.8438h-142.8906z" fill="#fff" stroke="none"/><text clip-path="url(#a)" font-family="sans-serif" font-size="16" stroke="none" x="213.5018" y="73.7833">dcterms:language</text><path clip-path="url(#a)" d="m449.5314 314.2841v-65.6851h-335.4677" fill="none"/></g><path clip-path="url(#a)" d="m449.5314 322.2841c-2.2091 0-4-1.7908-4-4 0-2.2091 1.7909-4 4-4 2.2092 0 4 1.7909 4 4 0 2.2092-1.7908 4-4 4z" fill="none" stroke="none"/><g fill="#008000" stroke="#008000" stroke-linecap="butt" stroke-miterlimit="1.45"><path clip-path="url(#a)" d="m449.5314 322.2841c-2.2091 0-4-1.7908-4-4 0-2.2091 1.7909-4 4-4 2.2092 0 4 1.7909 4 4 0 2.2092-1.7908 4-4 4z" fill="none"/><path clip-path="url(#a)" d="m99.0637 248.599 16 6v-12z" fill="#fff" stroke="none"/><path clip-path="url(#a)" d="m99.0637 248.599 16 6v-12z" fill="none"/><path clip-path="url(#a)" d="m171.1498 237.1771h221.5312v22.8438h-221.5312z" fill="#fff" stroke="none"/><text clip-path="url(#a)" font-family="sans-serif" font-size="16" stroke="none" x="173.1498" y="254.6459">beast:hasSequenceIdentifier</text><path clip-path="url(#a)" d="m449.5314 314.2292v-160.7925h-333.5874" fill="none"/></g><path clip-path="url(#a)" d="m449.5314 322.2292c-2.2091 0-4-1.7908-4-4 0-2.2091 1.7909-4 4-4 2.2092 0 4 1.7909 4 4 0 2.2092-1.7908 4-4 4z" fill="none" stroke="none"/><g fill="#008000" stroke="#008000" stroke-linecap="butt" stroke-miterlimit="1.45"><path clip-path="url(#a)" d="m449.5314 322.2292c-2.2091 0-4-1.7908-4-4 0-2.2091 1.7909-4 4-4 2.2092 0 4 1.7909 4 4 0 2.2092-1.7908 4-4 4z" fill="none"/><path clip-path="url(#a)" d="m100.944 153.4367 16 6v-12z" fill="#fff" stroke="none"/><path clip-path="url(#a)" d="m100.944 153.4367 16 6v-12z" fill="none"/><path clip-path="url(#a)" d="m195.701 142.0148h174.4922v22.8438h-174.4922z" fill="#fff" stroke="none"/><text clip-path="url(#a)" font-family="sans-serif" font-size="16" stroke="none" x="197.701" y="159.4836">beast:hasPassageText</text><path clip-path="url(#a)" d="m731.9012 624.8775-149.3732-80.6968" fill="none"/></g><path clip-path="url(#a)" d="m738.9398 628.6799c-1.05 1.9436-3.4768 2.6681-5.4205 1.6181s-2.6681-3.4768-1.6181-5.4205 3.4768-2.6681 5.4205-1.6181c1.9436 1.05 2.668 3.4768 1.6181 5.4205z" fill="none" stroke="none"/><g fill="#008000" stroke="#008000" stroke-linecap="butt" stroke-miterlimit="1.45"><path clip-path="url(#a)" d="m738.9398 628.6799c-1.05 1.9436-3.4768 2.6681-5.4205 1.6181s-2.6681-3.4768-1.6181-5.4205 3.4768-2.6681 5.4205-1.6181c1.9436 1.05 2.668 3.4768 1.6181 5.4205z" fill="none"/><path clip-path="url(#a)" d="m569.3307 537.051 11.2253 12.8839 5.7037-10.5578z" fill="#fff" stroke="none"/><path clip-path="url(#a)" d="m569.3307 537.051 11.2253 12.8839 5.7037-10.5578z" fill="none"/><path clip-path="url(#a)" d="m558.3198 570.4987h188.1328v22.8438h-188.1328z" fill="#fff" stroke="none"/><text clip-path="url(#a)" font-family="sans-serif" font-size="16" stroke="none" x="560.3198" y="587.9675">beast:hasPersonalName</text><path clip-path="url(#a)" d="m776.1493 622.7789v-194.6196h-254.6561" fill="none" stroke="#000080"/><g stroke="none"><path clip-path="url(#a)" d="m776.1493 630.7789c-2.2092 0-4-1.7908-4-4 0-2.2091 1.7908-4 4-4s4 1.7909 4 4c0 2.2092-1.7908 4-4 4z" fill="#000080"/><path clip-path="url(#a)" d="m510.4932 428.1593 12 6v-12z" fill="#000080"/><path clip-path="url(#a)" d="m578.7934 416.7374h138.2031v22.8438h-138.2031z" fill="#fff"/></g></g><g style="stroke-linecap:butt;font-size:16;fill:#000080;font-family:sans-serif;stroke:#000080;stroke-miterlimit:1.45"><text clip-path="url(#a)" stroke="none" x="580.7934" y="434.2062">beast:hasGenesis</text><path clip-path="url(#a)" d="m420.1947 452.7374-137.1044 114.8654 45.3745 138.0861" fill="none"/><g stroke="none"><path clip-path="url(#a)" d="m426.3271 447.5999c1.4187 1.6933 1.196 4.2162-.4974 5.6349s-4.2162 1.196-5.635-.4974c-1.4187-1.6933-1.196-4.2162.4974-5.6349s4.2162-1.196 5.635.4974z"/><path clip-path="url(#a)" d="m331.8987 716.1392 1.9541-13.2734-11.4003 3.7461z"/></g></g><path clip-path="url(#a)" d="m266.3759 502.0217h162.7188v22.8438h-162.7188z" fill="#fff" stroke="none"/><g style="stroke-linecap:butt;font-size:16;fill:#000080;font-family:sans-serif;stroke:#000080;stroke-miterlimit:1.45"><text clip-path="url(#a)" stroke="none" x="268.3759" y="519.4904">beast:involvesParent</text><path clip-path="url(#a)" d="m420.1947 452.7374-137.1044 114.8654-96.4827 18.7325" fill="none"/><g stroke="none"><path clip-path="url(#a)" d="m426.3271 447.5999c1.4187 1.6933 1.196 4.2162-.4974 5.6349s-4.2162 1.196-5.635-.4974c-1.4187-1.6933-1.196-4.2162.4974-5.6349s4.2162-1.196 5.635.4974z"/><path clip-path="url(#a)" d="m175.8092 588.4318 12.9236 3.6029-2.2871-11.7801z"/></g></g><path clip-path="url(#a)" d="m384.5697 428.1593h-278.2558" fill="none" stroke="#008000" stroke-linecap="butt" stroke-miterlimit="1.45"/><path clip-path="url(#a)" d="m392.5697 428.1593c0 2.2091-1.7908 4-4 4-2.2091 0-4-1.7909-4-4s1.7909-4 4-4c2.2092 0 4 1.7909 4 4z" fill="none" stroke="none"/><g fill="#008000" stroke="#008000" stroke-linecap="butt" stroke-miterlimit="1.45"><path clip-path="url(#a)" d="m392.5697 428.1593c0 2.2091-1.7908 4-4 4-2.2091 0-4-1.7909-4-4s1.7909-4 4-4c2.2092 0 4 1.7909 4 4z" fill="none"/><path clip-path="url(#a)" d="m91.3139 428.1593 16 6v-12z" fill="#fff" stroke="none"/><path clip-path="url(#a)" d="m91.3139 428.1593 16 6v-12z" fill="none"/><g stroke="none"><path clip-path="url(#a)" d="m129.5544 416.7374h227.0625v22.8438h-227.0625z" fill="#fff"/><text clip-path="url(#a)" font-family="sans-serif" font-size="16" x="131.5544" y="434.2062">beast:hasGenesisDescription</text></g></g></g></svg>