<?xml version="1.0" encoding="UTF-8"?><svg xmlns="http://www.w3.org/2000/svg" xmlns:xlink="http://www.w3.org/1999/xlink" fill-opacity="1" color-rendering="auto" color-interpolation="auto" text-rendering="auto" stroke="black" stroke-linecap="square" width="1708" stroke-miterlimit="10" shape-rendering="auto" stroke-opacity="1" fill="black" stroke-dasharray="none" font-weight="normal" stroke-width="1" height="1219" font-family="'Dialog'" font-style="normal" stroke-linejoin="miter" font-size="12px" stroke-dashoffset="0" image-rendering="auto">
  <!--Generated by ySVG 2.6-->
  <defs id="genericDefs"/>
  <g>
    <defs id="defs1">
      <clipPath clipPathUnits="userSpaceOnUse" id="clipPath1">
        <path d="M0 0 L1708 0 L1708 1219 L0 1219 L0 0 Z"/>
      </clipPath>
      <clipPath clipPathUnits="userSpaceOnUse" id="clipPath2">
        <path d="M-78 -60 L1630 -60 L1630 1159 L-78 1159 L-78 -60 Z"/>
      </clipPath>
      <clipPath clipPathUnits="userSpaceOnUse" id="clipPath3">
        <path d="M-82 -64 L1626 -64 L1626 1155 L-82 1155 L-82 -64 Z"/>
      </clipPath>
    </defs>
    <g fill="white" text-rendering="geometricPrecision" shape-rendering="geometricPrecision" transform="translate(78,60)" stroke="white">
      <rect x="-78" width="1708" height="1219" y="-60" clip-path="url(#clipPath2)" stroke="none"/>
    </g>
    <g fill="yellow" text-rendering="geometricPrecision" shape-rendering="geometricPrecision" transform="matrix(1,0,0,1,78,60)" stroke="yellow">
      <rect x="693.6652" y="626.7819" clip-path="url(#clipPath2)" width="164.9682" rx="4" ry="4" height="44" stroke="none"/>
    </g>
    <g font-size="16px" stroke-linecap="butt" transform="matrix(1,0,0,1,78,60)" text-rendering="geometricPrecision" font-family="sans-serif" shape-rendering="geometricPrecision" stroke-miterlimit="1.45">
      <text x="707.2157" xml:space="preserve" y="655.0671" clip-path="url(#clipPath2)" stroke="none">beast:Interpretation</text>
      <rect x="693.6652" y="626.7819" clip-path="url(#clipPath2)" fill="none" width="164.9682" rx="4" ry="4" height="44"/>
    </g>
    <g fill="yellow" text-rendering="geometricPrecision" shape-rendering="geometricPrecision" transform="matrix(1,0,0,1,78,60)" stroke="yellow">
      <rect x="278.1531" y="716.1677" clip-path="url(#clipPath2)" width="121.9682" rx="4" ry="4" height="44" stroke="none"/>
    </g>
    <g font-size="16px" stroke-linecap="butt" transform="matrix(1,0,0,1,78,60)" text-rendering="geometricPrecision" font-family="sans-serif" shape-rendering="geometricPrecision" stroke-miterlimit="1.45">
      <text x="286.2192" xml:space="preserve" y="744.4529" clip-path="url(#clipPath2)" stroke="none">beast:Creature</text>
      <rect x="278.1531" y="716.1677" clip-path="url(#clipPath2)" fill="none" width="121.9682" rx="4" ry="4" height="44"/>
    </g>
    <g fill="yellow" text-rendering="geometricPrecision" shape-rendering="geometricPrecision" transform="matrix(1,0,0,1,78,60)" stroke="yellow">
      <rect x="1030.3039" y="626.7819" clip-path="url(#clipPath2)" width="113.4682" rx="4" ry="4" height="44" stroke="none"/>
    </g>
    <g font-size="16px" stroke-linecap="butt" transform="matrix(1,0,0,1,78,60)" text-rendering="geometricPrecision" font-family="sans-serif" shape-rendering="geometricPrecision" stroke-miterlimit="1.45">
      <text x="1039.8975" xml:space="preserve" y="655.0671" clip-path="url(#clipPath2)" stroke="none">beast:Source</text>
      <rect x="1030.3039" y="626.7819" clip-path="url(#clipPath2)" fill="none" width="113.4682" rx="4" ry="4" height="44"/>
    </g>
    <g fill="yellow" text-rendering="geometricPrecision" shape-rendering="geometricPrecision" transform="matrix(1,0,0,1,78,60)" stroke="yellow">
      <rect x="710.1467" y="864.6142" clip-path="url(#clipPath2)" width="132.0053" rx="4" ry="4" height="44" stroke="none"/>
    </g>
    <g font-size="16px" stroke-linecap="butt" transform="matrix(1,0,0,1,78,60)" text-rendering="geometricPrecision" font-family="sans-serif" shape-rendering="geometricPrecision" stroke-miterlimit="1.45">
      <text x="717.0087" xml:space="preserve" y="892.8994" clip-path="url(#clipPath2)" stroke="none">beast:Etymology</text>
      <rect x="710.1467" y="864.6142" clip-path="url(#clipPath2)" fill="none" width="132.0053" rx="4" ry="4" height="44"/>
    </g>
    <g fill="rgb(204,255,204)" text-rendering="geometricPrecision" shape-rendering="geometricPrecision" transform="matrix(1,0,0,1,78,60)" stroke="rgb(204,255,204)">
      <path d="M343.6555 1027.125 L457.141 1027.125 L444.5315 1070.125 L331.046 1070.125 Z" fill-rule="evenodd" clip-path="url(#clipPath2)" stroke="none"/>
    </g>
    <g font-size="16px" stroke-linecap="butt" transform="matrix(1,0,0,1,78,60)" text-rendering="geometricPrecision" font-family="sans-serif" shape-rendering="geometricPrecision" stroke-miterlimit="1.45">
      <text x="356.7458" xml:space="preserve" y="1054.9102" clip-path="url(#clipPath2)" stroke="none">rdfs:Literal</text>
      <path fill="none" d="M343.6555 1027.125 L457.141 1027.125 L444.5315 1070.125 L331.046 1070.125 Z" fill-rule="evenodd" clip-path="url(#clipPath2)"/>
    </g>
    <g fill="rgb(204,255,204)" text-rendering="geometricPrecision" shape-rendering="geometricPrecision" transform="matrix(1,0,0,1,78,60)" stroke="rgb(204,255,204)">
      <path d="M343.6555 954.125 L457.141 954.125 L444.5315 997.125 L331.046 997.125 Z" fill-rule="evenodd" clip-path="url(#clipPath2)" stroke="none"/>
    </g>
    <g font-size="16px" stroke-linecap="butt" transform="matrix(1,0,0,1,78,60)" text-rendering="geometricPrecision" font-family="sans-serif" shape-rendering="geometricPrecision" stroke-miterlimit="1.45">
      <text x="356.7458" xml:space="preserve" y="981.9102" clip-path="url(#clipPath2)" stroke="none">rdfs:Literal</text>
      <path fill="none" d="M343.6555 954.125 L457.141 954.125 L444.5315 997.125 L331.046 997.125 Z" fill-rule="evenodd" clip-path="url(#clipPath2)"/>
    </g>
    <g fill="rgb(204,255,204)" text-rendering="geometricPrecision" shape-rendering="geometricPrecision" transform="matrix(1,0,0,1,78,60)" stroke="rgb(204,255,204)">
      <path d="M1497.4019 260.4073 L1610.8873 260.4073 L1598.2778 303.4073 L1484.7924 303.4073 Z" fill-rule="evenodd" clip-path="url(#clipPath2)" stroke="none"/>
    </g>
    <g font-size="16px" stroke-linecap="butt" transform="matrix(1,0,0,1,78,60)" text-rendering="geometricPrecision" font-family="sans-serif" shape-rendering="geometricPrecision" stroke-miterlimit="1.45">
      <text x="1510.4922" xml:space="preserve" y="288.1925" clip-path="url(#clipPath2)" stroke="none">rdfs:Literal</text>
      <path fill="none" d="M1497.4019 260.4073 L1610.8873 260.4073 L1598.2778 303.4073 L1484.7924 303.4073 Z" fill-rule="evenodd" clip-path="url(#clipPath2)"/>
    </g>
    <g fill="yellow" text-rendering="geometricPrecision" shape-rendering="geometricPrecision" transform="matrix(1,0,0,1,78,60)" stroke="yellow">
      <rect x="1481.8372" y="516.2453" clip-path="url(#clipPath2)" width="132.0053" rx="4" ry="4" height="44" stroke="none"/>
    </g>
    <g font-size="16px" stroke-linecap="butt" transform="matrix(1,0,0,1,78,60)" text-rendering="geometricPrecision" font-family="sans-serif" shape-rendering="geometricPrecision" stroke-miterlimit="1.45">
      <text x="1492.2578" xml:space="preserve" y="544.5305" clip-path="url(#clipPath2)" stroke="none">schema:Person</text>
      <rect x="1481.8372" y="516.2453" clip-path="url(#clipPath2)" fill="none" width="132.0053" rx="4" ry="4" height="44"/>
    </g>
    <g fill="rgb(204,255,204)" text-rendering="geometricPrecision" shape-rendering="geometricPrecision" transform="matrix(1,0,0,1,78,60)" stroke="rgb(204,255,204)">
      <path d="M1497.4019 324.8211 L1610.8873 324.8211 L1598.2778 367.8211 L1484.7924 367.8211 Z" fill-rule="evenodd" clip-path="url(#clipPath2)" stroke="none"/>
    </g>
    <g font-size="16px" stroke-linecap="butt" transform="matrix(1,0,0,1,78,60)" text-rendering="geometricPrecision" font-family="sans-serif" shape-rendering="geometricPrecision" stroke-miterlimit="1.45">
      <text x="1511.8203" xml:space="preserve" y="352.6062" clip-path="url(#clipPath2)" stroke="none">xsd:gYear</text>
      <path fill="none" d="M1497.4019 324.8211 L1610.8873 324.8211 L1598.2778 367.8211 L1484.7924 367.8211 Z" fill-rule="evenodd" clip-path="url(#clipPath2)"/>
    </g>
    <g fill="rgb(204,255,204)" text-rendering="geometricPrecision" shape-rendering="geometricPrecision" transform="matrix(1,0,0,1,78,60)" stroke="rgb(204,255,204)">
      <path d="M1497.4019 389.2348 L1610.8873 389.2348 L1598.2778 432.2348 L1484.7924 432.2348 Z" fill-rule="evenodd" clip-path="url(#clipPath2)" stroke="none"/>
    </g>
    <g font-size="16px" stroke-linecap="butt" transform="matrix(1,0,0,1,78,60)" text-rendering="geometricPrecision" font-family="sans-serif" shape-rendering="geometricPrecision" stroke-miterlimit="1.45">
      <text x="1510.4922" xml:space="preserve" y="417.02" clip-path="url(#clipPath2)" stroke="none">rdfs:Literal</text>
      <path fill="none" d="M1497.4019 389.2348 L1610.8873 389.2348 L1598.2778 432.2348 L1484.7924 432.2348 Z" fill-rule="evenodd" clip-path="url(#clipPath2)"/>
    </g>
    <g fill="yellow" text-rendering="geometricPrecision" shape-rendering="geometricPrecision" transform="matrix(1,0,0,1,78,60)" stroke="yellow">
      <rect x="1284.613" y="955.5933" clip-path="url(#clipPath2)" width="113.4682" rx="4" ry="4" height="44" stroke="none"/>
    </g>
    <g font-size="16px" stroke-linecap="butt" transform="matrix(1,0,0,1,78,60)" text-rendering="geometricPrecision" font-family="sans-serif" shape-rendering="geometricPrecision" stroke-miterlimit="1.45">
      <text x="1290.6558" xml:space="preserve" y="983.8784" clip-path="url(#clipPath2)" stroke="none">beast:Bestiary</text>
      <rect x="1284.613" y="955.5933" clip-path="url(#clipPath2)" fill="none" width="113.4682" rx="4" ry="4" height="44"/>
    </g>
    <g fill="yellow" text-rendering="geometricPrecision" shape-rendering="geometricPrecision" transform="matrix(1,0,0,1,78,60)" stroke="yellow">
      <rect x="1263.9525" y="1099.625" clip-path="url(#clipPath2)" width="154.7893" rx="4" ry="4" height="44" stroke="none"/>
    </g>
    <g font-size="16px" stroke-linecap="butt" transform="matrix(1,0,0,1,78,60)" text-rendering="geometricPrecision" font-family="sans-serif" shape-rendering="geometricPrecision" stroke-miterlimit="1.45">
      <text x="1272.8706" xml:space="preserve" y="1127.9102" clip-path="url(#clipPath2)" stroke="none">beast:BestiaryType</text>
      <rect x="1263.9525" y="1099.625" clip-path="url(#clipPath2)" fill="none" width="154.7893" rx="4" ry="4" height="44"/>
    </g>
    <g fill="rgb(204,255,204)" text-rendering="geometricPrecision" shape-rendering="geometricPrecision" transform="matrix(1,0,0,1,78,60)" stroke="rgb(204,255,204)">
      <path d="M361.8432 516.7453 L475.3286 516.7453 L462.7191 559.7453 L349.2337 559.7453 Z" fill-rule="evenodd" clip-path="url(#clipPath2)" stroke="none"/>
    </g>
    <g font-size="16px" stroke-linecap="butt" transform="matrix(1,0,0,1,78,60)" text-rendering="geometricPrecision" font-family="sans-serif" shape-rendering="geometricPrecision" stroke-miterlimit="1.45">
      <text x="374.9335" xml:space="preserve" y="544.5305" clip-path="url(#clipPath2)" stroke="none">rdfs:Literal</text>
      <path fill="none" d="M361.8432 516.7453 L475.3286 516.7453 L462.7191 559.7453 L349.2337 559.7453 Z" fill-rule="evenodd" clip-path="url(#clipPath2)"/>
    </g>
    <g fill="rgb(204,255,204)" text-rendering="geometricPrecision" shape-rendering="geometricPrecision" transform="matrix(1,0,0,1,78,60)" stroke="rgb(204,255,204)">
      <path d="M1497.4019 453.6485 L1610.8873 453.6485 L1598.2778 496.6485 L1484.7924 496.6485 Z" fill-rule="evenodd" clip-path="url(#clipPath2)" stroke="none"/>
    </g>
    <g font-size="16px" stroke-linecap="butt" transform="matrix(1,0,0,1,78,60)" text-rendering="geometricPrecision" font-family="sans-serif" shape-rendering="geometricPrecision" stroke-miterlimit="1.45">
      <text x="1510.4922" xml:space="preserve" y="481.4337" clip-path="url(#clipPath2)" stroke="none">rdfs:Literal</text>
      <path fill="none" d="M1497.4019 453.6485 L1610.8873 453.6485 L1598.2778 496.6485 L1484.7924 496.6485 Z" fill-rule="evenodd" clip-path="url(#clipPath2)"/>
    </g>
    <g fill="rgb(204,255,204)" text-rendering="geometricPrecision" shape-rendering="geometricPrecision" transform="matrix(1,0,0,1,78,60)" stroke="rgb(204,255,204)">
      <path d="M343.6555 1100.125 L457.141 1100.125 L444.5315 1143.125 L331.046 1143.125 Z" fill-rule="evenodd" clip-path="url(#clipPath2)" stroke="none"/>
    </g>
    <g font-size="16px" stroke-linecap="butt" transform="matrix(1,0,0,1,78,60)" text-rendering="geometricPrecision" font-family="sans-serif" shape-rendering="geometricPrecision" stroke-miterlimit="1.45">
      <text x="356.7458" xml:space="preserve" y="1127.9102" clip-path="url(#clipPath2)" stroke="none">rdfs:Literal</text>
      <path fill="none" d="M343.6555 1100.125 L457.141 1100.125 L444.5315 1143.125 L331.046 1143.125 Z" fill-rule="evenodd" clip-path="url(#clipPath2)"/>
    </g>
    <g fill="yellow" text-rendering="geometricPrecision" shape-rendering="geometricPrecision" transform="matrix(1,0,0,1,78,60)" stroke="yellow">
      <rect x="388.5473" y="397.1738" clip-path="url(#clipPath2)" width="121.9682" rx="4" ry="4" height="44" stroke="none"/>
    </g>
    <g font-size="16px" stroke-linecap="butt" transform="matrix(1,0,0,1,78,60)" text-rendering="geometricPrecision" font-family="sans-serif" shape-rendering="geometricPrecision" stroke-miterlimit="1.45">
      <text x="400.6135" xml:space="preserve" y="425.459" clip-path="url(#clipPath2)" stroke="none">beast:Citation</text>
      <rect x="388.5473" y="397.1738" clip-path="url(#clipPath2)" fill="none" width="121.9682" rx="4" ry="4" height="44"/>
    </g>
    <g fill="rgb(204,255,204)" text-rendering="geometricPrecision" shape-rendering="geometricPrecision" transform="matrix(1,0,0,1,78,60)" stroke="rgb(204,255,204)">
      <path d="M-6.2477 125.1509 L107.2378 125.1509 L94.6283 168.1509 L-18.8572 168.1509 Z" fill-rule="evenodd" clip-path="url(#clipPath2)" stroke="none"/>
    </g>
    <g font-size="16px" stroke-linecap="butt" transform="matrix(1,0,0,1,78,60)" text-rendering="geometricPrecision" font-family="sans-serif" shape-rendering="geometricPrecision" stroke-miterlimit="1.45">
      <text x="6.8426" xml:space="preserve" y="152.9361" clip-path="url(#clipPath2)" stroke="none">rdfs:Literal</text>
      <path fill="none" d="M-6.2477 125.1509 L107.2378 125.1509 L94.6283 168.1509 L-18.8572 168.1509 Z" fill-rule="evenodd" clip-path="url(#clipPath2)"/>
    </g>
    <g fill="rgb(204,255,204)" text-rendering="geometricPrecision" shape-rendering="geometricPrecision" transform="matrix(1,0,0,1,78,60)" stroke="rgb(204,255,204)">
      <path d="M-41.4431 300.5142 L151.2319 300.5142 L129.8236 354.5127 L-62.8514 354.5127 Z" fill-rule="evenodd" clip-path="url(#clipPath2)" stroke="none"/>
    </g>
    <g font-size="16px" stroke-linecap="butt" transform="matrix(1,0,0,1,78,60)" text-rendering="geometricPrecision" font-family="sans-serif" shape-rendering="geometricPrecision" stroke-miterlimit="1.45">
      <text x="-35.423" xml:space="preserve" y="333.7986" clip-path="url(#clipPath2)" stroke="none">hasSequenceIdentifier</text>
      <path fill="none" d="M-41.4431 300.5142 L151.2319 300.5142 L129.8236 354.5127 L-62.8514 354.5127 Z" fill-rule="evenodd" clip-path="url(#clipPath2)"/>
    </g>
    <g fill="rgb(204,255,204)" text-rendering="geometricPrecision" shape-rendering="geometricPrecision" transform="matrix(1,0,0,1,78,60)" stroke="rgb(204,255,204)">
      <path d="M-6.2477 210.8512 L107.2378 210.8512 L94.6283 253.8512 L-18.8572 253.8512 Z" fill-rule="evenodd" clip-path="url(#clipPath2)" stroke="none"/>
    </g>
    <g font-size="16px" stroke-linecap="butt" transform="matrix(1,0,0,1,78,60)" text-rendering="geometricPrecision" font-family="sans-serif" shape-rendering="geometricPrecision" stroke-miterlimit="1.45">
      <text x="6.8426" xml:space="preserve" y="238.6363" clip-path="url(#clipPath2)" stroke="none">rdfs:Literal</text>
      <path fill="none" d="M-6.2477 210.8512 L107.2378 210.8512 L94.6283 253.8512 L-18.8572 253.8512 Z" fill-rule="evenodd" clip-path="url(#clipPath2)"/>
    </g>
    <g stroke-linecap="butt" transform="matrix(1,0,0,1,78,60)" fill="navy" text-rendering="geometricPrecision" shape-rendering="geometricPrecision" stroke="navy" stroke-miterlimit="1.45">
      <path fill="none" d="M689.679 648.7819 L468.3604 648.7819 L380.0164 709.8909" clip-path="url(#clipPath2)"/>
      <path d="M697.679 648.7819 C697.679 650.9911 695.8882 652.7819 693.679 652.7819 C691.4698 652.7819 689.679 650.9911 689.679 648.7819 C689.679 646.5728 691.4698 644.7819 693.679 644.7819 C695.8882 644.7819 697.679 646.5728 697.679 648.7819 Z" clip-path="url(#clipPath2)" stroke="none"/>
      <path d="M370.9698 716.1486 L384.2521 714.2566 L377.4255 704.3875 Z" clip-path="url(#clipPath2)" stroke="none"/>
      <rect x="514.8604" y="636.9811" clip-path="url(#clipPath2)" fill="white" width="123.1797" height="23.6016" stroke="none"/>
      <text x="516.8604" font-size="16px" y="655.0671" clip-path="url(#clipPath2)" font-family="sans-serif" stroke="none" xml:space="preserve">beast:ofCreature</text>
      <path fill="none" d="M862.6153 648.7819 L1019.2949 648.7819" clip-path="url(#clipPath2)"/>
      <path d="M854.6153 648.7819 C854.6153 646.5728 856.4061 644.7819 858.6153 644.7819 C860.8245 644.7819 862.6153 646.5728 862.6153 648.7819 C862.6153 650.9911 860.8245 652.7819 858.6153 652.7819 C856.4061 652.7819 854.6153 650.9911 854.6153 648.7819 Z" clip-path="url(#clipPath2)" stroke="none"/>
      <path d="M1030.2949 648.7819 L1018.2949 642.7819 L1018.2949 654.7819 Z" clip-path="url(#clipPath2)" stroke="none"/>
      <rect x="885.0937" y="636.9811" clip-path="url(#clipPath2)" fill="white" width="118.75" height="23.6016" stroke="none"/>
      <text x="887.0937" font-size="16px" y="655.0671" clip-path="url(#clipPath2)" font-family="sans-serif" stroke="none" xml:space="preserve">beast:appearsIn</text>
      <path fill="none" d="M1076.9596 674.5383 L1076.9299 674.6339 L1075.5593 679.9777 L1074.2583 686.3562 L1073.2806 692.755 L1072.6226 699.1631 L1072.2808 705.5691 L1072.2517 711.962 L1072.5316 718.3305 L1073.1171 724.6635 L1074.0046 730.9498 L1075.1906 737.1782 L1076.6714 743.3376 L1078.4436 749.4168 L1080.5035 755.4046 L1082.8478 761.2898 L1085.4728 767.0612 L1088.3749 772.7078 L1091.5505 778.2181 L1094.9962 783.5813 L1098.7085 788.786 L1102.6837 793.821 L1106.9183 798.6753 L1111.4088 803.3375 L1116.1516 807.7966 L1121.1432 812.0414 L1126.3799 816.0607 L1131.8583 819.8433 L1137.5748 823.378 L1143.5259 826.6536 L1149.635 829.6244 L1155.8202 832.254 L1162.0706 834.5463 L1168.3748 836.5045 L1174.7217 838.1324 L1181.1002 839.4334 L1187.499 840.4111 L1193.9071 841.0691 L1200.3131 841.4109 L1206.7059 841.4401 L1213.0745 841.1601 L1219.4075 840.5746 L1225.6938 839.6871 L1231.9222 838.5012 L1238.0817 837.0203 L1244.1608 835.2482 L1250.1486 833.1882 L1256.0338 830.8439 L1261.8053 828.219 L1267.4518 825.3169 L1272.9622 822.1412 L1278.3253 818.6954 L1283.53 814.9832 L1288.5651 811.008 L1293.4193 806.7734 L1298.0815 802.2829 L1302.5406 797.5401 L1306.7854 792.5485 L1310.8047 787.3118 L1314.5873 781.8334 L1318.1219 776.1169 L1321.3977 770.1658 L1324.3684 764.0568 L1326.998 757.8715 L1329.2903 751.6212 L1331.2485 745.3169 L1332.8763 738.97 L1334.1774 732.5915 L1335.1552 726.1927 L1335.8131 719.7846 L1336.1549 713.3786 L1336.1841 706.9857 L1335.9042 700.6172 L1335.3186 694.2842 L1334.4312 687.9979 L1333.2452 681.7695 L1331.7644 675.61 L1329.9922 669.5309 L1327.9321 663.5431 L1325.5879 657.6579 L1322.963 651.8865 L1320.0609 646.2399 L1316.8853 640.7296 L1313.4395 635.3664 L1309.7272 630.1617 L1305.752 625.1266 L1301.5173 620.2724 L1297.0269 615.6102 L1292.2841 611.1511 L1287.2926 606.9062 L1282.0558 602.887 L1276.5774 599.1044 L1270.8608 595.5697 L1264.9098 592.2941 L1258.8008 589.3233 L1252.6155 586.6937 L1246.3651 584.4014 L1240.0609 582.4432 L1233.714 580.8153 L1227.3356 579.5143 L1220.9366 578.5366 L1214.5287 577.8786 L1208.1227 577.5368 L1201.7297 577.5076 L1195.3612 577.7876 L1189.0282 578.3731 L1182.7419 579.2606 L1176.5134 580.4465 L1170.3541 581.9274 L1164.2749 583.6995 L1158.2871 585.7595 L1152.402 588.1038 L1146.6305 590.7287 L1140.984 593.6308 L1135.4735 596.8065 L1130.1105 600.2523 L1124.9058 603.9645 L1119.8707 607.9397 L1115.0165 612.1743 L1110.3541 616.6648 L1108.6088 618.5212 L1108.5442 618.5976" clip-path="url(#clipPath2)"/>
      <path d="M1079.2311 666.8676 C1081.3492 667.4948 1082.558 669.7204 1081.9307 671.8386 C1081.3035 673.9568 1079.0779 675.1655 1076.9596 674.5383 C1074.8414 673.9111 1073.6327 671.6855 1074.26 669.5673 C1074.8872 667.449 1077.1128 666.2404 1079.2311 666.8676 Z" clip-path="url(#clipPath2)" stroke="none"/>
      <path d="M1101.2859 626.863 L1113.7124 621.8053 L1104.6956 613.8871 Z" clip-path="url(#clipPath2)" stroke="none"/>
      <rect x="1149.9914" y="713.2356" clip-path="url(#clipPath2)" fill="white" width="168.5469" height="23.6016" stroke="none"/>
      <text x="1151.9915" font-size="16px" y="731.3215" clip-path="url(#clipPath2)" font-family="sans-serif" stroke="none" xml:space="preserve">beast:wasInfluencedBy</text>
      <path fill="none" d="M1074.7627 674.3953 L1074.7231 674.4872 L1072.9064 679.3637 L1070.4147 687.237 L1068.3319 695.1728 L1066.6547 703.1568 L1065.3792 711.1747 L1064.5017 719.2122 L1064.0186 727.2549 L1063.926 735.2886 L1064.2206 743.2989 L1064.8983 751.2715 L1065.9557 759.1922 L1067.389 767.0466 L1069.1946 774.8204 L1071.3688 782.4992 L1073.9077 790.0688 L1076.8079 797.515 L1080.0656 804.8232 L1083.677 811.9793 L1087.6385 818.9689 L1091.9465 825.7777 L1096.5973 832.3914 L1101.5872 838.7957 L1106.9124 844.9763 L1112.5692 850.9189 L1118.5541 856.6091 L1124.8634 862.0327 L1131.4932 867.1752 L1138.4401 872.0225 L1145.7001 876.5602 L1153.1802 880.7252 L1160.78 884.4664 L1168.4854 887.7874 L1176.2819 890.692 L1184.1552 893.1837 L1192.0909 895.2664 L1200.075 896.9436 L1208.0928 898.2191 L1216.1302 899.0966 L1224.173 899.5798 L1232.2067 899.6722 L1240.217 899.3777 L1248.1897 898.7 L1256.1104 897.6426 L1263.9647 896.2092 L1271.7385 894.4037 L1279.4174 892.2296 L1286.9871 889.6906 L1294.4331 886.7904 L1301.7413 883.5328 L1308.8975 879.9213 L1315.8871 875.9598 L1322.6959 871.6517 L1329.3096 867.001 L1335.7139 862.0112 L1341.8945 856.686 L1347.837 851.0291 L1353.5272 845.0442 L1358.9508 838.7349 L1364.0934 832.1051 L1368.9407 825.1583 L1373.4784 817.8983 L1377.6434 810.4181 L1381.3845 802.8182 L1384.7056 795.1129 L1387.6101 787.3165 L1390.1018 779.4432 L1392.1844 771.5074 L1393.8617 763.5234 L1395.1373 755.5055 L1396.0148 747.468 L1396.4979 739.4253 L1396.5905 731.3916 L1396.2959 723.3813 L1395.6182 715.4086 L1394.5607 707.4879 L1393.1273 699.6335 L1391.3218 691.8598 L1389.1477 684.1809 L1386.6088 676.6113 L1383.7086 669.1652 L1380.4509 661.8569 L1376.8395 654.7009 L1372.8779 647.7112 L1368.5699 640.9024 L1363.9192 634.2887 L1358.9293 627.8844 L1353.6041 621.7038 L1347.9473 615.7613 L1341.9623 610.071 L1335.6531 604.6475 L1329.0232 599.5049 L1322.0764 594.6576 L1314.8164 590.1199 L1307.3363 585.9549 L1299.7363 582.2137 L1292.031 578.8928 L1284.2346 575.9882 L1276.3613 573.4965 L1268.4255 571.4138 L1260.4415 569.7366 L1252.4236 568.461 L1244.3861 567.5835 L1236.3434 567.1004 L1228.3097 567.0079 L1220.2994 567.3024 L1212.3268 567.9802 L1204.4061 569.0376 L1196.5518 570.4709 L1188.778 572.2765 L1181.0991 574.4506 L1173.5294 576.9896 L1166.0834 579.8897 L1158.7751 583.1473 L1151.619 586.7589 L1144.6294 590.7204 L1137.8206 595.0284 L1131.2069 599.6791 L1124.8026 604.669 L1118.6219 609.9942 L1112.6794 615.6511 L1109.8906 618.5843 L1109.8254 618.6601" clip-path="url(#clipPath2)"/>
      <path d="M1077.6311 666.9273 C1079.6934 667.7194 1080.723 670.0333 1079.9309 672.0956 C1079.1388 674.1578 1076.8248 675.1874 1074.7627 674.3953 C1072.7004 673.6032 1071.6708 671.2893 1072.4629 669.2271 C1073.255 667.1648 1075.569 666.1352 1077.6311 666.9273 Z" clip-path="url(#clipPath2)" stroke="none"/>
      <path d="M1102.4948 626.8614 L1114.9653 621.913 L1106.0184 613.916 Z" clip-path="url(#clipPath2)" stroke="none"/>
      <rect x="1216.375" y="737.1018" clip-path="url(#clipPath2)" fill="white" width="80.4844" height="23.6016" stroke="none"/>
      <text x="1218.375" font-size="16px" y="755.1877" clip-path="url(#clipPath2)" font-family="sans-serif" stroke="none" xml:space="preserve">beast:cites</text>
      <path fill="none" d="M404.1555 738.1677 L962.0186 738.1677 L1047.2928 677.1987" clip-path="url(#clipPath2)"/>
      <path d="M396.1555 738.1677 C396.1555 735.9586 397.9464 734.1677 400.1555 734.1677 C402.3647 734.1677 404.1555 735.9586 404.1555 738.1677 C404.1555 740.3769 402.3647 742.1677 400.1555 742.1677 C397.9464 742.1677 396.1555 740.3769 396.1555 738.1677 Z" clip-path="url(#clipPath2)" stroke="none"/>
      <path d="M1056.241 670.8011 L1042.9896 672.8995 L1049.969 682.6612 Z" clip-path="url(#clipPath2)" stroke="none"/>
      <rect x="600.0309" y="726.3669" clip-path="url(#clipPath2)" fill="white" width="171.2031" height="23.6016" stroke="none"/>
      <text x="602.0309" font-size="16px" y="744.4529" clip-path="url(#clipPath2)" font-family="sans-serif" stroke="none" xml:space="preserve">beast:hasOriginContext</text>
      <path fill="none" d="M403.0725 759.8856 L702.0184 861.433" clip-path="url(#clipPath2)"/>
      <path d="M395.4976 757.3124 C396.2082 755.2207 398.4799 754.101 400.5716 754.8115 C402.6634 755.5221 403.7831 757.7938 403.0725 759.8856 C402.362 761.9773 400.0903 763.097 397.9985 762.3865 C395.9068 761.6759 394.7871 759.4042 395.4976 757.3124 Z" clip-path="url(#clipPath2)" stroke="none"/>
      <path d="M712.4338 864.971 L703.0013 855.4302 L699.1417 866.7925 Z" clip-path="url(#clipPath2)" stroke="none"/>
      <rect x="481.0949" y="799.7378" clip-path="url(#clipPath2)" fill="white" width="148.0781" height="23.6016" stroke="none"/>
      <text x="483.0949" font-size="16px" y="817.8237" clip-path="url(#clipPath2)" font-family="sans-serif" stroke="none" xml:space="preserve">beast:hasEtymology</text>
      <path fill="none" d="M776.1493 912.6454 L776.1493 1048.625 L465.8515 1048.625" clip-path="url(#clipPath2)" stroke="green"/>
    </g>
    <g stroke-linecap="butt" transform="matrix(1,0,0,1,78,60)" fill-opacity="0" fill="rgb(0,0,0)" text-rendering="geometricPrecision" shape-rendering="geometricPrecision" stroke="rgb(0,0,0)" stroke-opacity="0" stroke-miterlimit="1.45">
      <path d="M776.1493 904.6454 C778.3585 904.6454 780.1493 906.4363 780.1493 908.6454 C780.1493 910.8546 778.3585 912.6454 776.1493 912.6454 C773.9401 912.6454 772.1493 910.8546 772.1493 908.6454 C772.1493 906.4363 773.9401 904.6454 776.1493 904.6454 Z" stroke="none" clip-path="url(#clipPath2)"/>
    </g>
    <g stroke-linecap="butt" transform="matrix(1,0,0,1,78,60)" fill="green" text-rendering="geometricPrecision" shape-rendering="geometricPrecision" stroke="green" stroke-miterlimit="1.45">
      <path fill="none" d="M776.1493 904.6454 C778.3585 904.6454 780.1493 906.4363 780.1493 908.6454 C780.1493 910.8546 778.3585 912.6454 776.1493 912.6454 C773.9401 912.6454 772.1493 910.8546 772.1493 908.6454 C772.1493 906.4363 773.9401 904.6454 776.1493 904.6454 Z" clip-path="url(#clipPath2)"/>
      <path fill="white" d="M450.8515 1048.625 L466.8515 1054.625 L466.8515 1042.625 Z" clip-path="url(#clipPath2)" stroke="none"/>
      <path fill="none" d="M450.8515 1048.625 L466.8515 1054.625 L466.8515 1042.625 Z" clip-path="url(#clipPath2)"/>
      <rect x="548.9537" y="1036.8242" clip-path="url(#clipPath2)" fill="white" width="144.5078" height="23.6016" stroke="none"/>
      <text x="550.9537" font-size="16px" y="1054.9102" clip-path="url(#clipPath2)" font-family="sans-serif" stroke="none" xml:space="preserve">beast:hasRootTerm</text>
      <path fill="none" d="M776.1493 912.6495 L776.1493 975.625 L465.8515 975.625" clip-path="url(#clipPath2)"/>
    </g>
    <g stroke-linecap="butt" transform="matrix(1,0,0,1,78,60)" fill-opacity="0" fill="rgb(0,0,0)" text-rendering="geometricPrecision" shape-rendering="geometricPrecision" stroke="rgb(0,0,0)" stroke-opacity="0" stroke-miterlimit="1.45">
      <path d="M776.1493 904.6495 C778.3585 904.6495 780.1493 906.4404 780.1493 908.6495 C780.1493 910.8587 778.3585 912.6495 776.1493 912.6495 C773.9401 912.6495 772.1493 910.8587 772.1493 908.6495 C772.1493 906.4404 773.9401 904.6495 776.1493 904.6495 Z" stroke="none" clip-path="url(#clipPath2)"/>
    </g>
    <g stroke-linecap="butt" transform="matrix(1,0,0,1,78,60)" fill="green" text-rendering="geometricPrecision" shape-rendering="geometricPrecision" stroke="green" stroke-miterlimit="1.45">
      <path fill="none" d="M776.1493 904.6495 C778.3585 904.6495 780.1493 906.4404 780.1493 908.6495 C780.1493 910.8587 778.3585 912.6495 776.1493 912.6495 C773.9401 912.6495 772.1493 910.8587 772.1493 908.6495 C772.1493 906.4404 773.9401 904.6495 776.1493 904.6495 Z" clip-path="url(#clipPath2)"/>
      <path fill="white" d="M450.8515 975.625 L466.8515 981.625 L466.8515 969.625 Z" clip-path="url(#clipPath2)" stroke="none"/>
      <path fill="none" d="M450.8515 975.625 L466.8515 981.625 L466.8515 969.625 Z" clip-path="url(#clipPath2)"/>
      <rect x="553.8287" y="963.8242" clip-path="url(#clipPath2)" fill="white" width="134.7578" height="23.6016" stroke="none"/>
      <text x="555.8287" font-size="16px" y="981.9102" clip-path="url(#clipPath2)" font-family="sans-serif" stroke="none" xml:space="preserve">beast:hasMeaning</text>
      <path fill="none" d="M1087.0381 622.7927 L1087.0381 281.9073 L1476.1115 281.9073" clip-path="url(#clipPath2)"/>
    </g>
    <g stroke-linecap="butt" transform="matrix(1,0,0,1,78,60)" fill-opacity="0" fill="rgb(0,0,0)" text-rendering="geometricPrecision" shape-rendering="geometricPrecision" stroke="rgb(0,0,0)" stroke-opacity="0" stroke-miterlimit="1.45">
      <path d="M1087.0381 630.7927 C1084.829 630.7927 1083.0381 629.0019 1083.0381 626.7927 C1083.0381 624.5836 1084.829 622.7927 1087.0381 622.7927 C1089.2472 622.7927 1091.0381 624.5836 1091.0381 626.7927 C1091.0381 629.0019 1089.2472 630.7927 1087.0381 630.7927 Z" stroke="none" clip-path="url(#clipPath2)"/>
    </g>
    <g stroke-linecap="butt" transform="matrix(1,0,0,1,78,60)" fill="green" text-rendering="geometricPrecision" shape-rendering="geometricPrecision" stroke="green" stroke-miterlimit="1.45">
      <path fill="none" d="M1087.0381 630.7927 C1084.829 630.7927 1083.0381 629.0019 1083.0381 626.7927 C1083.0381 624.5836 1084.829 622.7927 1087.0381 622.7927 C1089.2472 622.7927 1091.0381 624.5836 1091.0381 626.7927 C1091.0381 629.0019 1089.2472 630.7927 1087.0381 630.7927 Z" clip-path="url(#clipPath2)"/>
      <path fill="white" d="M1491.1115 281.9073 L1475.1115 275.9073 L1475.1115 287.9073 Z" clip-path="url(#clipPath2)" stroke="none"/>
      <path fill="none" d="M1491.1115 281.9073 L1475.1115 275.9073 L1475.1115 287.9073 Z" clip-path="url(#clipPath2)"/>
      <rect x="1236.2316" y="270.1066" clip-path="url(#clipPath2)" fill="white" width="90.2422" height="23.6016" stroke="none"/>
      <text x="1238.2316" font-size="16px" y="288.1925" clip-path="url(#clipPath2)" font-family="sans-serif" stroke="none" xml:space="preserve">dcterms:title</text>
      <path fill="none" d="M1087.0381 622.788 L1087.0381 538.2453 L1470.8302 538.2453" clip-path="url(#clipPath2)" stroke="navy"/>
      <path fill="navy" d="M1087.0381 630.788 C1084.829 630.788 1083.0381 628.9971 1083.0381 626.788 C1083.0381 624.5788 1084.829 622.788 1087.0381 622.788 C1089.2472 622.788 1091.0381 624.5788 1091.0381 626.788 C1091.0381 628.9971 1089.2472 630.788 1087.0381 630.788 Z" clip-path="url(#clipPath2)" stroke="none"/>
      <path fill="navy" d="M1481.8302 538.2453 L1469.8302 532.2453 L1469.8302 544.2453 Z" clip-path="url(#clipPath2)" stroke="none"/>
      <rect x="1222.7423" y="526.4445" clip-path="url(#clipPath2)" fill="white" width="114.2656" height="23.6016" stroke="none"/>
    </g>
    <g stroke-linecap="butt" font-size="16px" transform="matrix(1,0,0,1,78,60)" fill="navy" text-rendering="geometricPrecision" font-family="sans-serif" shape-rendering="geometricPrecision" stroke="navy" stroke-miterlimit="1.45">
      <text x="1224.7423" xml:space="preserve" y="544.5305" clip-path="url(#clipPath2)" stroke="none">schema:creator</text>
    </g>
    <g stroke-linecap="butt" transform="matrix(1,0,0,1,78,60)" fill="green" text-rendering="geometricPrecision" shape-rendering="geometricPrecision" stroke="green" stroke-miterlimit="1.45">
      <path fill="none" d="M1087.0381 622.8137 L1087.0381 346.3211 L1476.1115 346.3211" clip-path="url(#clipPath2)"/>
    </g>
    <g stroke-linecap="butt" transform="matrix(1,0,0,1,78,60)" fill-opacity="0" fill="rgb(0,0,0)" text-rendering="geometricPrecision" shape-rendering="geometricPrecision" stroke="rgb(0,0,0)" stroke-opacity="0" stroke-miterlimit="1.45">
      <path d="M1087.0381 630.8137 C1084.829 630.8137 1083.0381 629.0228 1083.0381 626.8137 C1083.0381 624.6045 1084.829 622.8137 1087.0381 622.8137 C1089.2472 622.8137 1091.0381 624.6045 1091.0381 626.8137 C1091.0381 629.0228 1089.2472 630.8137 1087.0381 630.8137 Z" stroke="none" clip-path="url(#clipPath2)"/>
    </g>
    <g stroke-linecap="butt" transform="matrix(1,0,0,1,78,60)" fill="green" text-rendering="geometricPrecision" shape-rendering="geometricPrecision" stroke="green" stroke-miterlimit="1.45">
      <path fill="none" d="M1087.0381 630.8137 C1084.829 630.8137 1083.0381 629.0228 1083.0381 626.8137 C1083.0381 624.6045 1084.829 622.8137 1087.0381 622.8137 C1089.2472 622.8137 1091.0381 624.6045 1091.0381 626.8137 C1091.0381 629.0228 1089.2472 630.8137 1087.0381 630.8137 Z" clip-path="url(#clipPath2)"/>
      <path fill="white" d="M1491.1115 346.3211 L1475.1115 340.3211 L1475.1115 352.3211 Z" clip-path="url(#clipPath2)" stroke="none"/>
      <path fill="none" d="M1491.1115 346.3211 L1475.1115 340.3211 L1475.1115 352.3211 Z" clip-path="url(#clipPath2)"/>
      <rect x="1205.0871" y="334.5203" clip-path="url(#clipPath2)" fill="white" width="152.5312" height="23.6016" stroke="none"/>
      <text x="1207.087" font-size="16px" y="352.6062" clip-path="url(#clipPath2)" font-family="sans-serif" stroke="none" xml:space="preserve">schema:dateCreated</text>
      <path fill="none" d="M1087.0381 622.7847 L1087.0381 410.7348 L1476.1115 410.7348" clip-path="url(#clipPath2)"/>
    </g>
    <g stroke-linecap="butt" transform="matrix(1,0,0,1,78,60)" fill-opacity="0" fill="rgb(0,0,0)" text-rendering="geometricPrecision" shape-rendering="geometricPrecision" stroke="rgb(0,0,0)" stroke-opacity="0" stroke-miterlimit="1.45">
      <path d="M1087.0381 630.7847 C1084.829 630.7847 1083.0381 628.9938 1083.0381 626.7847 C1083.0381 624.5755 1084.829 622.7847 1087.0381 622.7847 C1089.2472 622.7847 1091.0381 624.5755 1091.0381 626.7847 C1091.0381 628.9938 1089.2472 630.7847 1087.0381 630.7847 Z" stroke="none" clip-path="url(#clipPath2)"/>
    </g>
    <g stroke-linecap="butt" transform="matrix(1,0,0,1,78,60)" fill="green" text-rendering="geometricPrecision" shape-rendering="geometricPrecision" stroke="green" stroke-miterlimit="1.45">
      <path fill="none" d="M1087.0381 630.7847 C1084.829 630.7847 1083.0381 628.9938 1083.0381 626.7847 C1083.0381 624.5755 1084.829 622.7847 1087.0381 622.7847 C1089.2472 622.7847 1091.0381 624.5755 1091.0381 626.7847 C1091.0381 628.9938 1089.2472 630.7847 1087.0381 630.7847 Z" clip-path="url(#clipPath2)"/>
      <path fill="white" d="M1491.1115 410.7348 L1475.1115 404.7348 L1475.1115 416.7348 Z" clip-path="url(#clipPath2)" stroke="none"/>
      <path fill="none" d="M1491.1115 410.7348 L1475.1115 404.7348 L1475.1115 416.7348 Z" clip-path="url(#clipPath2)"/>
      <rect x="1183.3058" y="398.934" clip-path="url(#clipPath2)" fill="white" width="196.0938" height="23.6016" stroke="none"/>
      <text x="1185.3058" font-size="16px" y="417.02" clip-path="url(#clipPath2)" font-family="sans-serif" stroke="none" xml:space="preserve">schema:temporalCoverage</text>
      <path fill="none" d="M1087.0381 670.8177 L1087.0381 977.5933 L1276.6305 977.5933" clip-path="url(#clipPath2)" stroke="black"/>
      <path fill="black" d="M1284.6305 977.5933 L1272.6305 972.5933 L1275.6305 977.5933 L1272.6305 982.5933 Z" clip-path="url(#clipPath2)" stroke="none"/>
      <rect x="1085.0381" y="826.7501" clip-path="url(#clipPath2)" fill="white" width="4" height="4" stroke="none"/>
      <path fill="none" d="M1341.3472 1003.5708 L1341.3472 1088.604" clip-path="url(#clipPath2)" stroke="navy"/>
      <path fill="navy" d="M1341.3472 995.5708 C1343.5563 995.5708 1345.3472 997.3616 1345.3472 999.5708 C1345.3472 1001.78 1343.5563 1003.5708 1341.3472 1003.5708 C1339.1381 1003.5708 1337.3472 1001.78 1337.3472 999.5708 C1337.3472 997.3616 1339.1381 995.5708 1341.3472 995.5708 Z" clip-path="url(#clipPath2)" stroke="none"/>
      <path fill="navy" d="M1341.3472 1099.604 L1347.3472 1087.604 L1335.3472 1087.604 Z" clip-path="url(#clipPath2)" stroke="none"/>
      <rect x="1257.9722" y="1037.8084" clip-path="url(#clipPath2)" fill="white" width="166.75" height="23.6016" stroke="none"/>
    </g>
    <g stroke-linecap="butt" font-size="16px" transform="matrix(1,0,0,1,78,60)" fill="navy" text-rendering="geometricPrecision" font-family="sans-serif" shape-rendering="geometricPrecision" stroke="navy" stroke-miterlimit="1.45">
      <text x="1259.9722" xml:space="preserve" y="1055.8943" clip-path="url(#clipPath2)" stroke="none">beast:hasBestiaryType</text>
    </g>
    <g stroke-linecap="butt" transform="matrix(1,0,0,1,78,60)" fill="green" text-rendering="geometricPrecision" shape-rendering="geometricPrecision" stroke="green" stroke-miterlimit="1.45">
      <path fill="none" d="M760.9429 623.355 L710.0436 538.2453 L484.0203 538.2453" clip-path="url(#clipPath2)"/>
    </g>
    <g stroke-linecap="butt" transform="matrix(1,0,0,1,78,60)" fill-opacity="0" fill="rgb(0,0,0)" text-rendering="geometricPrecision" shape-rendering="geometricPrecision" stroke="rgb(0,0,0)" stroke-opacity="0" stroke-miterlimit="1.45">
      <path d="M765.049 630.2209 C763.1531 631.3547 760.6969 630.7369 759.563 628.841 C758.4292 626.9451 759.047 624.4889 760.9429 623.355 C762.8389 622.2212 765.295 622.839 766.4289 624.7349 C767.5627 626.6309 766.9449 629.087 765.049 630.2209 Z" stroke="none" clip-path="url(#clipPath2)"/>
    </g>
    <g stroke-linecap="butt" transform="matrix(1,0,0,1,78,60)" fill="green" text-rendering="geometricPrecision" shape-rendering="geometricPrecision" stroke="green" stroke-miterlimit="1.45">
      <path fill="none" d="M765.049 630.2209 C763.1531 631.3547 760.6969 630.7369 759.563 628.841 C758.4292 626.9451 759.047 624.4889 760.9429 623.355 C762.8389 622.2212 765.295 622.839 766.4289 624.7349 C767.5627 626.6309 766.9449 629.087 765.049 630.2209 Z" clip-path="url(#clipPath2)"/>
      <path fill="white" d="M469.0203 538.2453 L485.0203 544.2453 L485.0203 532.2453 Z" clip-path="url(#clipPath2)" stroke="none"/>
      <path fill="none" d="M469.0203 538.2453 L485.0203 544.2453 L485.0203 532.2453 Z" clip-path="url(#clipPath2)"/>
      <rect x="516.5455" y="526.4445" clip-path="url(#clipPath2)" fill="white" width="161.4062" height="23.6016" stroke="none"/>
      <text x="518.5455" font-size="16px" y="544.5305" clip-path="url(#clipPath2)" font-family="sans-serif" stroke="none" xml:space="preserve">beast:hasSourceTerm</text>
      <path fill="none" d="M1087.0381 622.781 L1087.0381 475.1485 L1476.1115 475.1485" clip-path="url(#clipPath2)"/>
    </g>
    <g stroke-linecap="butt" transform="matrix(1,0,0,1,78,60)" fill-opacity="0" fill="rgb(0,0,0)" text-rendering="geometricPrecision" shape-rendering="geometricPrecision" stroke="rgb(0,0,0)" stroke-opacity="0" stroke-miterlimit="1.45">
      <path d="M1087.0381 630.781 C1084.829 630.781 1083.0381 628.9902 1083.0381 626.781 C1083.0381 624.5718 1084.829 622.781 1087.0381 622.781 C1089.2472 622.781 1091.0381 624.5718 1091.0381 626.781 C1091.0381 628.9902 1089.2472 630.781 1087.0381 630.781 Z" stroke="none" clip-path="url(#clipPath2)"/>
    </g>
    <g stroke-linecap="butt" transform="matrix(1,0,0,1,78,60)" fill="green" text-rendering="geometricPrecision" shape-rendering="geometricPrecision" stroke="green" stroke-miterlimit="1.45">
      <path fill="none" d="M1087.0381 630.781 C1084.829 630.781 1083.0381 628.9902 1083.0381 626.781 C1083.0381 624.5718 1084.829 622.781 1087.0381 622.781 C1089.2472 622.781 1091.0381 624.5718 1091.0381 626.781 C1091.0381 628.9902 1089.2472 630.781 1087.0381 630.781 Z" clip-path="url(#clipPath2)"/>
      <path fill="white" d="M1491.1115 475.1485 L1475.1115 469.1485 L1475.1115 481.1485 Z" clip-path="url(#clipPath2)" stroke="none"/>
      <path fill="none" d="M1491.1115 475.1485 L1475.1115 469.1485 L1475.1115 481.1485 Z" clip-path="url(#clipPath2)"/>
      <rect x="1215.7589" y="463.3477" clip-path="url(#clipPath2)" fill="white" width="131.1875" height="23.6016" stroke="none"/>
      <text x="1217.7589" font-size="16px" y="481.4337" clip-path="url(#clipPath2)" font-family="sans-serif" stroke="none" xml:space="preserve">dcterms:language</text>
      <path fill="none" d="M776.1493 912.6177 L776.1493 1121.625 L465.8515 1121.625" clip-path="url(#clipPath2)"/>
    </g>
    <g stroke-linecap="butt" transform="matrix(1,0,0,1,78,60)" fill-opacity="0" fill="rgb(0,0,0)" text-rendering="geometricPrecision" shape-rendering="geometricPrecision" stroke="rgb(0,0,0)" stroke-opacity="0" stroke-miterlimit="1.45">
      <path d="M776.1493 904.6177 C778.3585 904.6177 780.1493 906.4086 780.1493 908.6177 C780.1493 910.8269 778.3585 912.6177 776.1493 912.6177 C773.9401 912.6177 772.1493 910.8269 772.1493 908.6177 C772.1493 906.4086 773.9401 904.6177 776.1493 904.6177 Z" stroke="none" clip-path="url(#clipPath2)"/>
    </g>
    <g stroke-linecap="butt" transform="matrix(1,0,0,1,78,60)" fill="green" text-rendering="geometricPrecision" shape-rendering="geometricPrecision" stroke="green" stroke-miterlimit="1.45">
      <path fill="none" d="M776.1493 904.6177 C778.3585 904.6177 780.1493 906.4086 780.1493 908.6177 C780.1493 910.8269 778.3585 912.6177 776.1493 912.6177 C773.9401 912.6177 772.1493 910.8269 772.1493 908.6177 C772.1493 906.4086 773.9401 904.6177 776.1493 904.6177 Z" clip-path="url(#clipPath2)"/>
      <path fill="white" d="M450.8515 1121.625 L466.8515 1127.625 L466.8515 1115.625 Z" clip-path="url(#clipPath2)" stroke="none"/>
      <path fill="none" d="M450.8515 1121.625 L466.8515 1127.625 L466.8515 1115.625 Z" clip-path="url(#clipPath2)"/>
      <rect x="555.6139" y="1109.8242" clip-path="url(#clipPath2)" fill="white" width="131.1875" height="23.6016" stroke="none"/>
      <text x="557.6139" font-size="16px" y="1127.9102" clip-path="url(#clipPath2)" font-family="sans-serif" stroke="none" xml:space="preserve">dcterms:language</text>
      <path fill="none" d="M776.1493 622.7797 L776.1493 419.1738 L521.4932 419.1738" clip-path="url(#clipPath2)" stroke="navy"/>
      <path fill="navy" d="M776.1493 630.7797 C773.9401 630.7797 772.1493 628.9888 772.1493 626.7797 C772.1493 624.5705 773.9401 622.7797 776.1493 622.7797 C778.3585 622.7797 780.1493 624.5705 780.1493 626.7797 C780.1493 628.9888 778.3585 630.7797 776.1493 630.7797 Z" clip-path="url(#clipPath2)" stroke="none"/>
      <path fill="navy" d="M510.4932 419.1738 L522.4932 425.1738 L522.4932 413.1738 Z" clip-path="url(#clipPath2)" stroke="none"/>
      <rect x="548.059" y="407.373" clip-path="url(#clipPath2)" fill="white" width="199.6719" height="23.6016" stroke="none"/>
    </g>
    <g stroke-linecap="butt" font-size="16px" transform="matrix(1,0,0,1,78,60)" fill="navy" text-rendering="geometricPrecision" font-family="sans-serif" shape-rendering="geometricPrecision" stroke="navy" stroke-miterlimit="1.45">
      <text x="550.059" xml:space="preserve" y="425.459" clip-path="url(#clipPath2)" stroke="none">beast:hasTextualReference</text>
      <path fill="none" d="M449.5314 393.1648 L449.5314 347.5134 L772.4263 347.5134 L1056.108 619.1636" clip-path="url(#clipPath2)"/>
      <path d="M449.5314 401.1648 C447.3223 401.1648 445.5314 399.374 445.5314 397.1648 C445.5314 394.9557 447.3223 393.1648 449.5314 393.1648 C451.7406 393.1648 453.5314 394.9557 453.5314 397.1648 C453.5314 399.374 451.7406 401.1648 449.5314 401.1648 Z" stroke="none" clip-path="url(#clipPath2)"/>
      <path d="M1064.0529 626.7715 L1059.5355 614.1385 L1051.2361 622.8055 Z" stroke="none" clip-path="url(#clipPath2)"/>
    </g>
    <g stroke-linecap="butt" transform="matrix(1,0,0,1,78,60)" fill="white" text-rendering="geometricPrecision" shape-rendering="geometricPrecision" stroke="white" stroke-miterlimit="1.45">
      <rect x="838.1172" width="150.7266" height="23.6016" y="470.7844" clip-path="url(#clipPath2)" stroke="none"/>
    </g>
    <g stroke-linecap="butt" font-size="16px" transform="matrix(1,0,0,1,78,60)" fill="navy" text-rendering="geometricPrecision" font-family="sans-serif" shape-rendering="geometricPrecision" stroke="navy" stroke-miterlimit="1.45">
      <text x="840.1172" xml:space="preserve" y="488.8703" clip-path="url(#clipPath2)" stroke="none">beast:extractedFrom</text>
    </g>
    <g stroke-linecap="butt" transform="matrix(1,0,0,1,78,60)" fill="green" text-rendering="geometricPrecision" shape-rendering="geometricPrecision" stroke="green" stroke-miterlimit="1.45">
      <path fill="none" d="M449.5314 393.1844 L449.5314 146.6509 L115.944 146.6509" clip-path="url(#clipPath2)"/>
    </g>
    <g stroke-linecap="butt" transform="matrix(1,0,0,1,78,60)" fill-opacity="0" fill="rgb(0,0,0)" text-rendering="geometricPrecision" shape-rendering="geometricPrecision" stroke="rgb(0,0,0)" stroke-opacity="0" stroke-miterlimit="1.45">
      <path d="M449.5314 401.1844 C447.3223 401.1844 445.5314 399.3935 445.5314 397.1844 C445.5314 394.9752 447.3223 393.1844 449.5314 393.1844 C451.7406 393.1844 453.5314 394.9752 453.5314 397.1844 C453.5314 399.3935 451.7406 401.1844 449.5314 401.1844 Z" stroke="none" clip-path="url(#clipPath2)"/>
    </g>
    <g stroke-linecap="butt" transform="matrix(1,0,0,1,78,60)" fill="green" text-rendering="geometricPrecision" shape-rendering="geometricPrecision" stroke="green" stroke-miterlimit="1.45">
      <path fill="none" d="M449.5314 401.1844 C447.3223 401.1844 445.5314 399.3935 445.5314 397.1844 C445.5314 394.9752 447.3223 393.1844 449.5314 393.1844 C451.7406 393.1844 453.5314 394.9752 453.5314 397.1844 C453.5314 399.3935 451.7406 401.1844 449.5314 401.1844 Z" clip-path="url(#clipPath2)"/>
      <path fill="white" d="M100.944 146.6509 L116.944 152.6509 L116.944 140.6509 Z" clip-path="url(#clipPath2)" stroke="none"/>
      <path fill="none" d="M100.944 146.6509 L116.944 152.6509 L116.944 140.6509 Z" clip-path="url(#clipPath2)"/>
      <rect x="217.3534" y="134.8501" clip-path="url(#clipPath2)" fill="white" width="131.1875" height="23.6016" stroke="none"/>
      <text x="219.3533" font-size="16px" y="152.9361" clip-path="url(#clipPath2)" font-family="sans-serif" stroke="none" xml:space="preserve">dcterms:language</text>
      <path fill="none" d="M449.5314 393.1986 L449.5314 327.5134 L155.5281 327.5134" clip-path="url(#clipPath2)"/>
    </g>
    <g stroke-linecap="butt" transform="matrix(1,0,0,1,78,60)" fill-opacity="0" fill="rgb(0,0,0)" text-rendering="geometricPrecision" shape-rendering="geometricPrecision" stroke="rgb(0,0,0)" stroke-opacity="0" stroke-miterlimit="1.45">
      <path d="M449.5314 401.1986 C447.3223 401.1986 445.5314 399.4077 445.5314 397.1986 C445.5314 394.9895 447.3223 393.1986 449.5314 393.1986 C451.7406 393.1986 453.5314 394.9895 453.5314 397.1986 C453.5314 399.4077 451.7406 401.1986 449.5314 401.1986 Z" stroke="none" clip-path="url(#clipPath2)"/>
    </g>
    <g stroke-linecap="butt" transform="matrix(1,0,0,1,78,60)" fill="green" text-rendering="geometricPrecision" shape-rendering="geometricPrecision" stroke="green" stroke-miterlimit="1.45">
      <path fill="none" d="M449.5314 401.1986 C447.3223 401.1986 445.5314 399.4077 445.5314 397.1986 C445.5314 394.9895 447.3223 393.1986 449.5314 393.1986 C451.7406 393.1986 453.5314 394.9895 453.5314 397.1986 C453.5314 399.4077 451.7406 401.1986 449.5314 401.1986 Z" clip-path="url(#clipPath2)"/>
      <path fill="white" d="M140.5281 327.5134 L156.5281 333.5134 L156.5281 321.5134 Z" clip-path="url(#clipPath2)" stroke="none"/>
      <path fill="none" d="M140.5281 327.5134 L156.5281 333.5134 L156.5281 321.5134 Z" clip-path="url(#clipPath2)"/>
      <rect x="201.5379" y="315.7126" clip-path="url(#clipPath2)" fill="white" width="206.8125" height="23.6016" stroke="none"/>
      <text x="203.5379" font-size="16px" y="333.7986" clip-path="url(#clipPath2)" font-family="sans-serif" stroke="none" xml:space="preserve">beast:hasSequenceIdentifier</text>
      <path fill="none" d="M449.5314 393.1437 L449.5314 232.3512 L115.944 232.3512" clip-path="url(#clipPath2)"/>
    </g>
    <g stroke-linecap="butt" transform="matrix(1,0,0,1,78,60)" fill-opacity="0" fill="rgb(0,0,0)" text-rendering="geometricPrecision" shape-rendering="geometricPrecision" stroke="rgb(0,0,0)" stroke-opacity="0" stroke-miterlimit="1.45">
      <path d="M449.5314 401.1437 C447.3223 401.1437 445.5314 399.3528 445.5314 397.1437 C445.5314 394.9346 447.3223 393.1437 449.5314 393.1437 C451.7406 393.1437 453.5314 394.9346 453.5314 397.1437 C453.5314 399.3528 451.7406 401.1437 449.5314 401.1437 Z" stroke="none" clip-path="url(#clipPath2)"/>
    </g>
    <g stroke-linecap="butt" transform="matrix(1,0,0,1,78,60)" fill="green" text-rendering="geometricPrecision" shape-rendering="geometricPrecision" stroke="green" stroke-miterlimit="1.45">
      <path fill="none" d="M449.5314 401.1437 C447.3223 401.1437 445.5314 399.3528 445.5314 397.1437 C445.5314 394.9346 447.3223 393.1437 449.5314 393.1437 C451.7406 393.1437 453.5314 394.9346 453.5314 397.1437 C453.5314 399.3528 451.7406 401.1437 449.5314 401.1437 Z" clip-path="url(#clipPath2)"/>
      <path fill="white" d="M100.944 232.3512 L116.944 238.3512 L116.944 226.3512 Z" clip-path="url(#clipPath2)" stroke="none"/>
      <path fill="none" d="M100.944 232.3512 L116.944 238.3512 L116.944 226.3512 Z" clip-path="url(#clipPath2)"/>
      <rect x="199.5643" y="220.5504" clip-path="url(#clipPath2)" fill="white" width="166.7656" height="23.6016" stroke="none"/>
      <text x="201.5643" font-size="16px" y="238.6363" clip-path="url(#clipPath2)" font-family="sans-serif" stroke="none" xml:space="preserve">beast:hasPassageText</text>
    </g>
    <g fill="rgb(210,210,210)" text-rendering="geometricPrecision" shape-rendering="geometricPrecision" transform="matrix(1,0,0,1,78,60) translate(4,4)" stroke="rgb(210,210,210)">
      <rect x="1268.4876" width="342.3997" height="135.0686" y="11.5045" clip-path="url(#clipPath3)" stroke="none"/>
    </g>
    <g fill="white" text-rendering="geometricPrecision" shape-rendering="geometricPrecision" transform="matrix(1,0,0,1,78,60)" stroke="white">
      <rect x="1268.4876" width="342.3997" height="135.0686" y="11.5045" clip-path="url(#clipPath2)" stroke="none"/>
      <rect x="1268.4876" y="11.5045" clip-path="url(#clipPath2)" fill="rgb(183,182,158)" width="342.3997" height="22.3765" stroke="none"/>
    </g>
    <g font-size="15px" stroke-linecap="butt" transform="matrix(1,0,0,1,78,60)" text-rendering="geometricPrecision" font-family="sans-serif" shape-rendering="geometricPrecision" font-weight="bold" stroke-miterlimit="1.45">
      <text x="1538.0109" xml:space="preserve" y="28.585" clip-path="url(#clipPath2)" stroke="none">Prefixes   </text>
      <text x="1287.5282" font-size="12px" y="63.2165" clip-path="url(#clipPath2)" stroke="none" font-weight="normal" xml:space="preserve">@prefix beast: &lt;https://w3id.org/beast/ontology#&gt; .</text>
      <text x="1287.5282" font-size="12px" y="77.9177" clip-path="url(#clipPath2)" stroke="none" font-weight="normal" xml:space="preserve">@prefix dcterms: &lt;http://purl.org/dc/terms/&gt; .</text>
      <text x="1287.5282" font-size="12px" y="92.6189" clip-path="url(#clipPath2)" stroke="none" font-weight="normal" xml:space="preserve">@prefix schema: &lt;https://schema.org/&gt; .</text>
      <text x="1287.5282" font-size="12px" y="107.32" clip-path="url(#clipPath2)" stroke="none" font-weight="normal" xml:space="preserve">@prefix rdfs: &lt;http://www.w3.org/2000/01/rdf-schema#&gt; .</text>
      <text x="1287.5282" font-size="12px" y="122.0212" clip-path="url(#clipPath2)" stroke="none" font-weight="normal" xml:space="preserve">@prefix xsd: &lt;http://www.w3.org/2001/XMLSchema#&gt; .</text>
      <rect fill="none" x="1268.4876" width="342.3997" height="135.0686" y="11.5045" clip-path="url(#clipPath2)"/>
    </g>
  </g>
</svg>
